{"accessors":[{"bufferView":0,"componentType":5126,"count":122,"min":[16.98699951171875,0.0,-82.77538299560547],"max":[111.8281478881836,27.119169235229493,24.080209732055665],"type":"VEC3","name":"part000_vertices#0_POSITION"},{"bufferView":0,"byteOffset":12,"componentType":5120,"count":122,"type":"VEC4","name":"part000_vertices#0_TANGENT"},{"bufferView":0,"byteOffset":16,"componentType":5120,"count":122,"type":"VEC4","name":"part000_vertices#0_NORMAL"},{"bufferView":0,"byteOffset":20,"componentType":5122,"count":122,"type":"VEC2","name":"part000_vertices#0_TEXCOORD_0"},{"bufferView":0,"byteOffset":24,"componentType":5122,"count":122,"type":"VEC2","name":"part000_vertices#0_TEXCOORD_1"},{"bufferView":0,"byteOffset":28,"componentType":5123,"count":122,"type":"VEC4","name":"part000_vertices#0_COLOR_0"},{"bufferView":1,"componentType":5123,"count":240,"type":"SCALAR","name":"part000_indices#0"},{"bufferView":0,"byteOffset":4392,"componentType":5126,"count":1043,"min":[9.542630195617676,0.0,-102.56037902832031],"max":[111.8281478881836,27.706050872802736,24.080209732055665],"type":"VEC3","name":"part001_vertices#0_POSITION"},{"bufferView":0,"byteOffset":4404,"componentType":5120,"count":1043,"type":"VEC4","name":"part001_vertices#0_TANGENT"},{"bufferView":0,"byteOffset":4408,"componentType":5120,"count":1043,"type":"VEC4","name":"part001_vertices#0_NORMAL"},{"bufferView":0,"byteOffset":4412,"componentType":5122,"count":1043,"type":"VEC2","name":"part001_vertices#0_TEXCOORD_0"},{"bufferView":0,"byteOffset":4416,"componentType":5122,"count":1043,"type":"VEC2","name":"part001_vertices#0_TEXCOORD_1"},{"bufferView":0,"byteOffset":4420,"componentType":5123,"count":1043,"type":"VEC4","name":"part001_vertices#0_COLOR_0"},{"bufferView":1,"byteOffset":480,"componentType":5123,"count":1971,"type":"SCALAR","name":"part001_indices#0"},{"bufferView":0,"byteOffset":41940,"componentType":5126,"count":72,"min":[9.542630195617676,0.0,-102.56037902832031],"max":[106.73348236083985,27.206079483032228,24.080209732055665],"type":"VEC3","name":"part002_vertices#0_POSITION"},{"bufferView":0,"byteOffset":41952,"componentType":5120,"count":72,"type":"VEC4","name":"part002_vertices#0_TANGENT"},{"bufferView":0,"byteOffset":41956,"componentType":5120,"count":72,"type":"VEC4","name":"part002_vertices#0_NORMAL"},{"bufferView":0,"byteOffset":41960,"componentType":5122,"count":72,"type":"VEC2","name":"part002_vertices#0_TEXCOORD_0"},{"bufferView":0,"byteOffset":41964,"componentType":5122,"count":72,"type":"VEC2","name":"part002_vertices#0_TEXCOORD_1"},{"bufferView":0,"byteOffset":41968,"componentType":5123,"count":72,"type":"VEC4","name":"part002_vertices#0_COLOR_0"},{"bufferView":1,"byteOffset":4422,"componentType":5123,"count":132,"type":"SCALAR","name":"part002_indices#0"},{"bufferView":0,"byteOffset":44532,"componentType":5126,"count":13,"min":[10.371390342712403,0.0,-75.3958511352539],"max":[88.21510314941406,23.37356948852539,-10.752010345458985],"type":"VEC3","name":"part003_vertices#0_POSITION"},{"bufferView":0,"byteOffset":44544,"componentType":5120,"count":13,"type":"VEC4","name":"part003_vertices#0_TANGENT"},{"bufferView":0,"byteOffset":44548,"componentType":5120,"count":13,"type":"VEC4","name":"part003_vertices#0_NORMAL"},{"bufferView":0,"byteOffset":44552,"componentType":5122,"count":13,"type":"VEC2","name":"part003_vertices#0_TEXCOORD_0"},{"bufferView":0,"byteOffset":44556,"componentType":5122,"count":13,"type":"VEC2","name":"part003_vertices#0_TEXCOORD_1"},{"bufferView":0,"byteOffset":44560,"componentType":5123,"count":13,"type":"VEC4","name":"part003_vertices#0_COLOR_0"},{"bufferView":1,"byteOffset":4686,"componentType":5123,"count":21,"type":"SCALAR","name":"part003_indices#0"},{"bufferView":0,"byteOffset":45000,"componentType":5126,"count":637,"min":[9.542630195617676,0.0,-102.56037902832031],"max":[111.8281478881836,27.706050872802736,24.080209732055665],"type":"VEC3","name":"part004_vertices#0_POSITION"},{"bufferView":0,"byteOffset":45012,"componentType":5120,"count":637,"type":"VEC4","name":"part004_vertices#0_TANGENT"},{"bufferView":0,"byteOffset":45016,"componentType":5120,"count":637,"type":"VEC4","name":"part004_vertices#0_NORMAL"},{"bufferView":0,"byteOffset":45020,"componentType":5122,"count":637,"type":"VEC2","name":"part004_vertices#0_TEXCOORD_0"},{"bufferView":0,"byteOffset":45024,"componentType":5122,"count":637,"type":"VEC2","name":"part004_vertices#0_TEXCOORD_1"},{"bufferView":0,"byteOffset":45028,"componentType":5123,"count":637,"type":"VEC4","name":"part004_vertices#0_COLOR_0"},{"bufferView":1,"byteOffset":4728,"componentType":5123,"count":1599,"type":"SCALAR","name":"part004_indices#0"}],"asset":{"generator":"ModelConverterX","version":"2.0","extensions":{"ASOBO_asset_optimized":{"BoundingBoxMax":[111.8281478881836,27.706050872802736,24.080209732055665],"BoundingBoxMin":[9.542630195617676,0.0,-102.56037902832031],"MajorVersion":4,"MinorVersion":2}}},"bufferViews":[{"buffer":0,"byteLength":67932,"byteStride":36,"byteOffset":36,"target":34962,"name":"BufferViewVertexND"},{"buffer":0,"byteLength":7926,"byteOffset":67978,"target":34963,"name":"BufferViewIndex"}],"extensionsUsed":["MSFT_texture_dds","ASOBO_asset_optimized"],"extensionsRequired":["MSFT_texture_dds"],"materials":[{"name":"glTF_Material","pbrMetallicRoughness":{"metallicFactor":0.0,"roughnessFactor":0.0,"baseColorTexture":{"index":0}}},{"name":"glTF_Materialx","doubleSided":true,"pbrMetallicRoughness":{"metallicFactor":0.0,"roughnessFactor":0.0,"baseColorTexture":{"index":1}}},{"name":"glTF_Materialxx","pbrMetallicRoughness":{"metallicFactor":0.0,"roughnessFactor":0.0,"baseColorTexture":{"index":1}}},{"name":"glTF_Materialxxx","pbrMetallicRoughness":{"metallicFactor":0.0,"roughnessFactor":0.0,"baseColorTexture":{"index":2}}},{"name":"glTF_Materialxxxx","pbrMetallicRoughness":{"metallicFactor":0.0,"roughnessFactor":0.0,"baseColorTexture":{"index":3}}}],"meshes":[{"primitives":[{"attributes":{"COLOR_0":5,"NORMAL":2,"POSITION":0,"TANGENT":1,"TEXCOORD_0":3,"TEXCOORD_1":4},"indices":6,"material":0,"mode":4,"extras":{"ASOBO_primitive":{"PrimitiveCount":80,"VertexType":"VTX","VertexVersion":2}}}],"name":"part000"},{"primitives":[{"attributes":{"COLOR_0":12,"NORMAL":9,"POSITION":7,"TANGENT":8,"TEXCOORD_0":10,"TEXCOORD_1":11},"indices":13,"material":2,"mode":4,"extras":{"ASOBO_primitive":{"PrimitiveCount":657,"VertexType":"VTX","VertexVersion":2}}}],"name":"part001"},{"primitives":[{"attributes":{"COLOR_0":19,"NORMAL":16,"POSITION":14,"TANGENT":15,"TEXCOORD_0":17,"TEXCOORD_1":18},"indices":20,"material":4,"mode":4,"extras":{"ASOBO_primitive":{"PrimitiveCount":44,"VertexType":"VTX","VertexVersion":2}}}],"name":"part002"},{"primitives":[{"attributes":{"COLOR_0":26,"NORMAL":23,"POSITION":21,"TANGENT":22,"TEXCOORD_0":24,"TEXCOORD_1":25},"indices":27,"material":1,"mode":4,"extras":{"ASOBO_primitive":{"PrimitiveCount":7,"VertexType":"VTX","VertexVersion":2}}}],"name":"part003"},{"primitives":[{"attributes":{"COLOR_0":33,"NORMAL":30,"POSITION":28,"TANGENT":29,"TEXCOORD_0":31,"TEXCOORD_1":32},"indices":34,"material":3,"mode":4,"extras":{"ASOBO_primitive":{"PrimitiveCount":533,"VertexType":"VTX","VertexVersion":2}}}],"name":"part004"}],"nodes":[{"name":"node0","children":[1,2,3,4,5]},{"mesh":0,"name":"node1"},{"mesh":1,"name":"node2"},{"mesh":2,"name":"node3"},{"mesh":3,"name":"node4"},{"mesh":4,"name":"node5"}],"scene":0,"scenes":[{"nodes":[0]}],"textures":[{"extensions":{"MSFT_texture_dds":{"source":0}}},{"extensions":{"MSFT_texture_dds":{"source":1}}},{"extensions":{"MSFT_texture_dds":{"source":2}}},{"extensions":{"MSFT_texture_dds":{"source":3}}}],"buffers":[{"byteLength":75904,"uri":"HangarPOA2.bin"}],"images":[{"uri":"UNTITLED\\TEXTURE.JPG.DDS","extras":"ASOBO_image_converted_meta"},{"uri":"UNTITLED\\TEXTURE_0.JPG.DDS","extras":"ASOBO_image_converted_meta"},{"uri":"UNTITLED\\TEXTURE_1.JPG.DDS","extras":"ASOBO_image_converted_meta"},{"uri":"UNTITLED\\TEXTURE_2.JPG.DDS","extras":"ASOBO_image_converted_meta"}]}
