{"accessors":[{"bufferView":0,"componentType":5126,"count":4056,"min":[-1.1722999811172486,-1.2747999429702759,-1.7404999732971192],"max":[1.235700011253357,26.882099151611329,1.3109999895095826],"type":"VEC3","name":"part000_vertices#0_POSITION"},{"bufferView":0,"byteOffset":12,"componentType":5120,"count":4056,"type":"VEC4","name":"part000_vertices#0_TANGENT"},{"bufferView":0,"byteOffset":16,"componentType":5120,"count":4056,"type":"VEC4","name":"part000_vertices#0_NORMAL"},{"bufferView":0,"byteOffset":20,"componentType":5122,"count":4056,"type":"VEC2","name":"part000_vertices#0_TEXCOORD_0"},{"bufferView":0,"byteOffset":24,"componentType":5122,"count":4056,"type":"VEC2","name":"part000_vertices#0_TEXCOORD_1"},{"bufferView":0,"byteOffset":28,"componentType":5123,"count":4056,"type":"VEC4","name":"part000_vertices#0_COLOR_0"},{"bufferView":1,"componentType":5123,"count":5190,"type":"SCALAR","name":"part000_indices#0"}],"asset":{"generator":"ModelConverterX","version":"2.0","extensions":{"ASOBO_asset_optimized":{"BoundingBoxMax":[1.235700011253357,26.882099151611329,1.3109999895095826],"BoundingBoxMin":[-1.1722999811172486,-1.2747999429702759,-1.7404999732971192],"MajorVersion":4,"MinorVersion":2}}},"bufferViews":[{"buffer":0,"byteLength":146016,"byteStride":36,"byteOffset":32,"target":34962,"name":"BufferViewVertexND"},{"buffer":0,"byteLength":10380,"byteOffset":146164,"target":34963,"name":"BufferViewIndex"}],"extensionsUsed":["MSFT_texture_dds","ASOBO_asset_optimized"],"extensionsRequired":["MSFT_texture_dds"],"materials":[{"name":"glTF_Material","emissiveTexture":{"index":1},"emissiveFactor":[1.0,1.0,1.0],"pbrMetallicRoughness":{"metallicFactor":0.0,"baseColorTexture":{"index":0}}}],"meshes":[{"primitives":[{"attributes":{"COLOR_0":5,"NORMAL":2,"POSITION":0,"TANGENT":1,"TEXCOORD_0":3,"TEXCOORD_1":4},"indices":6,"material":0,"mode":4,"extras":{"ASOBO_primitive":{"PrimitiveCount":1730,"VertexType":"VTX","VertexVersion":2}}}],"name":"part000"}],"nodes":[{"name":"node0","children":[1,2,3,4,5,6,7,8,9]},{"mesh":0,"name":"node1"},{"matrix":[1.0,0.0,0.0,-0.007,0.0,1.0,0.0,23.2952,0.0,0.0,1.0,1.9747,0.0,0.0,0.0,1.0],"name":"node2"},{"matrix":[1.0,0.0,0.0,0.0741,0.0,1.0,0.0,25.1068,0.0,0.0,1.0,1.1789,0.0,0.0,0.0,1.0],"name":"node3"},{"matrix":[1.0,0.0,0.0,-0.807,0.0,1.0,0.0,24.222,0.0,0.0,1.0,1.0502,0.0,0.0,0.0,1.0],"name":"node4"},{"matrix":[1.0,0.0,0.0,0.0512,0.0,1.0,0.0,24.2366,0.0,0.0,1.0,1.1824,0.0,0.0,0.0,1.0],"name":"node5"},{"matrix":[1.0,0.0,0.0,-0.8281,0.0,1.0,0.0,23.2492,0.0,0.0,1.0,1.0431,0.0,0.0,0.0,1.0],"name":"node6"},{"matrix":[1.0,0.0,0.0,1.0023,0.0,1.0,0.0,23.2665,0.0,0.0,1.0,1.0221,0.0,0.0,0.0,1.0],"name":"node7"},{"matrix":[1.0,0.0,0.0,0.0621,0.0,1.0,0.0,23.3065,0.0,0.0,1.0,1.2013,0.0,0.0,0.0,1.0],"name":"node8"},{"matrix":[1.0,0.0,0.0,0.9776,0.0,1.0,0.0,24.2039,0.0,0.0,1.0,1.0168,0.0,0.0,0.0,1.0],"name":"node9"}],"scene":0,"scenes":[{"nodes":[0]}],"textures":[{"extensions":{"MSFT_texture_dds":{"source":0}}},{"extensions":{"MSFT_texture_dds":{"source":1}}}],"buffers":[{"byteLength":156544,"uri":"POSTELUZ_CARGO_GEN_tall.bin"}],"images":[{"uri":"POSTELUZ_CARGO_GEN.PNG.DDS","extras":"ASOBO_image_converted_meta"},{"uri":"POSTELUZ_CARGO_GEN_LIT.PNG.DDS","extras":"ASOBO_image_converted_meta"}]}
