{"accessors":[{"bufferView":0,"componentType":5126,"count":1175,"min":[-123.93421173095703,-0.16710999608039857,-41.10940933227539],"max":[180.52951049804688,22.50111961364746,53.91368103027344],"type":"VEC3","name":"part000_vertices#0_POSITION"},{"bufferView":0,"byteOffset":12,"componentType":5120,"count":1175,"type":"VEC4","name":"part000_vertices#0_TANGENT"},{"bufferView":0,"byteOffset":16,"componentType":5120,"count":1175,"type":"VEC4","name":"part000_vertices#0_NORMAL"},{"bufferView":0,"byteOffset":20,"componentType":5122,"count":1175,"type":"VEC2","name":"part000_vertices#0_TEXCOORD_0"},{"bufferView":0,"byteOffset":24,"componentType":5122,"count":1175,"type":"VEC2","name":"part000_vertices#0_TEXCOORD_1"},{"bufferView":0,"byteOffset":28,"componentType":5123,"count":1175,"type":"VEC4","name":"part000_vertices#0_COLOR_0"},{"bufferView":1,"componentType":5123,"count":1815,"type":"SCALAR","name":"part000_indices#0"}],"asset":{"generator":"ModelConverterX","version":"2.0","extensions":{"ASOBO_asset_optimized":{"BoundingBoxMax":[180.52951049804688,22.50111961364746,53.91368103027344],"BoundingBoxMin":[-123.93421173095703,-0.16710999608039857,-41.10940933227539],"MajorVersion":4,"MinorVersion":2}}},"bufferViews":[{"buffer":0,"byteLength":42300,"byteStride":36,"byteOffset":68,"target":34962,"name":"BufferViewVertexND"},{"buffer":0,"byteLength":3630,"byteOffset":42450,"target":34963,"name":"BufferViewIndex"}],"extensionsUsed":["ASOBO_macro_light","MSFT_texture_dds","ASOBO_asset_optimized"],"extensionsRequired":["MSFT_texture_dds"],"materials":[{"name":"glTF_Material","emissiveTexture":{"index":1},"pbrMetallicRoughness":{"metallicFactor":0.0,"roughnessFactor":0.0,"baseColorTexture":{"index":0}}}],"meshes":[{"primitives":[{"attributes":{"COLOR_0":5,"NORMAL":2,"POSITION":0,"TANGENT":1,"TEXCOORD_0":3,"TEXCOORD_1":4},"indices":6,"material":0,"mode":4,"extras":{"ASOBO_primitive":{"PrimitiveCount":605,"VertexType":"VTX","VertexVersion":2}}}],"name":"part000"}],"nodes":[{"name":"node0","children":[1,2,3,4,5,6,7,8,9,10,11,12,13]},{"mesh":0,"name":"node1"},{"translation":[18.94102097,14.83439445,46.97644043],"rotation":[0.0,0.0,0.0,1.0],"scale":[1.0,1.0,1.0],"extensions":{"ASOBO_macro_light":{"color":[1.0,0.7,0.5],"cone_angle":360.0,"day_night_cycle":true,"flash_duration":0.0,"flash_frequency":0.0,"flash_phase":0.0,"has_simmetry":true,"intensity":150,"rotation_speed":0.0}},"name":"node2"},{"translation":[-26.34121704,15.52736187,47.27534866],"rotation":[0.0,0.0,0.0,1.0],"scale":[1.0,1.0,1.0],"extensions":{"ASOBO_macro_light":{"color":[1.0,0.7,0.5],"cone_angle":360.0,"day_night_cycle":true,"flash_duration":0.0,"flash_frequency":0.0,"flash_phase":0.0,"has_simmetry":true,"intensity":150,"rotation_speed":0.0}},"name":"node3"},{"translation":[-68.68553162,13.94895363,47.42340851],"rotation":[0.0,0.0,0.0,1.0],"scale":[1.0,1.0,1.0],"extensions":{"ASOBO_macro_light":{"color":[1.0,0.7,0.5],"cone_angle":360.0,"day_night_cycle":true,"flash_duration":0.0,"flash_frequency":0.0,"flash_phase":0.0,"has_simmetry":true,"intensity":150,"rotation_speed":0.0}},"name":"node4"},{"translation":[-83.33127594,4.34965086,40.25592804],"rotation":[0.0,0.0,0.0,1.0],"scale":[1.0,1.0,1.0],"extensions":{"ASOBO_macro_light":{"color":[1.0,0.7,0.5],"cone_angle":360.0,"day_night_cycle":true,"flash_duration":0.0,"flash_frequency":0.0,"flash_phase":0.0,"has_simmetry":true,"intensity":150,"rotation_speed":0.0}},"name":"node5"},{"translation":[163.0642395,9.7285471,29.69880295],"rotation":[0.0,0.0,0.0,1.0],"scale":[1.0,1.0,1.0],"extensions":{"ASOBO_macro_light":{"color":[1.0,0.7,0.5],"cone_angle":360.0,"day_night_cycle":true,"flash_duration":0.0,"flash_frequency":0.0,"flash_phase":0.0,"has_simmetry":true,"intensity":150,"rotation_speed":0.0}},"name":"node6"},{"translation":[114.29694366,9.77057934,29.46107101],"rotation":[0.0,0.0,0.0,1.0],"scale":[1.0,1.0,1.0],"extensions":{"ASOBO_macro_light":{"color":[1.0,0.7,0.5],"cone_angle":360.0,"day_night_cycle":true,"flash_duration":0.0,"flash_frequency":0.0,"flash_phase":0.0,"has_simmetry":true,"intensity":150,"rotation_speed":0.0}},"name":"node7"},{"translation":[73.97944641,9.77057743,29.46107864],"rotation":[0.0,0.0,0.0,1.0],"scale":[1.0,1.0,1.0],"extensions":{"ASOBO_macro_light":{"color":[1.0,0.7,0.5],"cone_angle":360.0,"day_night_cycle":true,"flash_duration":0.0,"flash_frequency":0.0,"flash_phase":0.0,"has_simmetry":true,"intensity":150,"rotation_speed":0.0}},"name":"node8"},{"translation":[-110.46712494,0.63458586,5.8093853],"rotation":[0.0,0.0,0.0,1.0],"scale":[1.0,1.0,1.0],"extensions":{"ASOBO_macro_light":{"color":[1.0,0.7,0.5],"cone_angle":360.0,"day_night_cycle":true,"flash_duration":0.0,"flash_frequency":0.0,"flash_phase":0.0,"has_simmetry":true,"intensity":150,"rotation_speed":0.0}},"name":"node9"},{"translation":[-84.70810699,0.63458586,18.84618378],"rotation":[0.0,0.0,0.0,1.0],"scale":[1.0,1.0,1.0],"extensions":{"ASOBO_macro_light":{"color":[1.0,0.7,0.5],"cone_angle":360.0,"day_night_cycle":true,"flash_duration":0.0,"flash_frequency":0.0,"flash_phase":0.0,"has_simmetry":true,"intensity":150,"rotation_speed":0.0}},"name":"node10"},{"translation":[-50.59440994,4.34965038,39.67651367],"rotation":[0.0,0.0,0.0,1.0],"scale":[1.0,1.0,1.0],"extensions":{"ASOBO_macro_light":{"color":[1.0,0.7,0.5],"cone_angle":360.0,"day_night_cycle":true,"flash_duration":0.0,"flash_frequency":0.0,"flash_phase":0.0,"has_simmetry":true,"intensity":150,"rotation_speed":0.0}},"name":"node11"},{"translation":[-12.93254662,4.34965038,39.19366837],"rotation":[0.0,0.0,0.0,1.0],"scale":[1.0,1.0,1.0],"extensions":{"ASOBO_macro_light":{"color":[1.0,0.7,0.5],"cone_angle":360.0,"day_night_cycle":true,"flash_duration":0.0,"flash_frequency":0.0,"flash_phase":0.0,"has_simmetry":true,"intensity":150,"rotation_speed":0.0}},"name":"node12"},{"translation":[31.00629807,4.34965038,38.22797775],"rotation":[0.0,0.0,0.0,1.0],"scale":[1.0,1.0,1.0],"extensions":{"ASOBO_macro_light":{"color":[1.0,0.7,0.5],"cone_angle":360.0,"day_night_cycle":true,"flash_duration":0.0,"flash_frequency":0.0,"flash_phase":0.0,"has_simmetry":true,"intensity":150,"rotation_speed":0.0}},"name":"node13"}],"scene":0,"scenes":[{"nodes":[0]}],"textures":[{"extensions":{"MSFT_texture_dds":{"source":0}}},{"extensions":{"MSFT_texture_dds":{"source":1}}}],"buffers":[{"byteLength":46080,"uri":"TERM_NOVO.bin"}],"images":[{"uri":"TERM_NOVO.PNG.DDS","extras":"ASOBO_image_converted_meta"},{"uri":"TERM_NOVO_LIT.PNG.DDS","extras":"ASOBO_image_converted_meta"}]}
