{"accessors":[{"bufferView":0,"componentType":5126,"count":1175,"min":[-123.93421173095703,-0.16710999608039857,-41.10940933227539],"max":[180.52951049804688,22.50111961364746,53.91368103027344],"type":"VEC3","name":"part000_vertices#0_POSITION"},{"bufferView":0,"byteOffset":12,"componentType":5120,"count":1175,"type":"VEC4","name":"part000_vertices#0_TANGENT"},{"bufferView":0,"byteOffset":16,"componentType":5120,"count":1175,"type":"VEC4","name":"part000_vertices#0_NORMAL"},{"bufferView":0,"byteOffset":20,"componentType":5122,"count":1175,"type":"VEC2","name":"part000_vertices#0_TEXCOORD_0"},{"bufferView":0,"byteOffset":24,"componentType":5122,"count":1175,"type":"VEC2","name":"part000_vertices#0_TEXCOORD_1"},{"bufferView":0,"byteOffset":28,"componentType":5123,"count":1175,"type":"VEC4","name":"part000_vertices#0_COLOR_0"},{"bufferView":1,"componentType":5123,"count":1815,"type":"SCALAR","name":"part000_indices#0"}],"asset":{"generator":"ModelConverterX","version":"2.0","extensions":{"ASOBO_asset_optimized":{"BoundingBoxMax":[180.52951049804688,22.50111961364746,53.91368103027344],"BoundingBoxMin":[-123.93421173095703,-0.16710999608039857,-41.10940933227539],"MajorVersion":4,"MinorVersion":2}}},"bufferViews":[{"buffer":0,"byteLength":42300,"byteStride":36,"byteOffset":68,"target":34962,"name":"BufferViewVertexND"},{"buffer":0,"byteLength":3630,"byteOffset":42450,"target":34963,"name":"BufferViewIndex"}],"extensionsUsed":["MSFT_texture_dds","ASOBO_asset_optimized"],"extensionsRequired":["MSFT_texture_dds"],"materials":[{"name":"glTF_Material","emissiveTexture":{"index":1},"emissiveFactor":[1.0,1.0,1.0],"pbrMetallicRoughness":{"metallicFactor":0.0,"baseColorTexture":{"index":0}}}],"meshes":[{"primitives":[{"attributes":{"COLOR_0":5,"NORMAL":2,"POSITION":0,"TANGENT":1,"TEXCOORD_0":3,"TEXCOORD_1":4},"indices":6,"material":0,"mode":4,"extras":{"ASOBO_primitive":{"PrimitiveCount":605,"VertexType":"VTX","VertexVersion":2}}}],"name":"part000"}],"nodes":[{"name":"node0","children":[1,2,3,4,5,6,7,8,9,10,11,12,13]},{"mesh":0,"name":"node1"},{"matrix":[1.0,0.0,0.0,18.94102097,0.0,1.0,0.0,14.83439445,0.0,0.0,1.0,46.97644043,0.0,0.0,0.0,1.0],"name":"node2"},{"matrix":[1.0,0.0,0.0,-26.34121704,0.0,1.0,0.0,15.52736187,0.0,0.0,1.0,47.27534866,0.0,0.0,0.0,1.0],"name":"node3"},{"matrix":[1.0,0.0,0.0,-68.68553162,0.0,1.0,0.0,13.94895363,0.0,0.0,1.0,47.42340851,0.0,0.0,0.0,1.0],"name":"node4"},{"matrix":[1.0,0.0,0.0,-83.33127594,0.0,1.0,0.0,4.34965086,0.0,0.0,1.0,40.25592804,0.0,0.0,0.0,1.0],"name":"node5"},{"matrix":[1.0,0.0,0.0,163.0642395,0.0,1.0,0.0,9.7285471,0.0,0.0,1.0,29.69880295,0.0,0.0,0.0,1.0],"name":"node6"},{"matrix":[1.0,0.0,0.0,114.29694366,0.0,1.0,0.0,9.77057934,0.0,0.0,1.0,29.46107101,0.0,0.0,0.0,1.0],"name":"node7"},{"matrix":[1.0,0.0,0.0,73.97944641,0.0,1.0,0.0,9.77057743,0.0,0.0,1.0,29.46107864,0.0,0.0,0.0,1.0],"name":"node8"},{"matrix":[1.0,0.0,0.0,-110.46712494,0.0,1.0,0.0,0.63458586,0.0,0.0,1.0,5.8093853,0.0,0.0,0.0,1.0],"name":"node9"},{"matrix":[1.0,0.0,0.0,-84.70810699,0.0,1.0,0.0,0.63458586,0.0,0.0,1.0,18.84618378,0.0,0.0,0.0,1.0],"name":"node10"},{"matrix":[1.0,0.0,0.0,-50.59440994,0.0,1.0,0.0,4.34965038,0.0,0.0,1.0,39.67651367,0.0,0.0,0.0,1.0],"name":"node11"},{"matrix":[1.0,0.0,0.0,-12.93254662,0.0,1.0,0.0,4.34965038,0.0,0.0,1.0,39.19366837,0.0,0.0,0.0,1.0],"name":"node12"},{"matrix":[1.0,0.0,0.0,31.00629807,0.0,1.0,0.0,4.34965038,0.0,0.0,1.0,38.22797775,0.0,0.0,0.0,1.0],"name":"node13"}],"scene":0,"scenes":[{"nodes":[0]}],"textures":[{"extensions":{"MSFT_texture_dds":{"source":0}}},{"extensions":{"MSFT_texture_dds":{"source":1}}}],"buffers":[{"byteLength":46080,"uri":"TERM_NOVO.bin"}],"images":[{"uri":"TERM_NOVO.PNG.DDS","extras":"ASOBO_image_converted_meta"},{"uri":"TERM_NOVO_LIT.PNG.DDS","extras":"ASOBO_image_converted_meta"}]}
