{
  "asset": {
    "version": "2.0",
    "generator": "ModelConverterX"
  },
  "extensionsUsed": [],
  "scene": 0,
  "scenes": [
    {
      "nodes": [
        0
      ]
    }
  ],
  "nodes": [
    {
      "name": "node0",
      "children": [
        1,
        2,
        3,
        4,
        5,
        6,
        7,
        8,
        9,
        10
      ]
    },
    {
      "name": "node1",
      "mesh": 0
    },
    {
      "name": "node2",
      "matrix": [
        1.0,
        0.0,
        0.0,
        -0.0097,
        0.0,
        1.0,
        0.0,
        28.6148,
        0.0,
        0.0,
        1.0,
        0.9519,
        0.0,
        0.0,
        0.0,
        1.0
      ]
    },
    {
      "name": "node3",
      "matrix": [
        1.0,
        0.0,
        0.0,
        -0.417,
        0.0,
        1.0,
        0.0,
        26.7173,
        0.0,
        0.0,
        1.0,
        0.6307,
        0.0,
        0.0,
        0.0,
        1.0
      ]
    },
    {
      "name": "node4",
      "matrix": [
        1.0,
        0.0,
        0.0,
        -0.4413,
        0.0,
        1.0,
        0.0,
        26.129,
        0.0,
        0.0,
        1.0,
        0.6393,
        0.0,
        0.0,
        0.0,
        1.0
      ]
    },
    {
      "name": "node5",
      "matrix": [
        1.0,
        0.0,
        0.0,
        -0.4514,
        0.0,
        1.0,
        0.0,
        25.6054,
        0.0,
        0.0,
        1.0,
        0.6639,
        0.0,
        0.0,
        0.0,
        1.0
      ]
    },
    {
      "name": "node6",
      "matrix": [
        1.0,
        0.0,
        0.0,
        0.431,
        0.0,
        1.0,
        0.0,
        25.6169,
        0.0,
        0.0,
        1.0,
        0.6672,
        0.0,
        0.0,
        0.0,
        1.0
      ]
    },
    {
      "name": "node7",
      "matrix": [
        1.0,
        0.0,
        0.0,
        0.4311,
        0.0,
        1.0,
        0.0,
        24.8448,
        0.0,
        0.0,
        1.0,
        0.614,
        0.0,
        0.0,
        0.0,
        1.0
      ]
    },
    {
      "name": "node8",
      "matrix": [
        1.0,
        0.0,
        0.0,
        0.4225,
        0.0,
        1.0,
        0.0,
        26.7868,
        0.0,
        0.0,
        1.0,
        0.661,
        0.0,
        0.0,
        0.0,
        1.0
      ]
    },
    {
      "name": "node9",
      "matrix": [
        1.0,
        0.0,
        0.0,
        -0.4573,
        0.0,
        1.0,
        0.0,
        24.8448,
        0.0,
        0.0,
        1.0,
        0.614,
        0.0,
        0.0,
        0.0,
        1.0
      ]
    },
    {
      "name": "node10",
      "matrix": [
        1.0,
        0.0,
        0.0,
        0.4424,
        0.0,
        1.0,
        0.0,
        26.1131,
        0.0,
        0.0,
        1.0,
        0.6326,
        0.0,
        0.0,
        0.0,
        1.0
      ]
    }
  ],
  "meshes": [
    {
      "primitives": [
        {
          "attributes": {
            "POSITION": 0,
            "NORMAL": 1,
            "TEXCOORD_0": 2
          },
          "indices": 3,
          "mode": 4,
          "material": 0
        }
      ],
      "name": "part000"
    }
  ],
  "accessors": [
    {
      "bufferView": 1,
      "byteOffset": 0,
      "componentType": 5126,
      "count": 2672,
      "type": "VEC3",
      "min": [
        -1.5607,
        15.5211,
        -1.6144
      ],
      "max": [
        1.5559,
        28.6543,
        0.8249
      ]
    },
    {
      "bufferView": 2,
      "byteOffset": 0,
      "componentType": 5126,
      "count": 2672,
      "type": "VEC3"
    },
    {
      "bufferView": 3,
      "byteOffset": 0,
      "componentType": 5126,
      "count": 2672,
      "type": "VEC2"
    },
    {
      "bufferView": 0,
      "byteOffset": 0,
      "componentType": 5125,
      "count": 4692,
      "type": "SCALAR"
    }
  ],
  "materials": [
    {
      "pbrMetallicRoughness": {
        "baseColorFactor": [
          1.0,
          1.0,
          1.0,
          1.0
        ],
        "roughnessFactor": 1.0,
        "metallicFactor": 0.0,
        "baseColorTexture": {
          "index": 0
        }
      },
      "emissiveFactor": [
        1.0,
        1.0,
        1.0
      ],
      "emissiveTexture": {
        "index": 1
      }
    }
  ],
  "textures": [
    {
      "source": 0,
      "name": "poste_luz_sbpa"
    },
    {
      "source": 1,
      "name": "poste_luz_sbpa_lit"
    }
  ],
  "images": [
    {
      "uri": "poste_luz_sbpa.png"
    },
    {
      "uri": "poste_luz_sbpa_lit.png"
    }
  ],
  "bufferViews": [
    {
      "buffer": 0,
      "byteOffset": 0,
      "byteLength": 18768
    },
    {
      "buffer": 0,
      "byteOffset": 18768,
      "byteLength": 32064
    },
    {
      "buffer": 0,
      "byteOffset": 50832,
      "byteLength": 32064
    },
    {
      "buffer": 0,
      "byteOffset": 82896,
      "byteLength": 21376
    }
  ],
  "buffers": [
    {
      "byteLength": 104272,
      "uri": "POSTE_LUZ_SBPA.bin"
    }
  ]
}