{"accessors":[{"bufferView":0,"componentType":5126,"count":2689,"min":[-1.5607000589370728,15.521100044250489,-1.614400029182434],"max":[1.555899977684021,28.654300689697267,0.8248999714851379],"type":"VEC3","name":"part000_vertices#0_POSITION"},{"bufferView":0,"byteOffset":12,"componentType":5120,"count":2689,"type":"VEC4","name":"part000_vertices#0_TANGENT"},{"bufferView":0,"byteOffset":16,"componentType":5120,"count":2689,"type":"VEC4","name":"part000_vertices#0_NORMAL"},{"bufferView":0,"byteOffset":20,"componentType":5122,"count":2689,"type":"VEC2","name":"part000_vertices#0_TEXCOORD_0"},{"bufferView":0,"byteOffset":24,"componentType":5122,"count":2689,"type":"VEC2","name":"part000_vertices#0_TEXCOORD_1"},{"bufferView":0,"byteOffset":28,"componentType":5123,"count":2689,"type":"VEC4","name":"part000_vertices#0_COLOR_0"},{"bufferView":1,"componentType":5123,"count":4692,"type":"SCALAR","name":"part000_indices#0"}],"asset":{"generator":"ModelConverterX","version":"2.0","extensions":{"ASOBO_asset_optimized":{"BoundingBoxMax":[1.555899977684021,28.654300689697267,0.8248999714851379],"BoundingBoxMin":[-1.5607000589370728,15.521100044250489,-1.614400029182434],"MajorVersion":4,"MinorVersion":2}}},"bufferViews":[{"buffer":0,"byteLength":96804,"byteStride":36,"byteOffset":92,"target":34962,"name":"BufferViewVertexND"},{"buffer":0,"byteLength":9384,"byteOffset":96984,"target":34963,"name":"BufferViewIndex"}],"extensionsUsed":["MSFT_texture_dds","ASOBO_asset_optimized"],"extensionsRequired":["MSFT_texture_dds"],"materials":[{"name":"glTF_Material","emissiveTexture":{"index":1},"emissiveFactor":[1.0,1.0,1.0],"pbrMetallicRoughness":{"metallicFactor":0.0,"baseColorTexture":{"index":0}}}],"meshes":[{"primitives":[{"attributes":{"COLOR_0":5,"NORMAL":2,"POSITION":0,"TANGENT":1,"TEXCOORD_0":3,"TEXCOORD_1":4},"indices":6,"material":0,"mode":4,"extras":{"ASOBO_primitive":{"PrimitiveCount":1564,"VertexType":"VTX","VertexVersion":2}}}],"name":"part000"}],"nodes":[{"name":"node0","children":[1,2,3,4,5,6,7,8,9,10]},{"mesh":0,"name":"node1"},{"matrix":[1.0,0.0,0.0,-0.0097,0.0,1.0,0.0,28.6148,0.0,0.0,1.0,0.9519,0.0,0.0,0.0,1.0],"name":"node2"},{"matrix":[1.0,0.0,0.0,-0.417,0.0,1.0,0.0,26.7173,0.0,0.0,1.0,0.6307,0.0,0.0,0.0,1.0],"name":"node3"},{"matrix":[1.0,0.0,0.0,-0.4413,0.0,1.0,0.0,26.129,0.0,0.0,1.0,0.6393,0.0,0.0,0.0,1.0],"name":"node4"},{"matrix":[1.0,0.0,0.0,-0.4514,0.0,1.0,0.0,25.6054,0.0,0.0,1.0,0.6639,0.0,0.0,0.0,1.0],"name":"node5"},{"matrix":[1.0,0.0,0.0,0.431,0.0,1.0,0.0,25.6169,0.0,0.0,1.0,0.6672,0.0,0.0,0.0,1.0],"name":"node6"},{"matrix":[1.0,0.0,0.0,0.4311,0.0,1.0,0.0,24.8448,0.0,0.0,1.0,0.614,0.0,0.0,0.0,1.0],"name":"node7"},{"matrix":[1.0,0.0,0.0,0.4225,0.0,1.0,0.0,26.7868,0.0,0.0,1.0,0.661,0.0,0.0,0.0,1.0],"name":"node8"},{"matrix":[1.0,0.0,0.0,-0.4573,0.0,1.0,0.0,24.8448,0.0,0.0,1.0,0.614,0.0,0.0,0.0,1.0],"name":"node9"},{"matrix":[1.0,0.0,0.0,0.4424,0.0,1.0,0.0,26.1131,0.0,0.0,1.0,0.6326,0.0,0.0,0.0,1.0],"name":"node10"}],"scene":0,"scenes":[{"nodes":[0]}],"textures":[{"extensions":{"MSFT_texture_dds":{"source":0}}},{"extensions":{"MSFT_texture_dds":{"source":1}}}],"buffers":[{"byteLength":106368,"uri":"POSTE_LUZ_SBPA.bin"}],"images":[{"uri":"POSTE_LUZ_SBPA.PNG.DDS","extras":"ASOBO_image_converted_meta"},{"uri":"POSTE_LUZ_SBPA_LIT.PNG.DDS","extras":"ASOBO_image_converted_meta"}]}
