{
  "asset": {
    "version": "2.0",
    "generator": "ModelConverterX"
  },
  "extensionsUsed": [],
  "scene": 0,
  "scenes": [
    {
      "nodes": [
        0
      ]
    }
  ],
  "nodes": [
    {
      "name": "node0",
      "children": [
        1
      ]
    },
    {
      "name": "node1",
      "mesh": 0
    }
  ],
  "meshes": [
    {
      "primitives": [
        {
          "attributes": {
            "POSITION": 0,
            "NORMAL": 1,
            "TEXCOORD_0": 2
          },
          "indices": 3,
          "mode": 4,
          "material": 0
        }
      ],
      "name": "part000"
    }
  ],
  "accessors": [
    {
      "bufferView": 1,
      "byteOffset": 0,
      "componentType": 5126,
      "count": 10116,
      "type": "VEC3",
      "min": [
        -115.23681,
        0.04415,
        -82.33344
      ],
      "max": [
        114.60739,
        26.5137,
        29.3577
      ]
    },
    {
      "bufferView": 2,
      "byteOffset": 0,
      "componentType": 5126,
      "count": 10116,
      "type": "VEC3"
    },
    {
      "bufferView": 3,
      "byteOffset": 0,
      "componentType": 5126,
      "count": 10116,
      "type": "VEC2"
    },
    {
      "bufferView": 0,
      "byteOffset": 0,
      "componentType": 5125,
      "count": 21162,
      "type": "SCALAR"
    }
  ],
  "materials": [
    {
      "pbrMetallicRoughness": {
        "baseColorFactor": [
          1.0,
          1.0,
          1.0,
          1.0
        ],
        "roughnessFactor": 0.0,
        "metallicFactor": 0.0,
        "baseColorTexture": {
          "index": 0
        }
      },
      "emissiveFactor": [
        0.0,
        0.0,
        0.0
      ],
      "emissiveTexture": {
        "index": 1
      },
      "normalTexture": {
        "index": 2
      },
      "normalTextureInfo": {
        "scale": 1.0
      }
    }
  ],
  "textures": [
    {
      "source": 0,
      "name": "terminaltexture"
    },
    {
      "source": 1,
      "name": "terminalnight"
    },
    {
      "source": 2,
      "name": "terminalnormal"
    }
  ],
  "images": [
    {
      "uri": "terminaltexture.png"
    },
    {
      "uri": "terminalnight.png"
    },
    {
      "uri": "terminalnormal.png"
    }
  ],
  "bufferViews": [
    {
      "buffer": 0,
      "byteOffset": 0,
      "byteLength": 84648
    },
    {
      "buffer": 0,
      "byteOffset": 84648,
      "byteLength": 121392
    },
    {
      "buffer": 0,
      "byteOffset": 206040,
      "byteLength": 121392
    },
    {
      "buffer": 0,
      "byteOffset": 327432,
      "byteLength": 80928
    }
  ],
  "buffers": [
    {
      "byteLength": 408360,
      "uri": "TERM_01.bin"
    }
  ]
}