{"accessors":[{"bufferView":0,"componentType":5126,"count":927,"min":[-14.47599983215332,-0.01874000020325184,-15.21168041229248],"max":[14.395999908447266,11.193160057067871,18.209409713745118],"type":"VEC3","name":"part000_vertices#0_POSITION"},{"bufferView":0,"byteOffset":12,"componentType":5120,"count":927,"type":"VEC4","name":"part000_vertices#0_TANGENT"},{"bufferView":0,"byteOffset":16,"componentType":5120,"count":927,"type":"VEC4","name":"part000_vertices#0_NORMAL"},{"bufferView":0,"byteOffset":20,"componentType":5122,"count":927,"type":"VEC2","name":"part000_vertices#0_TEXCOORD_0"},{"bufferView":0,"byteOffset":24,"componentType":5122,"count":927,"type":"VEC2","name":"part000_vertices#0_TEXCOORD_1"},{"bufferView":0,"byteOffset":28,"componentType":5123,"count":927,"type":"VEC4","name":"part000_vertices#0_COLOR_0"},{"bufferView":1,"componentType":5123,"count":1953,"type":"SCALAR","name":"part000_indices#0"},{"bufferView":0,"byteOffset":33372,"componentType":5126,"count":68,"min":[-5.492000102996826,-0.04470999911427498,-11.148380279541016],"max":[5.495999813079834,2.057310104370117,1.4626100063323975],"type":"VEC3","name":"part001_vertices#0_POSITION"},{"bufferView":0,"byteOffset":33384,"componentType":5120,"count":68,"type":"VEC4","name":"part001_vertices#0_TANGENT"},{"bufferView":0,"byteOffset":33388,"componentType":5120,"count":68,"type":"VEC4","name":"part001_vertices#0_NORMAL"},{"bufferView":0,"byteOffset":33392,"componentType":5122,"count":68,"type":"VEC2","name":"part001_vertices#0_TEXCOORD_0"},{"bufferView":0,"byteOffset":33396,"componentType":5122,"count":68,"type":"VEC2","name":"part001_vertices#0_TEXCOORD_1"},{"bufferView":0,"byteOffset":33400,"componentType":5123,"count":68,"type":"VEC4","name":"part001_vertices#0_COLOR_0"},{"bufferView":1,"byteOffset":3906,"componentType":5123,"count":108,"type":"SCALAR","name":"part001_indices#0"},{"bufferView":0,"byteOffset":35820,"componentType":5126,"count":40,"min":[-1.3079999685287476,3.3087399005889894,-13.692609786987305],"max":[1.3079999685287476,3.9089601039886476,-12.056739807128907],"type":"VEC3","name":"part002_vertices#0_POSITION"},{"bufferView":0,"byteOffset":35832,"componentType":5120,"count":40,"type":"VEC4","name":"part002_vertices#0_TANGENT"},{"bufferView":0,"byteOffset":35836,"componentType":5120,"count":40,"type":"VEC4","name":"part002_vertices#0_NORMAL"},{"bufferView":0,"byteOffset":35840,"componentType":5122,"count":40,"type":"VEC2","name":"part002_vertices#0_TEXCOORD_0"},{"bufferView":0,"byteOffset":35844,"componentType":5122,"count":40,"type":"VEC2","name":"part002_vertices#0_TEXCOORD_1"},{"bufferView":0,"byteOffset":35848,"componentType":5123,"count":40,"type":"VEC4","name":"part002_vertices#0_COLOR_0"},{"bufferView":1,"byteOffset":4122,"componentType":5123,"count":60,"type":"SCALAR","name":"part002_indices#0"}],"asset":{"generator":"ModelConverterX","version":"2.0","extensions":{"ASOBO_asset_optimized":{"BoundingBoxMax":[14.395999908447266,11.193160057067871,18.209409713745118],"BoundingBoxMin":[-14.47599983215332,-0.04470999911427498,-15.21168041229248],"MajorVersion":4,"MinorVersion":2}}},"bufferViews":[{"buffer":0,"byteLength":37260,"byteStride":36,"byteOffset":116,"target":34962,"name":"BufferViewVertexND"},{"buffer":0,"byteLength":4242,"byteOffset":37486,"target":34963,"name":"BufferViewIndex"}],"extensionsUsed":["MSFT_texture_dds","ASOBO_asset_optimized"],"extensionsRequired":["MSFT_texture_dds"],"materials":[{"name":"glTF_Material","pbrMetallicRoughness":{"metallicFactor":0.0,"roughnessFactor":0.0,"baseColorTexture":{"index":0}}},{"name":"glTF_Materialx","pbrMetallicRoughness":{"baseColorFactor":[0.0,0.0,0.0,1.0],"metallicFactor":0.0,"roughnessFactor":0.0}},{"name":"glTF_Materialxx","pbrMetallicRoughness":{"baseColorFactor":[0.113725,0.270588,0.388235,1.0],"metallicFactor":0.0,"roughnessFactor":0.0}}],"meshes":[{"primitives":[{"attributes":{"COLOR_0":5,"NORMAL":2,"POSITION":0,"TANGENT":1,"TEXCOORD_0":3,"TEXCOORD_1":4},"indices":6,"material":0,"mode":4,"extras":{"ASOBO_primitive":{"PrimitiveCount":651,"VertexType":"VTX","VertexVersion":2}}}],"name":"part000"},{"primitives":[{"attributes":{"COLOR_0":12,"NORMAL":9,"POSITION":7,"TANGENT":8,"TEXCOORD_0":10,"TEXCOORD_1":11},"indices":13,"material":1,"mode":4,"extras":{"ASOBO_primitive":{"PrimitiveCount":36,"VertexType":"VTX","VertexVersion":2}}}],"name":"part001"},{"primitives":[{"attributes":{"COLOR_0":19,"NORMAL":16,"POSITION":14,"TANGENT":15,"TEXCOORD_0":17,"TEXCOORD_1":18},"indices":20,"material":2,"mode":4,"extras":{"ASOBO_primitive":{"PrimitiveCount":20,"VertexType":"VTX","VertexVersion":2}}}],"name":"part002"}],"nodes":[{"name":"node0","children":[1,2,3]},{"mesh":0,"name":"node1"},{"mesh":1,"name":"node2"},{"mesh":2,"name":"node3"}],"scene":0,"scenes":[{"nodes":[0]}],"textures":[{"extensions":{"MSFT_texture_dds":{"source":0}}}],"buffers":[{"byteLength":41728,"uri":"AIA 737-300 POA001_LOD001.bin"}],"images":[{"uri":"AIA 737-300 POA%AIA_737_300_T.BMP.DDS","extras":"ASOBO_image_converted_meta"}]}
