{"accessors":[{"bufferView":0,"componentType":5126,"count":1587,"min":[-14.52400016784668,0.24260999262332917,-15.21172046661377],"max":[14.52400016784668,11.20536994934082,18.225540161132814],"type":"VEC3","name":"part000_vertices#0_POSITION"},{"bufferView":0,"byteOffset":12,"componentType":5120,"count":1587,"type":"VEC4","name":"part000_vertices#0_TANGENT"},{"bufferView":0,"byteOffset":16,"componentType":5120,"count":1587,"type":"VEC4","name":"part000_vertices#0_NORMAL"},{"bufferView":0,"byteOffset":20,"componentType":5122,"count":1587,"type":"VEC2","name":"part000_vertices#0_TEXCOORD_0"},{"bufferView":0,"byteOffset":24,"componentType":5122,"count":1587,"type":"VEC2","name":"part000_vertices#0_TEXCOORD_1"},{"bufferView":0,"byteOffset":28,"componentType":5123,"count":1587,"type":"VEC4","name":"part000_vertices#0_COLOR_0"},{"bufferView":1,"componentType":5123,"count":4569,"type":"SCALAR","name":"part000_indices#0"},{"bufferView":0,"byteOffset":57132,"componentType":5126,"count":6,"min":[-0.3919999897480011,1.0335400104522706,-12.54069995880127],"max":[0.36800000071525576,1.3321499824523926,-10.980130195617676],"type":"VEC3","name":"part001_vertices#0_POSITION"},{"bufferView":0,"byteOffset":57144,"componentType":5120,"count":6,"type":"VEC4","name":"part001_vertices#0_TANGENT"},{"bufferView":0,"byteOffset":57148,"componentType":5120,"count":6,"type":"VEC4","name":"part001_vertices#0_NORMAL"},{"bufferView":0,"byteOffset":57152,"componentType":5122,"count":6,"type":"VEC2","name":"part001_vertices#0_TEXCOORD_0"},{"bufferView":0,"byteOffset":57156,"componentType":5122,"count":6,"type":"VEC2","name":"part001_vertices#0_TEXCOORD_1"},{"bufferView":0,"byteOffset":57160,"componentType":5123,"count":6,"type":"VEC4","name":"part001_vertices#0_COLOR_0"},{"bufferView":1,"byteOffset":9138,"componentType":5123,"count":12,"type":"SCALAR","name":"part001_indices#0"},{"bufferView":0,"byteOffset":57348,"componentType":5126,"count":40,"min":[-5.811999797821045,0.6106200218200684,-3.7934300899505617],"max":[5.811999797821045,2.2505600452423097,-0.3090600073337555],"type":"VEC3","name":"part002_vertices#0_POSITION"},{"bufferView":0,"byteOffset":57360,"componentType":5120,"count":40,"type":"VEC4","name":"part002_vertices#0_TANGENT"},{"bufferView":0,"byteOffset":57364,"componentType":5120,"count":40,"type":"VEC4","name":"part002_vertices#0_NORMAL"},{"bufferView":0,"byteOffset":57368,"componentType":5122,"count":40,"type":"VEC2","name":"part002_vertices#0_TEXCOORD_0"},{"bufferView":0,"byteOffset":57372,"componentType":5122,"count":40,"type":"VEC2","name":"part002_vertices#0_TEXCOORD_1"},{"bufferView":0,"byteOffset":57376,"componentType":5123,"count":40,"type":"VEC4","name":"part002_vertices#0_COLOR_0"},{"bufferView":1,"byteOffset":9162,"componentType":5123,"count":96,"type":"SCALAR","name":"part002_indices#0"},{"bufferView":0,"byteOffset":58788,"componentType":5126,"count":40,"min":[-1.3079999685287476,3.3087399005889894,-13.692609786987305],"max":[1.3079999685287476,3.9089601039886476,-12.056739807128907],"type":"VEC3","name":"part003_vertices#0_POSITION"},{"bufferView":0,"byteOffset":58800,"componentType":5120,"count":40,"type":"VEC4","name":"part003_vertices#0_TANGENT"},{"bufferView":0,"byteOffset":58804,"componentType":5120,"count":40,"type":"VEC4","name":"part003_vertices#0_NORMAL"},{"bufferView":0,"byteOffset":58808,"componentType":5122,"count":40,"type":"VEC2","name":"part003_vertices#0_TEXCOORD_0"},{"bufferView":0,"byteOffset":58812,"componentType":5122,"count":40,"type":"VEC2","name":"part003_vertices#0_TEXCOORD_1"},{"bufferView":0,"byteOffset":58816,"componentType":5123,"count":40,"type":"VEC4","name":"part003_vertices#0_COLOR_0"},{"bufferView":1,"byteOffset":9354,"componentType":5123,"count":60,"type":"SCALAR","name":"part003_indices#0"},{"bufferView":0,"byteOffset":60228,"componentType":5126,"count":4,"min":[-0.5340099930763245,0.0019499999471008778,-0.5342900156974793],"max":[0.5339900255203247,0.0019499999471008778,0.5337100028991699],"type":"VEC3","name":"part004_vertices#0_POSITION"},{"bufferView":0,"byteOffset":60240,"componentType":5120,"count":4,"type":"VEC4","name":"part004_vertices#0_TANGENT"},{"bufferView":0,"byteOffset":60244,"componentType":5120,"count":4,"type":"VEC4","name":"part004_vertices#0_NORMAL"},{"bufferView":0,"byteOffset":60248,"componentType":5122,"count":4,"type":"VEC2","name":"part004_vertices#0_TEXCOORD_0"},{"bufferView":0,"byteOffset":60252,"componentType":5122,"count":4,"type":"VEC2","name":"part004_vertices#0_TEXCOORD_1"},{"bufferView":0,"byteOffset":60256,"componentType":5123,"count":4,"type":"VEC4","name":"part004_vertices#0_COLOR_0"},{"bufferView":1,"byteOffset":9474,"componentType":5123,"count":6,"type":"SCALAR","name":"part004_indices#0"},{"bufferView":0,"byteOffset":60372,"componentType":5126,"count":4,"min":[-0.5331599712371826,0.0019499999471008778,-0.5342900156974793],"max":[0.5348399877548218,0.0019499999471008778,0.5337100028991699],"type":"VEC3","name":"part005_vertices#0_POSITION"},{"bufferView":0,"byteOffset":60384,"componentType":5120,"count":4,"type":"VEC4","name":"part005_vertices#0_TANGENT"},{"bufferView":0,"byteOffset":60388,"componentType":5120,"count":4,"type":"VEC4","name":"part005_vertices#0_NORMAL"},{"bufferView":0,"byteOffset":60392,"componentType":5122,"count":4,"type":"VEC2","name":"part005_vertices#0_TEXCOORD_0"},{"bufferView":0,"byteOffset":60396,"componentType":5122,"count":4,"type":"VEC2","name":"part005_vertices#0_TEXCOORD_1"},{"bufferView":0,"byteOffset":60400,"componentType":5123,"count":4,"type":"VEC4","name":"part005_vertices#0_COLOR_0"},{"bufferView":1,"byteOffset":9486,"componentType":5123,"count":6,"type":"SCALAR","name":"part005_indices#0"},{"bufferView":0,"byteOffset":60516,"componentType":5126,"count":52,"min":[-0.315310001373291,-0.35436001420021059,-0.35444000363349917],"max":[0.31268998980522158,0.35912999510765078,0.3583900034427643],"type":"VEC3","name":"part006_vertices#0_POSITION"},{"bufferView":0,"byteOffset":60528,"componentType":5120,"count":52,"type":"VEC4","name":"part006_vertices#0_TANGENT"},{"bufferView":0,"byteOffset":60532,"componentType":5120,"count":52,"type":"VEC4","name":"part006_vertices#0_NORMAL"},{"bufferView":0,"byteOffset":60536,"componentType":5122,"count":52,"type":"VEC2","name":"part006_vertices#0_TEXCOORD_0"},{"bufferView":0,"byteOffset":60540,"componentType":5122,"count":52,"type":"VEC2","name":"part006_vertices#0_TEXCOORD_1"},{"bufferView":0,"byteOffset":60544,"componentType":5123,"count":52,"type":"VEC4","name":"part006_vertices#0_COLOR_0"},{"bufferView":1,"byteOffset":9498,"componentType":5123,"count":144,"type":"SCALAR","name":"part006_indices#0"},{"bufferView":0,"byteOffset":62388,"componentType":5126,"count":48,"min":[-0.315310001373291,-0.35436001420021059,-0.35444000363349917],"max":[0.31268998980522158,0.35912999510765078,0.3583900034427643],"type":"VEC3","name":"part007_vertices#0_POSITION"},{"bufferView":0,"byteOffset":62400,"componentType":5120,"count":48,"type":"VEC4","name":"part007_vertices#0_TANGENT"},{"bufferView":0,"byteOffset":62404,"componentType":5120,"count":48,"type":"VEC4","name":"part007_vertices#0_NORMAL"},{"bufferView":0,"byteOffset":62408,"componentType":5122,"count":48,"type":"VEC2","name":"part007_vertices#0_TEXCOORD_0"},{"bufferView":0,"byteOffset":62412,"componentType":5122,"count":48,"type":"VEC2","name":"part007_vertices#0_TEXCOORD_1"},{"bufferView":0,"byteOffset":62416,"componentType":5123,"count":48,"type":"VEC4","name":"part007_vertices#0_COLOR_0"},{"bufferView":1,"byteOffset":9786,"componentType":5123,"count":144,"type":"SCALAR","name":"part007_indices#0"},{"bufferView":0,"byteOffset":64116,"componentType":5126,"count":52,"min":[-0.544510006904602,-0.5202000141143799,-0.5213900208473206],"max":[0.49070000648498537,0.5257899761199951,0.5235599875450134],"type":"VEC3","name":"part008_vertices#0_POSITION"},{"bufferView":0,"byteOffset":64128,"componentType":5120,"count":52,"type":"VEC4","name":"part008_vertices#0_TANGENT"},{"bufferView":0,"byteOffset":64132,"componentType":5120,"count":52,"type":"VEC4","name":"part008_vertices#0_NORMAL"},{"bufferView":0,"byteOffset":64136,"componentType":5122,"count":52,"type":"VEC2","name":"part008_vertices#0_TEXCOORD_0"},{"bufferView":0,"byteOffset":64140,"componentType":5122,"count":52,"type":"VEC2","name":"part008_vertices#0_TEXCOORD_1"},{"bufferView":0,"byteOffset":64144,"componentType":5123,"count":52,"type":"VEC4","name":"part008_vertices#0_COLOR_0"},{"bufferView":1,"byteOffset":10074,"componentType":5123,"count":144,"type":"SCALAR","name":"part008_indices#0"},{"bufferView":0,"byteOffset":65988,"componentType":5126,"count":52,"min":[-0.544510006904602,-0.5202000141143799,-0.5213900208473206],"max":[0.49070000648498537,0.5257899761199951,0.5235599875450134],"type":"VEC3","name":"part009_vertices#0_POSITION"},{"bufferView":0,"byteOffset":66000,"componentType":5120,"count":52,"type":"VEC4","name":"part009_vertices#0_TANGENT"},{"bufferView":0,"byteOffset":66004,"componentType":5120,"count":52,"type":"VEC4","name":"part009_vertices#0_NORMAL"},{"bufferView":0,"byteOffset":66008,"componentType":5122,"count":52,"type":"VEC2","name":"part009_vertices#0_TEXCOORD_0"},{"bufferView":0,"byteOffset":66012,"componentType":5122,"count":52,"type":"VEC2","name":"part009_vertices#0_TEXCOORD_1"},{"bufferView":0,"byteOffset":66016,"componentType":5123,"count":52,"type":"VEC4","name":"part009_vertices#0_COLOR_0"},{"bufferView":1,"byteOffset":10362,"componentType":5123,"count":144,"type":"SCALAR","name":"part009_indices#0"},{"bufferView":0,"byteOffset":67860,"componentType":5126,"count":52,"min":[-0.4963400065898895,-0.5236600041389465,-0.522059977054596],"max":[0.5384600162506104,0.5235300064086914,0.5219399929046631],"type":"VEC3","name":"part010_vertices#0_POSITION"},{"bufferView":0,"byteOffset":67872,"componentType":5120,"count":52,"type":"VEC4","name":"part010_vertices#0_TANGENT"},{"bufferView":0,"byteOffset":67876,"componentType":5120,"count":52,"type":"VEC4","name":"part010_vertices#0_NORMAL"},{"bufferView":0,"byteOffset":67880,"componentType":5122,"count":52,"type":"VEC2","name":"part010_vertices#0_TEXCOORD_0"},{"bufferView":0,"byteOffset":67884,"componentType":5122,"count":52,"type":"VEC2","name":"part010_vertices#0_TEXCOORD_1"},{"bufferView":0,"byteOffset":67888,"componentType":5123,"count":52,"type":"VEC4","name":"part010_vertices#0_COLOR_0"},{"bufferView":1,"byteOffset":10650,"componentType":5123,"count":144,"type":"SCALAR","name":"part010_indices#0"},{"bufferView":0,"byteOffset":69732,"componentType":5126,"count":52,"min":[-0.4963400065898895,-0.5236600041389465,-0.522059977054596],"max":[0.5384600162506104,0.5235300064086914,0.5219399929046631],"type":"VEC3","name":"part011_vertices#0_POSITION"},{"bufferView":0,"byteOffset":69744,"componentType":5120,"count":52,"type":"VEC4","name":"part011_vertices#0_TANGENT"},{"bufferView":0,"byteOffset":69748,"componentType":5120,"count":52,"type":"VEC4","name":"part011_vertices#0_NORMAL"},{"bufferView":0,"byteOffset":69752,"componentType":5122,"count":52,"type":"VEC2","name":"part011_vertices#0_TEXCOORD_0"},{"bufferView":0,"byteOffset":69756,"componentType":5122,"count":52,"type":"VEC2","name":"part011_vertices#0_TEXCOORD_1"},{"bufferView":0,"byteOffset":69760,"componentType":5123,"count":52,"type":"VEC4","name":"part011_vertices#0_COLOR_0"},{"bufferView":1,"byteOffset":10938,"componentType":5123,"count":144,"type":"SCALAR","name":"part011_indices#0"}],"asset":{"generator":"ModelConverterX","version":"2.0","extensions":{"ASOBO_asset_optimized":{"BoundingBoxMax":[14.52400016784668,11.20536994934082,18.225540161132814],"BoundingBoxMin":[-14.52400016784668,-0.5236600041389465,-15.21172046661377],"MajorVersion":4,"MinorVersion":2}}},"bufferViews":[{"buffer":0,"byteLength":71604,"byteStride":36,"byteOffset":76,"target":34962,"name":"BufferViewVertexND"},{"buffer":0,"byteLength":11226,"byteOffset":71718,"target":34963,"name":"BufferViewIndex"}],"extensionsUsed":["MSFT_texture_dds","ASOBO_asset_optimized"],"extensionsRequired":["MSFT_texture_dds"],"materials":[{"name":"glTF_Material","pbrMetallicRoughness":{"metallicFactor":0.0,"roughnessFactor":0.0,"baseColorTexture":{"index":0}}},{"name":"glTF_Materialx","pbrMetallicRoughness":{"baseColorFactor":[0.0,0.0,0.0,1.0],"metallicFactor":0.0,"roughnessFactor":0.0}},{"name":"glTF_Materialxx","pbrMetallicRoughness":{"baseColorFactor":[0.086275,0.062745,0.027451,1.0],"metallicFactor":0.0,"roughnessFactor":0.0}},{"name":"glTF_Materialxxx","pbrMetallicRoughness":{"baseColorFactor":[0.113725,0.270588,0.388235,1.0],"metallicFactor":0.0,"roughnessFactor":0.0}}],"meshes":[{"primitives":[{"attributes":{"COLOR_0":5,"NORMAL":2,"POSITION":0,"TANGENT":1,"TEXCOORD_0":3,"TEXCOORD_1":4},"indices":6,"material":0,"mode":4,"extras":{"ASOBO_primitive":{"PrimitiveCount":1523,"VertexType":"VTX","VertexVersion":2}}}],"name":"part000"},{"primitives":[{"attributes":{"COLOR_0":12,"NORMAL":9,"POSITION":7,"TANGENT":8,"TEXCOORD_0":10,"TEXCOORD_1":11},"indices":13,"material":2,"mode":4,"extras":{"ASOBO_primitive":{"PrimitiveCount":4,"VertexType":"VTX","VertexVersion":2}}}],"name":"part001"},{"primitives":[{"attributes":{"COLOR_0":19,"NORMAL":16,"POSITION":14,"TANGENT":15,"TEXCOORD_0":17,"TEXCOORD_1":18},"indices":20,"material":1,"mode":4,"extras":{"ASOBO_primitive":{"PrimitiveCount":32,"VertexType":"VTX","VertexVersion":2}}}],"name":"part002"},{"primitives":[{"attributes":{"COLOR_0":26,"NORMAL":23,"POSITION":21,"TANGENT":22,"TEXCOORD_0":24,"TEXCOORD_1":25},"indices":27,"material":3,"mode":4,"extras":{"ASOBO_primitive":{"PrimitiveCount":20,"VertexType":"VTX","VertexVersion":2}}}],"name":"part003"},{"primitives":[{"attributes":{"COLOR_0":33,"NORMAL":30,"POSITION":28,"TANGENT":29,"TEXCOORD_0":31,"TEXCOORD_1":32},"indices":34,"material":0,"mode":4,"extras":{"ASOBO_primitive":{"PrimitiveCount":2,"VertexType":"VTX","VertexVersion":2}}}],"name":"part004"},{"primitives":[{"attributes":{"COLOR_0":40,"NORMAL":37,"POSITION":35,"TANGENT":36,"TEXCOORD_0":38,"TEXCOORD_1":39},"indices":41,"material":0,"mode":4,"extras":{"ASOBO_primitive":{"PrimitiveCount":2,"VertexType":"VTX","VertexVersion":2}}}],"name":"part005"},{"primitives":[{"attributes":{"COLOR_0":47,"NORMAL":44,"POSITION":42,"TANGENT":43,"TEXCOORD_0":45,"TEXCOORD_1":46},"indices":48,"material":0,"mode":4,"extras":{"ASOBO_primitive":{"PrimitiveCount":48,"VertexType":"VTX","VertexVersion":2}}}],"name":"part006"},{"primitives":[{"attributes":{"COLOR_0":54,"NORMAL":51,"POSITION":49,"TANGENT":50,"TEXCOORD_0":52,"TEXCOORD_1":53},"indices":55,"material":1,"mode":4,"extras":{"ASOBO_primitive":{"PrimitiveCount":48,"VertexType":"VTX","VertexVersion":2}}}],"name":"part007"},{"primitives":[{"attributes":{"COLOR_0":61,"NORMAL":58,"POSITION":56,"TANGENT":57,"TEXCOORD_0":59,"TEXCOORD_1":60},"indices":62,"material":0,"mode":4,"extras":{"ASOBO_primitive":{"PrimitiveCount":48,"VertexType":"VTX","VertexVersion":2}}}],"name":"part008"},{"primitives":[{"attributes":{"COLOR_0":68,"NORMAL":65,"POSITION":63,"TANGENT":64,"TEXCOORD_0":66,"TEXCOORD_1":67},"indices":69,"material":1,"mode":4,"extras":{"ASOBO_primitive":{"PrimitiveCount":48,"VertexType":"VTX","VertexVersion":2}}}],"name":"part009"},{"primitives":[{"attributes":{"COLOR_0":75,"NORMAL":72,"POSITION":70,"TANGENT":71,"TEXCOORD_0":73,"TEXCOORD_1":74},"indices":76,"material":0,"mode":4,"extras":{"ASOBO_primitive":{"PrimitiveCount":48,"VertexType":"VTX","VertexVersion":2}}}],"name":"part010"},{"primitives":[{"attributes":{"COLOR_0":82,"NORMAL":79,"POSITION":77,"TANGENT":78,"TEXCOORD_0":80,"TEXCOORD_1":81},"indices":83,"material":1,"mode":4,"extras":{"ASOBO_primitive":{"PrimitiveCount":48,"VertexType":"VTX","VertexVersion":2}}}],"name":"part011"}],"nodes":[{"name":"node0","children":[1,2,3,4,5]},{"mesh":0,"name":"node1"},{"mesh":1,"name":"node2"},{"mesh":2,"name":"node3"},{"mesh":3,"name":"node4"},{"translation":[0.0,2.103658,0.0],"rotation":[0.7071067811865476],"scale":[1.0,1.0000000809864969,1.0000000809864969],"name":"node5","children":[6,9,12,16,20]},{"translation":[-4.866006,3.822047,0.637713],"rotation":[0.0,1.0,0.0,0.0],"scale":[1.0,1.0,1.0],"name":"node6","children":[7]},{"name":"node7","children":[8]},{"mesh":4,"name":"node8"},{"translation":[4.902836,3.822046,0.637713],"rotation":[0.0,1.0,0.0,0.0],"scale":[1.0,1.0,1.0],"name":"node9","children":[10]},{"name":"node10","children":[11]},{"mesh":5,"name":"node11"},{"translation":[-0.000693,11.070468769887,1.685919844316],"rotation":[0.8141170327632704,0.0004315883024604121],"scale":[1.0,1.0,1.0],"name":"node12","children":[13]},{"name":"node13","children":[14,15]},{"mesh":6,"name":"node14"},{"mesh":7,"name":"node15"},{"translation":[-2.661404663698,-1.330630802554,1.610434498849],"rotation":[0.7077937320607156,0.0007110781312668632],"scale":[1.0,1.0,1.0],"name":"node16","children":[17]},{"name":"node17","children":[18,19]},{"mesh":8,"name":"node18"},{"mesh":9,"name":"node19"},{"translation":[2.7154098123260006,-1.333943426344,1.611044177104],"rotation":[0.7071048366421702],"scale":[1.0,1.0,1.0],"name":"node20","children":[21]},{"name":"node21","children":[22,23]},{"mesh":10,"name":"node22"},{"mesh":11,"name":"node23"}],"scene":0,"scenes":[{"nodes":[0]}],"textures":[{"extensions":{"MSFT_texture_dds":{"source":0}}}],"buffers":[{"byteLength":82944,"uri":"AIA 737-300 POA001_LOD000.bin"}],"images":[{"uri":"AIA 737-300 POA%AIA_737_300_T.BMP.DDS","extras":"ASOBO_image_converted_meta"}]}
