{"accessors":[{"bufferView":0,"componentType":5126,"count":68,"min":[-5.492000102996826,-0.04470999911427498,-11.148380279541016],"max":[5.495999813079834,2.057310104370117,1.4628100395202637],"type":"VEC3","name":"part000_vertices#0_POSITION"},{"bufferView":0,"byteOffset":12,"componentType":5120,"count":68,"type":"VEC4","name":"part000_vertices#0_TANGENT"},{"bufferView":0,"byteOffset":16,"componentType":5120,"count":68,"type":"VEC4","name":"part000_vertices#0_NORMAL"},{"bufferView":0,"byteOffset":20,"componentType":5122,"count":68,"type":"VEC2","name":"part000_vertices#0_TEXCOORD_0"},{"bufferView":0,"byteOffset":24,"componentType":5122,"count":68,"type":"VEC2","name":"part000_vertices#0_TEXCOORD_1"},{"bufferView":0,"byteOffset":28,"componentType":5123,"count":68,"type":"VEC4","name":"part000_vertices#0_COLOR_0"},{"bufferView":1,"componentType":5123,"count":108,"type":"SCALAR","name":"part000_indices#0"},{"bufferView":0,"byteOffset":2448,"componentType":5126,"count":40,"min":[-1.3079999685287476,3.3087399005889894,-13.692609786987305],"max":[1.3079999685287476,3.9089601039886476,-12.056739807128907],"type":"VEC3","name":"part001_vertices#0_POSITION"},{"bufferView":0,"byteOffset":2460,"componentType":5120,"count":40,"type":"VEC4","name":"part001_vertices#0_TANGENT"},{"bufferView":0,"byteOffset":2464,"componentType":5120,"count":40,"type":"VEC4","name":"part001_vertices#0_NORMAL"},{"bufferView":0,"byteOffset":2468,"componentType":5122,"count":40,"type":"VEC2","name":"part001_vertices#0_TEXCOORD_0"},{"bufferView":0,"byteOffset":2472,"componentType":5122,"count":40,"type":"VEC2","name":"part001_vertices#0_TEXCOORD_1"},{"bufferView":0,"byteOffset":2476,"componentType":5123,"count":40,"type":"VEC4","name":"part001_vertices#0_COLOR_0"},{"bufferView":1,"byteOffset":216,"componentType":5123,"count":60,"type":"SCALAR","name":"part001_indices#0"},{"bufferView":0,"byteOffset":3888,"componentType":5126,"count":483,"min":[-14.47599983215332,-0.01874000020325184,-15.122989654541016],"max":[14.395999908447266,11.121609687805176,18.21466064453125],"type":"VEC3","name":"part002_vertices#0_POSITION"},{"bufferView":0,"byteOffset":3900,"componentType":5120,"count":483,"type":"VEC4","name":"part002_vertices#0_TANGENT"},{"bufferView":0,"byteOffset":3904,"componentType":5120,"count":483,"type":"VEC4","name":"part002_vertices#0_NORMAL"},{"bufferView":0,"byteOffset":3908,"componentType":5122,"count":483,"type":"VEC2","name":"part002_vertices#0_TEXCOORD_0"},{"bufferView":0,"byteOffset":3912,"componentType":5122,"count":483,"type":"VEC2","name":"part002_vertices#0_TEXCOORD_1"},{"bufferView":0,"byteOffset":3916,"componentType":5123,"count":483,"type":"VEC4","name":"part002_vertices#0_COLOR_0"},{"bufferView":1,"byteOffset":336,"componentType":5123,"count":990,"type":"SCALAR","name":"part002_indices#0"}],"asset":{"generator":"ModelConverterX","version":"2.0","extensions":{"ASOBO_asset_optimized":{"BoundingBoxMax":[14.395999908447266,11.121609687805176,18.21466064453125],"BoundingBoxMin":[-14.47599983215332,-0.04470999911427498,-15.122989654541016],"MajorVersion":4,"MinorVersion":2}}},"bufferViews":[{"buffer":0,"byteLength":21276,"byteStride":36,"byteOffset":100,"target":34962,"name":"BufferViewVertexND"},{"buffer":0,"byteLength":2316,"byteOffset":21492,"target":34963,"name":"BufferViewIndex"}],"extensionsUsed":["MSFT_texture_dds","ASOBO_asset_optimized"],"extensionsRequired":["MSFT_texture_dds"],"materials":[{"name":"glTF_Material","pbrMetallicRoughness":{"metallicFactor":0.0,"roughnessFactor":0.0,"baseColorTexture":{"index":0}}},{"name":"glTF_Materialx","pbrMetallicRoughness":{"baseColorFactor":[0.0,0.0,0.0,1.0],"metallicFactor":0.0,"roughnessFactor":0.0}},{"name":"glTF_Materialxx","pbrMetallicRoughness":{"baseColorFactor":[0.113725,0.270588,0.388235,1.0],"metallicFactor":0.0,"roughnessFactor":0.0}}],"meshes":[{"primitives":[{"attributes":{"COLOR_0":5,"NORMAL":2,"POSITION":0,"TANGENT":1,"TEXCOORD_0":3,"TEXCOORD_1":4},"indices":6,"material":1,"mode":4,"extras":{"ASOBO_primitive":{"PrimitiveCount":36,"VertexType":"VTX","VertexVersion":2}}}],"name":"part000"},{"primitives":[{"attributes":{"COLOR_0":12,"NORMAL":9,"POSITION":7,"TANGENT":8,"TEXCOORD_0":10,"TEXCOORD_1":11},"indices":13,"material":2,"mode":4,"extras":{"ASOBO_primitive":{"PrimitiveCount":20,"VertexType":"VTX","VertexVersion":2}}}],"name":"part001"},{"primitives":[{"attributes":{"COLOR_0":19,"NORMAL":16,"POSITION":14,"TANGENT":15,"TEXCOORD_0":17,"TEXCOORD_1":18},"indices":20,"material":0,"mode":4,"extras":{"ASOBO_primitive":{"PrimitiveCount":330,"VertexType":"VTX","VertexVersion":2}}}],"name":"part002"}],"nodes":[{"name":"node0","children":[1,2,3]},{"mesh":0,"name":"node1"},{"mesh":1,"name":"node2"},{"mesh":2,"name":"node3"}],"scene":0,"scenes":[{"nodes":[0]}],"textures":[{"extensions":{"MSFT_texture_dds":{"source":0}}}],"buffers":[{"byteLength":23808,"uri":"AIA 737-300 POA001_LOD002.bin"}],"images":[{"uri":"AIA 737-300 POA%AIA_737_300_T.BMP.DDS","extras":"ASOBO_image_converted_meta"}]}
