{"accessors":[{"bufferView":0,"componentType":5126,"count":30,"min":[0.2175299972295761,0.0,-52.31779861450195],"max":[139.56134033203126,94.23999786376953,-0.6978099942207336],"type":"VEC3","name":"part000_vertices#0_POSITION"},{"bufferView":0,"byteOffset":12,"componentType":5120,"count":30,"type":"VEC4","name":"part000_vertices#0_TANGENT"},{"bufferView":0,"byteOffset":16,"componentType":5120,"count":30,"type":"VEC4","name":"part000_vertices#0_NORMAL"},{"bufferView":0,"byteOffset":20,"componentType":5122,"count":30,"type":"VEC2","name":"part000_vertices#0_TEXCOORD_0"},{"bufferView":0,"byteOffset":24,"componentType":5122,"count":30,"type":"VEC2","name":"part000_vertices#0_TEXCOORD_1"},{"bufferView":0,"byteOffset":28,"componentType":5123,"count":30,"type":"VEC4","name":"part000_vertices#0_COLOR_0"},{"bufferView":1,"componentType":5123,"count":78,"type":"SCALAR","name":"part000_indices#0"},{"bufferView":0,"byteOffset":1080,"componentType":5126,"count":60,"min":[0.2175299972295761,0.0,-52.31779861450195],"max":[139.56134033203126,94.23999786376953,-0.6978099942207336],"type":"VEC3","name":"part001_vertices#0_POSITION"},{"bufferView":0,"byteOffset":1092,"componentType":5120,"count":60,"type":"VEC4","name":"part001_vertices#0_TANGENT"},{"bufferView":0,"byteOffset":1096,"componentType":5120,"count":60,"type":"VEC4","name":"part001_vertices#0_NORMAL"},{"bufferView":0,"byteOffset":1100,"componentType":5122,"count":60,"type":"VEC2","name":"part001_vertices#0_TEXCOORD_0"},{"bufferView":0,"byteOffset":1104,"componentType":5122,"count":60,"type":"VEC2","name":"part001_vertices#0_TEXCOORD_1"},{"bufferView":0,"byteOffset":1108,"componentType":5123,"count":60,"type":"VEC4","name":"part001_vertices#0_COLOR_0"},{"bufferView":1,"byteOffset":156,"componentType":5123,"count":156,"type":"SCALAR","name":"part001_indices#0"},{"bufferView":0,"byteOffset":3240,"componentType":5126,"count":10,"min":[51.41135025024414,0.0,-22.15781021118164],"max":[139.56134033203126,94.10999298095703,-0.6978099942207336],"type":"VEC3","name":"part002_vertices#0_POSITION"},{"bufferView":0,"byteOffset":3252,"componentType":5120,"count":10,"type":"VEC4","name":"part002_vertices#0_TANGENT"},{"bufferView":0,"byteOffset":3256,"componentType":5120,"count":10,"type":"VEC4","name":"part002_vertices#0_NORMAL"},{"bufferView":0,"byteOffset":3260,"componentType":5122,"count":10,"type":"VEC2","name":"part002_vertices#0_TEXCOORD_0"},{"bufferView":0,"byteOffset":3264,"componentType":5122,"count":10,"type":"VEC2","name":"part002_vertices#0_TEXCOORD_1"},{"bufferView":0,"byteOffset":3268,"componentType":5123,"count":10,"type":"VEC4","name":"part002_vertices#0_COLOR_0"},{"bufferView":1,"byteOffset":468,"componentType":5123,"count":18,"type":"SCALAR","name":"part002_indices#0"},{"bufferView":0,"byteOffset":3600,"componentType":5126,"count":10,"min":[51.41135025024414,0.0,-22.15781021118164],"max":[139.56134033203126,94.10999298095703,-0.6978099942207336],"type":"VEC3","name":"part003_vertices#0_POSITION"},{"bufferView":0,"byteOffset":3612,"componentType":5120,"count":10,"type":"VEC4","name":"part003_vertices#0_TANGENT"},{"bufferView":0,"byteOffset":3616,"componentType":5120,"count":10,"type":"VEC4","name":"part003_vertices#0_NORMAL"},{"bufferView":0,"byteOffset":3620,"componentType":5122,"count":10,"type":"VEC2","name":"part003_vertices#0_TEXCOORD_0"},{"bufferView":0,"byteOffset":3624,"componentType":5122,"count":10,"type":"VEC2","name":"part003_vertices#0_TEXCOORD_1"},{"bufferView":0,"byteOffset":3628,"componentType":5123,"count":10,"type":"VEC4","name":"part003_vertices#0_COLOR_0"},{"bufferView":1,"byteOffset":504,"componentType":5123,"count":18,"type":"SCALAR","name":"part003_indices#0"},{"bufferView":0,"byteOffset":3960,"componentType":5126,"count":38,"min":[0.2175299972295761,0.0,-30.857799530029298],"max":[139.56134033203126,94.23999786376953,-22.15781021118164],"type":"VEC3","name":"part004_vertices#0_POSITION"},{"bufferView":0,"byteOffset":3972,"componentType":5120,"count":38,"type":"VEC4","name":"part004_vertices#0_TANGENT"},{"bufferView":0,"byteOffset":3976,"componentType":5120,"count":38,"type":"VEC4","name":"part004_vertices#0_NORMAL"},{"bufferView":0,"byteOffset":3980,"componentType":5122,"count":38,"type":"VEC2","name":"part004_vertices#0_TEXCOORD_0"},{"bufferView":0,"byteOffset":3984,"componentType":5122,"count":38,"type":"VEC2","name":"part004_vertices#0_TEXCOORD_1"},{"bufferView":0,"byteOffset":3988,"componentType":5123,"count":38,"type":"VEC4","name":"part004_vertices#0_COLOR_0"},{"bufferView":1,"byteOffset":540,"componentType":5123,"count":102,"type":"SCALAR","name":"part004_indices#0"},{"bufferView":0,"byteOffset":5328,"componentType":5126,"count":32,"min":[46.95722961425781,94.10999298095703,-52.31779861450195],"max":[92.66610717773438,95.8600082397461,-0.6978099942207336],"type":"VEC3","name":"part005_vertices#0_POSITION"},{"bufferView":0,"byteOffset":5340,"componentType":5120,"count":32,"type":"VEC4","name":"part005_vertices#0_TANGENT"},{"bufferView":0,"byteOffset":5344,"componentType":5120,"count":32,"type":"VEC4","name":"part005_vertices#0_NORMAL"},{"bufferView":0,"byteOffset":5348,"componentType":5122,"count":32,"type":"VEC2","name":"part005_vertices#0_TEXCOORD_0"},{"bufferView":0,"byteOffset":5352,"componentType":5122,"count":32,"type":"VEC2","name":"part005_vertices#0_TEXCOORD_1"},{"bufferView":0,"byteOffset":5356,"componentType":5123,"count":32,"type":"VEC4","name":"part005_vertices#0_COLOR_0"},{"bufferView":1,"byteOffset":744,"componentType":5123,"count":48,"type":"SCALAR","name":"part005_indices#0"},{"bufferView":0,"byteOffset":6480,"componentType":5126,"count":39,"min":[46.95722961425781,0.0,-52.31779861450195],"max":[92.66610717773438,102.72998809814453,-0.6978099942207336],"type":"VEC3","name":"part006_vertices#0_POSITION"},{"bufferView":0,"byteOffset":6492,"componentType":5120,"count":39,"type":"VEC4","name":"part006_vertices#0_TANGENT"},{"bufferView":0,"byteOffset":6496,"componentType":5120,"count":39,"type":"VEC4","name":"part006_vertices#0_NORMAL"},{"bufferView":0,"byteOffset":6500,"componentType":5122,"count":39,"type":"VEC2","name":"part006_vertices#0_TEXCOORD_0"},{"bufferView":0,"byteOffset":6504,"componentType":5122,"count":39,"type":"VEC2","name":"part006_vertices#0_TEXCOORD_1"},{"bufferView":0,"byteOffset":6508,"componentType":5123,"count":39,"type":"VEC4","name":"part006_vertices#0_COLOR_0"},{"bufferView":1,"byteOffset":840,"componentType":5123,"count":75,"type":"SCALAR","name":"part006_indices#0"},{"bufferView":0,"byteOffset":7884,"componentType":5126,"count":12,"min":[58.13935089111328,94.10999298095703,-37.0178108215332],"max":[80.9493408203125,102.72998809814453,-14.057809829711914],"type":"VEC3","name":"part007_vertices#0_POSITION"},{"bufferView":0,"byteOffset":7896,"componentType":5120,"count":12,"type":"VEC4","name":"part007_vertices#0_TANGENT"},{"bufferView":0,"byteOffset":7900,"componentType":5120,"count":12,"type":"VEC4","name":"part007_vertices#0_NORMAL"},{"bufferView":0,"byteOffset":7904,"componentType":5122,"count":12,"type":"VEC2","name":"part007_vertices#0_TEXCOORD_0"},{"bufferView":0,"byteOffset":7908,"componentType":5122,"count":12,"type":"VEC2","name":"part007_vertices#0_TEXCOORD_1"},{"bufferView":0,"byteOffset":7912,"componentType":5123,"count":12,"type":"VEC4","name":"part007_vertices#0_COLOR_0"},{"bufferView":1,"byteOffset":990,"componentType":5123,"count":18,"type":"SCALAR","name":"part007_indices#0"},{"bufferView":0,"byteOffset":8316,"componentType":5126,"count":6,"min":[58.13935089111328,102.72998809814453,-37.0178108215332],"max":[80.9493408203125,102.72998809814453,-14.057809829711914],"type":"VEC3","name":"part008_vertices#0_POSITION"},{"bufferView":0,"byteOffset":8328,"componentType":5120,"count":6,"type":"VEC4","name":"part008_vertices#0_TANGENT"},{"bufferView":0,"byteOffset":8332,"componentType":5120,"count":6,"type":"VEC4","name":"part008_vertices#0_NORMAL"},{"bufferView":0,"byteOffset":8336,"componentType":5122,"count":6,"type":"VEC2","name":"part008_vertices#0_TEXCOORD_0"},{"bufferView":0,"byteOffset":8340,"componentType":5122,"count":6,"type":"VEC2","name":"part008_vertices#0_TEXCOORD_1"},{"bufferView":0,"byteOffset":8344,"componentType":5123,"count":6,"type":"VEC4","name":"part008_vertices#0_COLOR_0"},{"bufferView":1,"byteOffset":1026,"componentType":5123,"count":12,"type":"SCALAR","name":"part008_indices#0"}],"asset":{"generator":"ModelConverterX","version":"2.0","extensions":{"ASOBO_asset_optimized":{"BoundingBoxMax":[139.56134033203126,102.72998809814453,-0.6978099942207336],"BoundingBoxMin":[0.2175299972295761,0.0,-52.31779861450195],"MajorVersion":4,"MinorVersion":2}}},"bufferViews":[{"buffer":0,"byteLength":8532,"byteStride":36,"byteOffset":44,"target":34962,"name":"BufferViewVertexND"},{"buffer":0,"byteLength":1050,"byteOffset":8678,"target":34963,"name":"BufferViewIndex"}],"extensionsUsed":["MSFT_texture_dds","ASOBO_asset_optimized"],"extensionsRequired":["MSFT_texture_dds"],"materials":[{"name":"glTF_Material","doubleSided":true,"pbrMetallicRoughness":{"baseColorFactor":[0.7019608020782471,0.7019608020782471,0.7019608020782471,1.0],"metallicFactor":0.0,"roughnessFactor":0.0}},{"name":"glTF_Materialx","pbrMetallicRoughness":{"baseColorFactor":[0.6705881953239441,0.6901960968971252,0.800000011920929,1.0],"metallicFactor":0.0,"roughnessFactor":0.0}},{"name":"glTF_Materialxx","pbrMetallicRoughness":{"baseColorFactor":[0.9019607901573181,0.9019607901573181,0.9019607901573181,1.0],"metallicFactor":0.0,"roughnessFactor":0.0}},{"name":"glTF_Materialxxx","doubleSided":true,"pbrMetallicRoughness":{"baseColorFactor":[0.9019607901573181,0.9019607901573181,0.9019607901573181,1.0],"metallicFactor":0.0,"roughnessFactor":0.0}},{"name":"glTF_Materialxxxx","pbrMetallicRoughness":{"metallicFactor":0.0,"roughnessFactor":0.0}},{"name":"glTF_Materialxxxxx","doubleSided":true,"pbrMetallicRoughness":{"metallicFactor":0.0,"roughnessFactor":0.0,"baseColorTexture":{"index":0}}},{"name":"glTF_Materialxxxxxx","doubleSided":true,"pbrMetallicRoughness":{"metallicFactor":0.0,"roughnessFactor":0.0,"baseColorTexture":{"index":1}}},{"name":"glTF_Materialxxxxxxx","doubleSided":true,"pbrMetallicRoughness":{"metallicFactor":0.0,"roughnessFactor":0.0,"baseColorTexture":{"index":2}}},{"name":"glTF_Materialxxxxxxxx","doubleSided":true,"pbrMetallicRoughness":{"metallicFactor":0.0,"roughnessFactor":0.0,"baseColorTexture":{"index":3}}}],"meshes":[{"primitives":[{"attributes":{"COLOR_0":5,"NORMAL":2,"POSITION":0,"TANGENT":1,"TEXCOORD_0":3,"TEXCOORD_1":4},"indices":6,"material":5,"mode":4,"extras":{"ASOBO_primitive":{"PrimitiveCount":26,"VertexType":"VTX","VertexVersion":2}}}],"name":"part000"},{"primitives":[{"attributes":{"COLOR_0":12,"NORMAL":9,"POSITION":7,"TANGENT":8,"TEXCOORD_0":10,"TEXCOORD_1":11},"indices":13,"material":3,"mode":4,"extras":{"ASOBO_primitive":{"PrimitiveCount":52,"VertexType":"VTX","VertexVersion":2}}}],"name":"part001"},{"primitives":[{"attributes":{"COLOR_0":19,"NORMAL":16,"POSITION":14,"TANGENT":15,"TEXCOORD_0":17,"TEXCOORD_1":18},"indices":20,"material":4,"mode":4,"extras":{"ASOBO_primitive":{"PrimitiveCount":6,"VertexType":"VTX","VertexVersion":2}}}],"name":"part002"},{"primitives":[{"attributes":{"COLOR_0":26,"NORMAL":23,"POSITION":21,"TANGENT":22,"TEXCOORD_0":24,"TEXCOORD_1":25},"indices":27,"material":1,"mode":4,"extras":{"ASOBO_primitive":{"PrimitiveCount":6,"VertexType":"VTX","VertexVersion":2}}}],"name":"part003"},{"primitives":[{"attributes":{"COLOR_0":33,"NORMAL":30,"POSITION":28,"TANGENT":29,"TEXCOORD_0":31,"TEXCOORD_1":32},"indices":34,"material":6,"mode":4,"extras":{"ASOBO_primitive":{"PrimitiveCount":34,"VertexType":"VTX","VertexVersion":2}}}],"name":"part004"},{"primitives":[{"attributes":{"COLOR_0":40,"NORMAL":37,"POSITION":35,"TANGENT":36,"TEXCOORD_0":38,"TEXCOORD_1":39},"indices":41,"material":2,"mode":4,"extras":{"ASOBO_primitive":{"PrimitiveCount":16,"VertexType":"VTX","VertexVersion":2}}}],"name":"part005"},{"primitives":[{"attributes":{"COLOR_0":47,"NORMAL":44,"POSITION":42,"TANGENT":43,"TEXCOORD_0":45,"TEXCOORD_1":46},"indices":48,"material":0,"mode":4,"extras":{"ASOBO_primitive":{"PrimitiveCount":25,"VertexType":"VTX","VertexVersion":2}}}],"name":"part006"},{"primitives":[{"attributes":{"COLOR_0":54,"NORMAL":51,"POSITION":49,"TANGENT":50,"TEXCOORD_0":52,"TEXCOORD_1":53},"indices":55,"material":7,"mode":4,"extras":{"ASOBO_primitive":{"PrimitiveCount":6,"VertexType":"VTX","VertexVersion":2}}}],"name":"part007"},{"primitives":[{"attributes":{"COLOR_0":61,"NORMAL":58,"POSITION":56,"TANGENT":57,"TEXCOORD_0":59,"TEXCOORD_1":60},"indices":62,"material":8,"mode":4,"extras":{"ASOBO_primitive":{"PrimitiveCount":4,"VertexType":"VTX","VertexVersion":2}}}],"name":"part008"}],"nodes":[{"name":"node0","children":[1,2,3,4,5,6,7,8,9]},{"mesh":0,"name":"node1"},{"mesh":1,"name":"node2"},{"mesh":2,"name":"node3"},{"mesh":3,"name":"node4"},{"mesh":4,"name":"node5"},{"mesh":5,"name":"node6"},{"mesh":6,"name":"node7"},{"mesh":7,"name":"node8"},{"mesh":8,"name":"node9"}],"scene":0,"scenes":[{"nodes":[0]}],"textures":[{"extensions":{"MSFT_texture_dds":{"source":0}}},{"extensions":{"MSFT_texture_dds":{"source":1}}},{"extensions":{"MSFT_texture_dds":{"source":2}}},{"extensions":{"MSFT_texture_dds":{"source":3}}}],"buffers":[{"byteLength":9728,"uri":"CentroAdm.bin"}],"images":[{"uri":"UNTITLED\\TEXTURE.JPG.DDS","extras":"ASOBO_image_converted_meta"},{"uri":"UNTITLED\\TEXTURE_0.JPG.DDS","extras":"ASOBO_image_converted_meta"},{"uri":"UNTITLED\\TEXTURE_1.JPG.DDS","extras":"ASOBO_image_converted_meta"},{"uri":"UNTITLED\\TEXTURE_2.JPG.DDS","extras":"ASOBO_image_converted_meta"}]}
