{
  "asset": {
    "version": "2.0",
    "generator": "ModelConverterX"
  },
  "extensionsUsed": [
    "ASOBO_macro_light"
  ],
  "scene": 0,
  "scenes": [
    {
      "nodes": [
        0
      ]
    }
  ],
  "nodes": [
    {
      "name": "node0",
      "children": [
        1
      ]
    },
    {
      "name": "node1",
      "children": [
        2,
        3,
        4,
        5,
        6
      ]
    },
    {
      "name": "node2",
      "mesh": 0
    },
    {
      "name": "node3",
      "translation": [
        11.87831116,
        7.0434618,
        -1.61309516
      ],
      "rotation": [
        0.0,
        0.0,
        0.0,
        1.0
      ],
      "scale": [
        1.0,
        1.0,
        1.0
      ],
      "extensions": {
        "ASOBO_macro_light": {
          "color": [
            1.0,
            1.0,
            1.0
          ],
          "intensity": 150,
          "cone_angle": 360.0,
          "has_simmetry": true,
          "flash_frequency": 0.0,
          "flash_duration": 0.0,
          "flash_phase": 0.0,
          "rotation_speed": 0.0,
          "day_night_cycle": true
        }
      }
    },
    {
      "name": "node4",
      "translation": [
        11.87831116,
        7.0434618,
        1.50622141
      ],
      "rotation": [
        0.0,
        0.0,
        0.0,
        1.0
      ],
      "scale": [
        1.0,
        1.0,
        1.0
      ],
      "extensions": {
        "ASOBO_macro_light": {
          "color": [
            1.0,
            1.0,
            1.0
          ],
          "intensity": 150,
          "cone_angle": 360.0,
          "has_simmetry": true,
          "flash_frequency": 0.0,
          "flash_duration": 0.0,
          "flash_phase": 0.0,
          "rotation_speed": 0.0,
          "day_night_cycle": true
        }
      }
    },
    {
      "name": "node5",
      "translation": [
        11.85416126,
        7.05111122,
        -1.61554003
      ],
      "rotation": [
        0.0,
        0.0,
        0.0,
        1.0
      ],
      "scale": [
        1.0,
        1.0,
        1.0
      ],
      "extensions": {
        "ASOBO_macro_light": {
          "color": [
            1.0,
            1.0,
            1.0
          ],
          "intensity": 150,
          "cone_angle": 360.0,
          "has_simmetry": true,
          "flash_frequency": 0.0,
          "flash_duration": 0.0,
          "flash_phase": 0.0,
          "rotation_speed": 0.0,
          "day_night_cycle": true
        }
      }
    },
    {
      "name": "node6",
      "translation": [
        11.85125732,
        7.05111122,
        1.51141393
      ],
      "rotation": [
        0.0,
        0.0,
        0.0,
        1.0
      ],
      "scale": [
        1.0,
        1.0,
        1.0
      ],
      "extensions": {
        "ASOBO_macro_light": {
          "color": [
            1.0,
            1.0,
            1.0
          ],
          "intensity": 150,
          "cone_angle": 360.0,
          "has_simmetry": true,
          "flash_frequency": 0.0,
          "flash_duration": 0.0,
          "flash_phase": 0.0,
          "rotation_speed": 0.0,
          "day_night_cycle": true
        }
      }
    }
  ],
  "meshes": [
    {
      "primitives": [
        {
          "attributes": {
            "POSITION": 0,
            "NORMAL": 1,
            "TEXCOORD_0": 2
          },
          "indices": 3,
          "mode": 4,
          "material": 0
        }
      ],
      "name": "part000"
    }
  ],
  "accessors": [
    {
      "bufferView": 1,
      "byteOffset": 0,
      "componentType": 5126,
      "count": 1280,
      "type": "VEC3",
      "min": [
        0.0238,
        -0.10021,
        -2.55433
      ],
      "max": [
        13.4555,
        7.1395,
        2.47831
      ]
    },
    {
      "bufferView": 2,
      "byteOffset": 0,
      "componentType": 5126,
      "count": 1280,
      "type": "VEC3"
    },
    {
      "bufferView": 3,
      "byteOffset": 0,
      "componentType": 5126,
      "count": 1280,
      "type": "VEC2"
    },
    {
      "bufferView": 0,
      "byteOffset": 0,
      "componentType": 5125,
      "count": 2442,
      "type": "SCALAR"
    }
  ],
  "materials": [
    {
      "pbrMetallicRoughness": {
        "baseColorFactor": [
          1.0,
          1.0,
          1.0,
          1.0
        ],
        "roughnessFactor": 0.0,
        "metallicFactor": 0.0,
        "baseColorTexture": {
          "index": 0
        }
      },
      "emissiveFactor": [
        0.0,
        0.0,
        0.0
      ],
      "emissiveTexture": {
        "index": 1
      },
      "doubleSided": true
    }
  ],
  "textures": [
    {
      "source": 0,
      "name": "head2"
    },
    {
      "source": 1,
      "name": "head2_lit"
    }
  ],
  "images": [
    {
      "uri": "head2.png"
    },
    {
      "uri": "head2_lit.png"
    }
  ],
  "bufferViews": [
    {
      "buffer": 0,
      "byteOffset": 0,
      "byteLength": 9768
    },
    {
      "buffer": 0,
      "byteOffset": 9768,
      "byteLength": 15360
    },
    {
      "buffer": 0,
      "byteOffset": 25128,
      "byteLength": 15360
    },
    {
      "buffer": 0,
      "byteOffset": 40488,
      "byteLength": 10240
    }
  ],
  "buffers": [
    {
      "byteLength": 50728,
      "uri": "HEAD2.bin"
    }
  ]
}