{"accessors":[{"bufferView":0,"componentType":5126,"count":8682,"min":[-108.51290893554688,-0.7585399746894836,-52.69327926635742],"max":[115.78047943115235,27.525419235229493,55.84148025512695],"type":"VEC3","name":"part000_vertices#0_POSITION"},{"bufferView":0,"byteOffset":12,"componentType":5120,"count":8682,"type":"VEC4","name":"part000_vertices#0_TANGENT"},{"bufferView":0,"byteOffset":16,"componentType":5120,"count":8682,"type":"VEC4","name":"part000_vertices#0_NORMAL"},{"bufferView":0,"byteOffset":20,"componentType":5122,"count":8682,"type":"VEC2","name":"part000_vertices#0_TEXCOORD_0"},{"bufferView":0,"byteOffset":24,"componentType":5122,"count":8682,"type":"VEC2","name":"part000_vertices#0_TEXCOORD_1"},{"bufferView":0,"byteOffset":28,"componentType":5123,"count":8682,"type":"VEC4","name":"part000_vertices#0_COLOR_0"},{"bufferView":1,"componentType":5123,"count":16518,"type":"SCALAR","name":"part000_indices#0"}],"asset":{"generator":"ModelConverterX","version":"2.0","extensions":{"ASOBO_asset_optimized":{"BoundingBoxMax":[115.78047943115235,27.525419235229493,55.84148025512695],"BoundingBoxMin":[-108.51290893554688,-0.7585399746894836,-52.69327926635742],"MajorVersion":4,"MinorVersion":2}}},"bufferViews":[{"buffer":0,"byteLength":312552,"byteStride":36,"byteOffset":24,"target":34962,"name":"BufferViewVertexND"},{"buffer":0,"byteLength":33036,"byteOffset":312692,"target":34963,"name":"BufferViewIndex"}],"extensionsUsed":["ASOBO_macro_light","MSFT_texture_dds","ASOBO_asset_optimized"],"extensionsRequired":["MSFT_texture_dds"],"materials":[{"name":"glTF_Material","emissiveTexture":{"index":1},"pbrMetallicRoughness":{"metallicFactor":0.0,"roughnessFactor":0.0,"baseColorTexture":{"index":0}}}],"meshes":[{"primitives":[{"attributes":{"COLOR_0":5,"NORMAL":2,"POSITION":0,"TANGENT":1,"TEXCOORD_0":3,"TEXCOORD_1":4},"indices":6,"material":0,"mode":4,"extras":{"ASOBO_primitive":{"PrimitiveCount":5506,"VertexType":"VTX","VertexVersion":2}}}],"name":"part000"}],"nodes":[{"name":"node0","children":[1,2,3,4,5,6,7]},{"mesh":0,"name":"node1"},{"translation":[-58.15092468,3.82984638,45.42771149],"rotation":[0.0,0.0,0.0,1.0],"scale":[1.0,1.0,1.0],"extensions":{"ASOBO_macro_light":{"color":[1.0,0.8,0.7],"cone_angle":360.0,"day_night_cycle":true,"flash_duration":0.0,"flash_frequency":0.0,"flash_phase":0.0,"has_simmetry":true,"intensity":150,"rotation_speed":0.0}},"name":"node2"},{"translation":[-39.73138428,3.82984638,45.42771149],"rotation":[0.0,0.0,0.0,1.0],"scale":[1.0,1.0,1.0],"extensions":{"ASOBO_macro_light":{"color":[1.0,0.8,0.7],"cone_angle":360.0,"day_night_cycle":true,"flash_duration":0.0,"flash_frequency":0.0,"flash_phase":0.0,"has_simmetry":true,"intensity":150,"rotation_speed":0.0}},"name":"node3"},{"translation":[-22.10640335,3.82984638,45.42771149],"rotation":[0.0,0.0,0.0,1.0],"scale":[1.0,1.0,1.0],"extensions":{"ASOBO_macro_light":{"color":[1.0,0.8,0.7],"cone_angle":360.0,"day_night_cycle":true,"flash_duration":0.0,"flash_frequency":0.0,"flash_phase":0.0,"has_simmetry":true,"intensity":150,"rotation_speed":0.0}},"name":"node4"},{"translation":[2.88639641,3.82984638,45.42771149],"rotation":[0.0,0.0,0.0,1.0],"scale":[1.0,1.0,1.0],"extensions":{"ASOBO_macro_light":{"color":[1.0,0.8,0.7],"cone_angle":360.0,"day_night_cycle":true,"flash_duration":0.0,"flash_frequency":0.0,"flash_phase":0.0,"has_simmetry":true,"intensity":150,"rotation_speed":0.0}},"name":"node5"},{"translation":[23.40071487,3.82984638,45.42771149],"rotation":[0.0,0.0,0.0,1.0],"scale":[1.0,1.0,1.0],"extensions":{"ASOBO_macro_light":{"color":[1.0,0.8,0.7],"cone_angle":360.0,"day_night_cycle":true,"flash_duration":0.0,"flash_frequency":0.0,"flash_phase":0.0,"has_simmetry":true,"intensity":150,"rotation_speed":0.0}},"name":"node6"},{"translation":[42.97599411,3.95190477,45.42771149],"rotation":[0.0,0.0,0.0,1.0],"scale":[1.0,1.0,1.0],"extensions":{"ASOBO_macro_light":{"color":[1.0,0.8,0.7],"cone_angle":360.0,"day_night_cycle":true,"flash_duration":0.0,"flash_frequency":0.0,"flash_phase":0.0,"has_simmetry":true,"intensity":150,"rotation_speed":0.0}},"name":"node7"}],"scene":0,"scenes":[{"nodes":[0]}],"textures":[{"extensions":{"MSFT_texture_dds":{"source":0}}},{"extensions":{"MSFT_texture_dds":{"source":1}}}],"buffers":[{"byteLength":345728,"uri":"TERMINAL_REDO.bin"}],"images":[{"uri":"TERMINAL_REDO.PNG.DDS","extras":"ASOBO_image_converted_meta"},{"uri":"TERMINAL_REDO_LIT.PNG.DDS","extras":"ASOBO_image_converted_meta"}]}
