{"accessors":[{"bufferView":0,"componentType":5126,"count":864,"min":[-1145.2760009765626,-1.844099998474121,-560.594482421875],"max":[-967.7039794921875,3.9921000003814699,-262.5426025390625],"type":"VEC3","name":"part000_vertices#0_POSITION"},{"bufferView":0,"byteOffset":12,"componentType":5120,"count":864,"type":"VEC4","name":"part000_vertices#0_TANGENT"},{"bufferView":0,"byteOffset":16,"componentType":5120,"count":864,"type":"VEC4","name":"part000_vertices#0_NORMAL"},{"bufferView":0,"byteOffset":20,"componentType":5122,"count":864,"type":"VEC2","name":"part000_vertices#0_TEXCOORD_0"},{"bufferView":0,"byteOffset":24,"componentType":5122,"count":864,"type":"VEC2","name":"part000_vertices#0_TEXCOORD_1"},{"bufferView":0,"byteOffset":28,"componentType":5123,"count":864,"type":"VEC4","name":"part000_vertices#0_COLOR_0"},{"bufferView":1,"componentType":5123,"count":1482,"type":"SCALAR","name":"part000_indices#0"},{"bufferView":0,"byteOffset":31104,"componentType":5126,"count":748,"min":[-1210.8990478515626,-0.13808000087738038,-615.9036254882813],"max":[-940.9998779296875,9.078880310058594,-229.01620483398438],"type":"VEC3","name":"part001_vertices#0_POSITION"},{"bufferView":0,"byteOffset":31116,"componentType":5120,"count":748,"type":"VEC4","name":"part001_vertices#0_TANGENT"},{"bufferView":0,"byteOffset":31120,"componentType":5120,"count":748,"type":"VEC4","name":"part001_vertices#0_NORMAL"},{"bufferView":0,"byteOffset":31124,"componentType":5122,"count":748,"type":"VEC2","name":"part001_vertices#0_TEXCOORD_0"},{"bufferView":0,"byteOffset":31128,"componentType":5122,"count":748,"type":"VEC2","name":"part001_vertices#0_TEXCOORD_1"},{"bufferView":0,"byteOffset":31132,"componentType":5123,"count":748,"type":"VEC4","name":"part001_vertices#0_COLOR_0"},{"bufferView":1,"byteOffset":2964,"componentType":5123,"count":1326,"type":"SCALAR","name":"part001_indices#0"},{"bufferView":0,"byteOffset":58032,"componentType":5126,"count":19686,"min":[-1208.1429443359376,8.104439735412598,-612.09228515625],"max":[-944.8941040039063,8.902029991149903,-232.41949462890626],"type":"VEC3","name":"part002_vertices#0_POSITION"},{"bufferView":0,"byteOffset":58044,"componentType":5120,"count":19686,"type":"VEC4","name":"part002_vertices#0_TANGENT"},{"bufferView":0,"byteOffset":58048,"componentType":5120,"count":19686,"type":"VEC4","name":"part002_vertices#0_NORMAL"},{"bufferView":0,"byteOffset":58052,"componentType":5122,"count":19686,"type":"VEC2","name":"part002_vertices#0_TEXCOORD_0"},{"bufferView":0,"byteOffset":58056,"componentType":5122,"count":19686,"type":"VEC2","name":"part002_vertices#0_TEXCOORD_1"},{"bufferView":0,"byteOffset":58060,"componentType":5123,"count":19686,"type":"VEC4","name":"part002_vertices#0_COLOR_0"},{"bufferView":1,"byteOffset":5616,"componentType":5123,"count":29580,"type":"SCALAR","name":"part002_indices#0"},{"bufferView":0,"byteOffset":766728,"componentType":5126,"count":96310,"min":[-1185.365966796875,-0.2093999981880188,-669.2006225585938],"max":[-468.07330322265627,1.7784299850463868,-242.98379516601563],"type":"VEC3","name":"part003_vertices#0_POSITION"},{"bufferView":0,"byteOffset":766740,"componentType":5120,"count":96310,"type":"VEC4","name":"part003_vertices#0_TANGENT"},{"bufferView":0,"byteOffset":766744,"componentType":5120,"count":96310,"type":"VEC4","name":"part003_vertices#0_NORMAL"},{"bufferView":0,"byteOffset":766748,"componentType":5122,"count":96310,"type":"VEC2","name":"part003_vertices#0_TEXCOORD_0"},{"bufferView":0,"byteOffset":766752,"componentType":5122,"count":96310,"type":"VEC2","name":"part003_vertices#0_TEXCOORD_1"},{"bufferView":0,"byteOffset":766756,"componentType":5123,"count":96310,"type":"VEC4","name":"part003_vertices#0_COLOR_0"},{"bufferView":1,"byteOffset":64776,"componentType":5123,"count":114858,"type":"SCALAR","name":"part003_indices#1"},{"bufferView":0,"byteOffset":4233888,"componentType":5126,"count":134,"min":[-1161.0250244140626,-0.10911999642848969,-478.42388916015627],"max":[-1027.9150390625,1.912719964981079,-389.73199462890627],"type":"VEC3","name":"part004_vertices#0_POSITION"},{"bufferView":0,"byteOffset":4233900,"componentType":5120,"count":134,"type":"VEC4","name":"part004_vertices#0_TANGENT"},{"bufferView":0,"byteOffset":4233904,"componentType":5120,"count":134,"type":"VEC4","name":"part004_vertices#0_NORMAL"},{"bufferView":0,"byteOffset":4233908,"componentType":5122,"count":134,"type":"VEC2","name":"part004_vertices#0_TEXCOORD_0"},{"bufferView":0,"byteOffset":4233912,"componentType":5122,"count":134,"type":"VEC2","name":"part004_vertices#0_TEXCOORD_1"},{"bufferView":0,"byteOffset":4233916,"componentType":5123,"count":134,"type":"VEC4","name":"part004_vertices#0_COLOR_0"},{"bufferView":1,"byteOffset":294492,"componentType":5123,"count":210,"type":"SCALAR","name":"part004_indices#0"},{"bufferView":0,"byteOffset":4238712,"componentType":5126,"count":952,"min":[-1200.594970703125,-0.10909999907016754,-360.2497863769531],"max":[-1105.4239501953126,4.121260166168213,-303.40509033203127],"type":"VEC3","name":"part005_vertices#0_POSITION"},{"bufferView":0,"byteOffset":4238724,"componentType":5120,"count":952,"type":"VEC4","name":"part005_vertices#0_TANGENT"},{"bufferView":0,"byteOffset":4238728,"componentType":5120,"count":952,"type":"VEC4","name":"part005_vertices#0_NORMAL"},{"bufferView":0,"byteOffset":4238732,"componentType":5122,"count":952,"type":"VEC2","name":"part005_vertices#0_TEXCOORD_0"},{"bufferView":0,"byteOffset":4238736,"componentType":5122,"count":952,"type":"VEC2","name":"part005_vertices#0_TEXCOORD_1"},{"bufferView":0,"byteOffset":4238740,"componentType":5123,"count":952,"type":"VEC4","name":"part005_vertices#0_COLOR_0"},{"bufferView":1,"byteOffset":294912,"componentType":5123,"count":1524,"type":"SCALAR","name":"part005_indices#0"},{"bufferView":0,"byteOffset":4272984,"componentType":5126,"count":374,"min":[-1212.5670166015626,1.8889800310134888,-616.9218139648438],"max":[-939.8892822265625,14.18887996673584,-228.0740966796875],"type":"VEC3","name":"part006_vertices#0_POSITION"},{"bufferView":0,"byteOffset":4272996,"componentType":5120,"count":374,"type":"VEC4","name":"part006_vertices#0_TANGENT"},{"bufferView":0,"byteOffset":4273000,"componentType":5120,"count":374,"type":"VEC4","name":"part006_vertices#0_NORMAL"},{"bufferView":0,"byteOffset":4273004,"componentType":5122,"count":374,"type":"VEC2","name":"part006_vertices#0_TEXCOORD_0"},{"bufferView":0,"byteOffset":4273008,"componentType":5122,"count":374,"type":"VEC2","name":"part006_vertices#0_TEXCOORD_1"},{"bufferView":0,"byteOffset":4273012,"componentType":5123,"count":374,"type":"VEC4","name":"part006_vertices#0_COLOR_0"},{"bufferView":1,"byteOffset":297960,"componentType":5123,"count":714,"type":"SCALAR","name":"part006_indices#0"}],"asset":{"generator":"ModelConverterX","version":"2.0","extensions":{"ASOBO_asset_optimized":{"BoundingBoxMax":[-468.07330322265627,14.18887996673584,-228.0740966796875],"BoundingBoxMin":[-1212.5670166015626,-1.844099998474121,-669.2006225585938],"MajorVersion":4,"MinorVersion":2}}},"bufferViews":[{"buffer":0,"byteLength":4286448,"byteStride":36,"byteOffset":16,"target":34962,"name":"BufferViewVertexND"},{"buffer":0,"byteLength":299388,"byteOffset":4286468,"target":34963,"name":"BufferViewIndex"}],"extensionsUsed":["MSFT_texture_dds","ASOBO_asset_optimized"],"extensionsRequired":["MSFT_texture_dds"],"materials":[{"name":"glTF_Material","pbrMetallicRoughness":{"metallicFactor":0.0,"roughnessFactor":0.0,"baseColorTexture":{"index":0}}},{"name":"glTF_Materialx","emissiveTexture":{"index":2},"pbrMetallicRoughness":{"metallicFactor":0.0,"roughnessFactor":0.0,"baseColorTexture":{"index":1}}},{"name":"glTF_Materialxx","emissiveTexture":{"index":4},"pbrMetallicRoughness":{"metallicFactor":0.0,"roughnessFactor":0.0,"baseColorTexture":{"index":3}}},{"name":"glTF_Materialxxx","pbrMetallicRoughness":{"metallicFactor":0.0,"roughnessFactor":0.0,"baseColorTexture":{"index":5}}},{"name":"glTF_Materialxxxx","emissiveTexture":{"index":7},"pbrMetallicRoughness":{"baseColorFactor":[0.0,0.0,0.0,1.0],"metallicFactor":0.0,"roughnessFactor":0.0,"baseColorTexture":{"index":6}}},{"name":"glTF_Materialxxxxx","emissiveTexture":{"index":9},"pbrMetallicRoughness":{"metallicFactor":0.0,"roughnessFactor":0.0,"baseColorTexture":{"index":8}}},{"name":"glTF_Materialxxxxxx","emissiveTexture":{"index":11},"pbrMetallicRoughness":{"metallicFactor":0.0,"roughnessFactor":0.0,"baseColorTexture":{"index":10}}}],"meshes":[{"primitives":[{"attributes":{"COLOR_0":5,"NORMAL":2,"POSITION":0,"TANGENT":1,"TEXCOORD_0":3,"TEXCOORD_1":4},"indices":6,"material":5,"mode":4,"extras":{"ASOBO_primitive":{"PrimitiveCount":494,"VertexType":"VTX","VertexVersion":2}}}],"name":"part000"},{"primitives":[{"attributes":{"COLOR_0":12,"NORMAL":9,"POSITION":7,"TANGENT":8,"TEXCOORD_0":10,"TEXCOORD_1":11},"indices":13,"material":6,"mode":4,"extras":{"ASOBO_primitive":{"PrimitiveCount":442,"VertexType":"VTX","VertexVersion":2}}}],"name":"part001"},{"primitives":[{"attributes":{"COLOR_0":19,"NORMAL":16,"POSITION":14,"TANGENT":15,"TEXCOORD_0":17,"TEXCOORD_1":18},"indices":20,"material":0,"mode":4,"extras":{"ASOBO_primitive":{"PrimitiveCount":9860,"VertexType":"VTX","VertexVersion":2}}}],"name":"part002"},{"primitives":[{"attributes":{"COLOR_0":26,"NORMAL":23,"POSITION":21,"TANGENT":22,"TEXCOORD_0":24,"TEXCOORD_1":25},"indices":27,"material":2,"mode":4,"extras":{"ASOBO_primitive":{"PrimitiveCount":26180,"VertexType":"VTX","VertexVersion":2}}},{"attributes":{"COLOR_0":26,"NORMAL":23,"POSITION":21,"TANGENT":22,"TEXCOORD_0":24,"TEXCOORD_1":25},"indices":27,"material":2,"mode":4,"extras":{"ASOBO_primitive":{"BaseVertexIndex":65528,"PrimitiveCount":12106,"StartIndex":78540,"VertexType":"VTX","VertexVersion":2}}}],"name":"part003"},{"primitives":[{"attributes":{"COLOR_0":33,"NORMAL":30,"POSITION":28,"TANGENT":29,"TEXCOORD_0":31,"TEXCOORD_1":32},"indices":34,"material":3,"mode":4,"extras":{"ASOBO_primitive":{"PrimitiveCount":70,"VertexType":"VTX","VertexVersion":2}}}],"name":"part004"},{"primitives":[{"attributes":{"COLOR_0":40,"NORMAL":37,"POSITION":35,"TANGENT":36,"TEXCOORD_0":38,"TEXCOORD_1":39},"indices":41,"material":1,"mode":4,"extras":{"ASOBO_primitive":{"PrimitiveCount":508,"VertexType":"VTX","VertexVersion":2}}}],"name":"part005"},{"primitives":[{"attributes":{"COLOR_0":47,"NORMAL":44,"POSITION":42,"TANGENT":43,"TEXCOORD_0":45,"TEXCOORD_1":46},"indices":48,"material":4,"mode":4,"extras":{"ASOBO_primitive":{"PrimitiveCount":238,"VertexType":"VTX","VertexVersion":2}}}],"name":"part006"}],"nodes":[{"name":"node0","children":[1,2,3,4,5,6,7]},{"mesh":0,"name":"node1"},{"mesh":1,"name":"node2"},{"mesh":2,"name":"node3"},{"mesh":3,"name":"node4"},{"mesh":4,"name":"node5"},{"mesh":5,"name":"node6"},{"mesh":6,"name":"node7"}],"scene":0,"scenes":[{"nodes":[0]}],"textures":[{"extensions":{"MSFT_texture_dds":{"source":0}}},{"extensions":{"MSFT_texture_dds":{"source":1}}},{"extensions":{"MSFT_texture_dds":{"source":2}}},{"extensions":{"MSFT_texture_dds":{"source":3}}},{"extensions":{"MSFT_texture_dds":{"source":4}}},{"extensions":{"MSFT_texture_dds":{"source":5}}},{"extensions":{"MSFT_texture_dds":{"source":6}}},{"extensions":{"MSFT_texture_dds":{"source":7}}},{"extensions":{"MSFT_texture_dds":{"source":8}}},{"extensions":{"MSFT_texture_dds":{"source":9}}},{"extensions":{"MSFT_texture_dds":{"source":10}}},{"extensions":{"MSFT_texture_dds":{"source":11}}}],"buffers":[{"byteLength":4585856,"uri":"SBPAExpansaoEstacionamento.bin"}],"images":[{"uri":"SBARHISIM8.DDS.DDS","extras":"ASOBO_image_converted_meta"},{"uri":"SBPAEX15A.DDS.DDS","extras":"ASOBO_image_converted_meta"},{"uri":"SBPAEX15_LM.DDS.DDS","extras":"ASOBO_image_converted_meta"},{"uri":"SBPAEXCARROS.DDS.DDS","extras":"ASOBO_image_converted_meta"},{"uri":"SBPAEXCARROS_LM.DDS.DDS","extras":"ASOBO_image_converted_meta"},{"uri":"SBPAEXCERCA2.DDS.DDS","extras":"ASOBO_image_converted_meta"},{"uri":"SBPAEXDIFFUSE.DDS.DDS","extras":"ASOBO_image_converted_meta"},{"uri":"SBPAEX24_LM.DDS.DDS","extras":"ASOBO_image_converted_meta"},{"uri":"SBPAEXESTACIONAMENTOEXTERNO.DDS.DDS","extras":"ASOBO_image_converted_meta"},{"uri":"SBPAESTACIONAMENTOEXTERNO_LM.DDS.DDS","extras":"ASOBO_image_converted_meta"},{"uri":"SBPAHISIMLIGH.DDS.DDS","extras":"ASOBO_image_converted_meta"},{"uri":"SBPAHISIMLIGH_LM.DDS.DDS","extras":"ASOBO_image_converted_meta"}]}
