{"accessors":[{"bufferView":0,"componentType":5126,"count":32,"min":[0.44040998816490176,0.016979999840259553,-0.5728700160980225],"max":[0.5626999735832214,0.11810000240802765,-0.4594799876213074],"type":"VEC3","name":"part000_vertices#0_POSITION"},{"bufferView":0,"byteOffset":12,"componentType":5120,"count":32,"type":"VEC4","name":"part000_vertices#0_TANGENT"},{"bufferView":0,"byteOffset":16,"componentType":5120,"count":32,"type":"VEC4","name":"part000_vertices#0_NORMAL"},{"bufferView":0,"byteOffset":20,"componentType":5122,"count":32,"type":"VEC2","name":"part000_vertices#0_TEXCOORD_0"},{"bufferView":0,"byteOffset":24,"componentType":5122,"count":32,"type":"VEC2","name":"part000_vertices#0_TEXCOORD_1"},{"bufferView":0,"byteOffset":28,"componentType":5123,"count":32,"type":"VEC4","name":"part000_vertices#0_COLOR_0"},{"bufferView":1,"componentType":5123,"count":78,"type":"SCALAR","name":"part000_indices#0"},{"bufferView":0,"byteOffset":1152,"componentType":5126,"count":37,"min":[0.29747000336647036,0.8842099905014038,-0.7509899735450745],"max":[0.7547900080680847,1.528939962387085,-0.3269299864768982],"type":"VEC3","name":"part001_vertices#0_POSITION"},{"bufferView":0,"byteOffset":1164,"componentType":5120,"count":37,"type":"VEC4","name":"part001_vertices#0_TANGENT"},{"bufferView":0,"byteOffset":1168,"componentType":5120,"count":37,"type":"VEC4","name":"part001_vertices#0_NORMAL"},{"bufferView":0,"byteOffset":1172,"componentType":5122,"count":37,"type":"VEC2","name":"part001_vertices#0_TEXCOORD_0"},{"bufferView":0,"byteOffset":1176,"componentType":5122,"count":37,"type":"VEC2","name":"part001_vertices#0_TEXCOORD_1"},{"bufferView":0,"byteOffset":1180,"componentType":5123,"count":37,"type":"VEC4","name":"part001_vertices#0_COLOR_0"},{"bufferView":1,"byteOffset":156,"componentType":5123,"count":93,"type":"SCALAR","name":"part001_indices#0"},{"bufferView":0,"byteOffset":2484,"componentType":5126,"count":88,"min":[0.3000600039958954,0.753849983215332,-0.7429599761962891],"max":[0.7461299896240234,1.7419500350952149,-0.3293299973011017],"type":"VEC3","name":"part002_vertices#0_POSITION"},{"bufferView":0,"byteOffset":2496,"componentType":5120,"count":88,"type":"VEC4","name":"part002_vertices#0_TANGENT"},{"bufferView":0,"byteOffset":2500,"componentType":5120,"count":88,"type":"VEC4","name":"part002_vertices#0_NORMAL"},{"bufferView":0,"byteOffset":2504,"componentType":5122,"count":88,"type":"VEC2","name":"part002_vertices#0_TEXCOORD_0"},{"bufferView":0,"byteOffset":2508,"componentType":5122,"count":88,"type":"VEC2","name":"part002_vertices#0_TEXCOORD_1"},{"bufferView":0,"byteOffset":2512,"componentType":5123,"count":88,"type":"VEC4","name":"part002_vertices#0_COLOR_0"},{"bufferView":1,"byteOffset":342,"componentType":5123,"count":246,"type":"SCALAR","name":"part002_indices#0"},{"bufferView":0,"byteOffset":5652,"componentType":5126,"count":44,"min":[0.419730007648468,1.6017500162124634,-0.5905399918556213],"max":[0.5817599892616272,1.8081400394439698,-0.44029998779296877],"type":"VEC3","name":"part003_vertices#0_POSITION"},{"bufferView":0,"byteOffset":5664,"componentType":5120,"count":44,"type":"VEC4","name":"part003_vertices#0_TANGENT"},{"bufferView":0,"byteOffset":5668,"componentType":5120,"count":44,"type":"VEC4","name":"part003_vertices#0_NORMAL"},{"bufferView":0,"byteOffset":5672,"componentType":5122,"count":44,"type":"VEC2","name":"part003_vertices#0_TEXCOORD_0"},{"bufferView":0,"byteOffset":5676,"componentType":5122,"count":44,"type":"VEC2","name":"part003_vertices#0_TEXCOORD_1"},{"bufferView":0,"byteOffset":5680,"componentType":5123,"count":44,"type":"VEC4","name":"part003_vertices#0_COLOR_0"},{"bufferView":1,"byteOffset":834,"componentType":5123,"count":126,"type":"SCALAR","name":"part003_indices#0"},{"bufferView":0,"byteOffset":7236,"componentType":5126,"count":29,"min":[0.44040998816490176,0.0,-0.5728700160980225],"max":[0.5626999735832214,0.1035199984908104,-0.4594799876213074],"type":"VEC3","name":"part004_vertices#0_POSITION"},{"bufferView":0,"byteOffset":7248,"componentType":5120,"count":29,"type":"VEC4","name":"part004_vertices#0_TANGENT"},{"bufferView":0,"byteOffset":7252,"componentType":5120,"count":29,"type":"VEC4","name":"part004_vertices#0_NORMAL"},{"bufferView":0,"byteOffset":7256,"componentType":5122,"count":29,"type":"VEC2","name":"part004_vertices#0_TEXCOORD_0"},{"bufferView":0,"byteOffset":7260,"componentType":5122,"count":29,"type":"VEC2","name":"part004_vertices#0_TEXCOORD_1"},{"bufferView":0,"byteOffset":7264,"componentType":5123,"count":29,"type":"VEC4","name":"part004_vertices#0_COLOR_0"},{"bufferView":1,"byteOffset":1086,"componentType":5123,"count":78,"type":"SCALAR","name":"part004_indices#0"},{"bufferView":0,"byteOffset":8280,"componentType":5126,"count":38,"min":[0.3831399977207184,0.023169999942183496,-0.6431599855422974],"max":[0.6384999752044678,0.90829998254776,-0.40637001395225527],"type":"VEC3","name":"part005_vertices#0_POSITION"},{"bufferView":0,"byteOffset":8292,"componentType":5120,"count":38,"type":"VEC4","name":"part005_vertices#0_TANGENT"},{"bufferView":0,"byteOffset":8296,"componentType":5120,"count":38,"type":"VEC4","name":"part005_vertices#0_NORMAL"},{"bufferView":0,"byteOffset":8300,"componentType":5122,"count":38,"type":"VEC2","name":"part005_vertices#0_TEXCOORD_0"},{"bufferView":0,"byteOffset":8304,"componentType":5122,"count":38,"type":"VEC2","name":"part005_vertices#0_TEXCOORD_1"},{"bufferView":0,"byteOffset":8308,"componentType":5123,"count":38,"type":"VEC4","name":"part005_vertices#0_COLOR_0"},{"bufferView":1,"byteOffset":1242,"componentType":5123,"count":108,"type":"SCALAR","name":"part005_indices#0"},{"bufferView":0,"byteOffset":9648,"componentType":5126,"count":18,"min":[0.4429900050163269,0.0,-0.5358899831771851],"max":[0.5228099822998047,0.07948999851942063,-0.461870014667511],"type":"VEC3","name":"part006_vertices#0_POSITION"},{"bufferView":0,"byteOffset":9660,"componentType":5120,"count":18,"type":"VEC4","name":"part006_vertices#0_TANGENT"},{"bufferView":0,"byteOffset":9664,"componentType":5120,"count":18,"type":"VEC4","name":"part006_vertices#0_NORMAL"},{"bufferView":0,"byteOffset":9668,"componentType":5122,"count":18,"type":"VEC2","name":"part006_vertices#0_TEXCOORD_0"},{"bufferView":0,"byteOffset":9672,"componentType":5122,"count":18,"type":"VEC2","name":"part006_vertices#0_TEXCOORD_1"},{"bufferView":0,"byteOffset":9676,"componentType":5123,"count":18,"type":"VEC4","name":"part006_vertices#0_COLOR_0"},{"bufferView":1,"byteOffset":1458,"componentType":5123,"count":48,"type":"SCALAR","name":"part006_indices#0"},{"bufferView":0,"byteOffset":10296,"componentType":5126,"count":40,"min":[0.31735000014305117,0.8811399936676025,-0.7305799722671509],"max":[0.7327700257301331,1.5455399751663209,-0.34536999464035036],"type":"VEC3","name":"part007_vertices#0_POSITION"},{"bufferView":0,"byteOffset":10308,"componentType":5120,"count":40,"type":"VEC4","name":"part007_vertices#0_TANGENT"},{"bufferView":0,"byteOffset":10312,"componentType":5120,"count":40,"type":"VEC4","name":"part007_vertices#0_NORMAL"},{"bufferView":0,"byteOffset":10316,"componentType":5122,"count":40,"type":"VEC2","name":"part007_vertices#0_TEXCOORD_0"},{"bufferView":0,"byteOffset":10320,"componentType":5122,"count":40,"type":"VEC2","name":"part007_vertices#0_TEXCOORD_1"},{"bufferView":0,"byteOffset":10324,"componentType":5123,"count":40,"type":"VEC4","name":"part007_vertices#0_COLOR_0"},{"bufferView":1,"byteOffset":1554,"componentType":5123,"count":114,"type":"SCALAR","name":"part007_indices#0"},{"bufferView":0,"byteOffset":11736,"componentType":5126,"count":3529,"min":[-150.0048065185547,0.0,-85.81291198730469],"max":[187.8796844482422,48.223880767822269,193.62396240234376],"type":"VEC3","name":"part008_vertices#0_POSITION"},{"bufferView":0,"byteOffset":11748,"componentType":5120,"count":3529,"type":"VEC4","name":"part008_vertices#0_TANGENT"},{"bufferView":0,"byteOffset":11752,"componentType":5120,"count":3529,"type":"VEC4","name":"part008_vertices#0_NORMAL"},{"bufferView":0,"byteOffset":11756,"componentType":5122,"count":3529,"type":"VEC2","name":"part008_vertices#0_TEXCOORD_0"},{"bufferView":0,"byteOffset":11760,"componentType":5122,"count":3529,"type":"VEC2","name":"part008_vertices#0_TEXCOORD_1"},{"bufferView":0,"byteOffset":11764,"componentType":5123,"count":3529,"type":"VEC4","name":"part008_vertices#0_COLOR_0"},{"bufferView":1,"byteOffset":1782,"componentType":5123,"count":8046,"type":"SCALAR","name":"part008_indices#0"},{"bufferView":0,"byteOffset":138780,"componentType":5126,"count":2807,"min":[-167.47959899902345,0.0,-91.79373931884766],"max":[187.8796844482422,48.223880767822269,193.62396240234376],"type":"VEC3","name":"part009_vertices#0_POSITION"},{"bufferView":0,"byteOffset":138792,"componentType":5120,"count":2807,"type":"VEC4","name":"part009_vertices#0_TANGENT"},{"bufferView":0,"byteOffset":138796,"componentType":5120,"count":2807,"type":"VEC4","name":"part009_vertices#0_NORMAL"},{"bufferView":0,"byteOffset":138800,"componentType":5122,"count":2807,"type":"VEC2","name":"part009_vertices#0_TEXCOORD_0"},{"bufferView":0,"byteOffset":138804,"componentType":5122,"count":2807,"type":"VEC2","name":"part009_vertices#0_TEXCOORD_1"},{"bufferView":0,"byteOffset":138808,"componentType":5123,"count":2807,"type":"VEC4","name":"part009_vertices#0_COLOR_0"},{"bufferView":1,"byteOffset":17874,"componentType":5123,"count":5985,"type":"SCALAR","name":"part009_indices#0"},{"bufferView":0,"byteOffset":239832,"componentType":5126,"count":369,"min":[-167.47959899902345,0.0,-91.79373931884766],"max":[185.75283813476563,48.223880767822269,123.61483764648438],"type":"VEC3","name":"part010_vertices#0_POSITION"},{"bufferView":0,"byteOffset":239844,"componentType":5120,"count":369,"type":"VEC4","name":"part010_vertices#0_TANGENT"},{"bufferView":0,"byteOffset":239848,"componentType":5120,"count":369,"type":"VEC4","name":"part010_vertices#0_NORMAL"},{"bufferView":0,"byteOffset":239852,"componentType":5122,"count":369,"type":"VEC2","name":"part010_vertices#0_TEXCOORD_0"},{"bufferView":0,"byteOffset":239856,"componentType":5122,"count":369,"type":"VEC2","name":"part010_vertices#0_TEXCOORD_1"},{"bufferView":0,"byteOffset":239860,"componentType":5123,"count":369,"type":"VEC4","name":"part010_vertices#0_COLOR_0"},{"bufferView":1,"byteOffset":29844,"componentType":5123,"count":1041,"type":"SCALAR","name":"part010_indices#0"},{"bufferView":0,"byteOffset":253116,"componentType":5126,"count":2707,"min":[-167.47959899902345,0.0,-91.79373931884766],"max":[187.8796844482422,48.223880767822269,193.62396240234376],"type":"VEC3","name":"part011_vertices#0_POSITION"},{"bufferView":0,"byteOffset":253128,"componentType":5120,"count":2707,"type":"VEC4","name":"part011_vertices#0_TANGENT"},{"bufferView":0,"byteOffset":253132,"componentType":5120,"count":2707,"type":"VEC4","name":"part011_vertices#0_NORMAL"},{"bufferView":0,"byteOffset":253136,"componentType":5122,"count":2707,"type":"VEC2","name":"part011_vertices#0_TEXCOORD_0"},{"bufferView":0,"byteOffset":253140,"componentType":5122,"count":2707,"type":"VEC2","name":"part011_vertices#0_TEXCOORD_1"},{"bufferView":0,"byteOffset":253144,"componentType":5123,"count":2707,"type":"VEC4","name":"part011_vertices#0_COLOR_0"},{"bufferView":1,"byteOffset":31926,"componentType":5123,"count":6864,"type":"SCALAR","name":"part011_indices#0"},{"bufferView":0,"byteOffset":350568,"componentType":5126,"count":311,"min":[-55.950870513916019,24.342580795288087,-56.6320686340332],"max":[9.613659858703614,47.90924835205078,-7.1789398193359379],"type":"VEC3","name":"part012_vertices#0_POSITION"},{"bufferView":0,"byteOffset":350580,"componentType":5120,"count":311,"type":"VEC4","name":"part012_vertices#0_TANGENT"},{"bufferView":0,"byteOffset":350584,"componentType":5120,"count":311,"type":"VEC4","name":"part012_vertices#0_NORMAL"},{"bufferView":0,"byteOffset":350588,"componentType":5122,"count":311,"type":"VEC2","name":"part012_vertices#0_TEXCOORD_0"},{"bufferView":0,"byteOffset":350592,"componentType":5122,"count":311,"type":"VEC2","name":"part012_vertices#0_TEXCOORD_1"},{"bufferView":0,"byteOffset":350596,"componentType":5123,"count":311,"type":"VEC4","name":"part012_vertices#0_COLOR_0"},{"bufferView":1,"byteOffset":45654,"componentType":5123,"count":507,"type":"SCALAR","name":"part012_indices#0"},{"bufferView":0,"byteOffset":361764,"componentType":5126,"count":247,"min":[-167.47959899902345,19.677600860595704,-91.79373931884766],"max":[187.64247131347657,33.60382080078125,193.62396240234376],"type":"VEC3","name":"part013_vertices#0_POSITION"},{"bufferView":0,"byteOffset":361776,"componentType":5120,"count":247,"type":"VEC4","name":"part013_vertices#0_TANGENT"},{"bufferView":0,"byteOffset":361780,"componentType":5120,"count":247,"type":"VEC4","name":"part013_vertices#0_NORMAL"},{"bufferView":0,"byteOffset":361784,"componentType":5122,"count":247,"type":"VEC2","name":"part013_vertices#0_TEXCOORD_0"},{"bufferView":0,"byteOffset":361788,"componentType":5122,"count":247,"type":"VEC2","name":"part013_vertices#0_TEXCOORD_1"},{"bufferView":0,"byteOffset":361792,"componentType":5123,"count":247,"type":"VEC4","name":"part013_vertices#0_COLOR_0"},{"bufferView":1,"byteOffset":46668,"componentType":5123,"count":411,"type":"SCALAR","name":"part013_indices#0"}],"asset":{"generator":"ModelConverterX","version":"2.0","extensions":{"ASOBO_asset_optimized":{"BoundingBoxMax":[187.8796844482422,48.223880767822269,193.62396240234376],"BoundingBoxMin":[-167.47959899902345,0.0,-91.79373931884766],"MajorVersion":4,"MinorVersion":2}}},"bufferViews":[{"buffer":0,"byteLength":370656,"byteStride":36,"byteOffset":32,"target":34962,"name":"BufferViewVertexND"},{"buffer":0,"byteLength":47490,"byteOffset":370814,"target":34963,"name":"BufferViewIndex"}],"extensionsUsed":["MSFT_texture_dds","ASOBO_asset_optimized"],"extensionsRequired":["MSFT_texture_dds"],"materials":[{"name":"glTF_Material","doubleSided":true,"pbrMetallicRoughness":{"baseColorFactor":[0.0,0.0,0.0,1.0],"metallicFactor":0.0,"roughnessFactor":0.0}},{"name":"glTF_Materialx","doubleSided":true,"pbrMetallicRoughness":{"baseColorFactor":[0.7215685844421387,0.5254902243614197,0.04313724860548973,1.0],"metallicFactor":0.0,"roughnessFactor":0.0}},{"name":"glTF_Materialxx","doubleSided":true,"pbrMetallicRoughness":{"baseColorFactor":[0.13725489377975465,0.13725489377975465,0.13725489377975465,1.0],"metallicFactor":0.0,"roughnessFactor":0.0}},{"name":"glTF_Materialxxx","doubleSided":true,"pbrMetallicRoughness":{"baseColorFactor":[0.46666669845581057,0.34509798884391787,0.21176469326019288,1.0],"metallicFactor":0.0,"roughnessFactor":0.0}},{"name":"glTF_Materialxxxx","doubleSided":true,"pbrMetallicRoughness":{"baseColorFactor":[0.1411765068769455,0.18431369960308076,0.2588235139846802,1.0],"metallicFactor":0.0,"roughnessFactor":0.0}},{"name":"glTF_Materialxxxxx","doubleSided":true,"pbrMetallicRoughness":{"baseColorFactor":[0.6549019813537598,0.3960784077644348,0.3215686082839966,1.0],"metallicFactor":0.0,"roughnessFactor":0.0}},{"name":"glTF_Materialxxxxxx","doubleSided":true,"pbrMetallicRoughness":{"baseColorFactor":[0.3764705955982208,0.3764705955982208,0.3764705955982208,1.0],"metallicFactor":0.0,"roughnessFactor":0.0}},{"name":"glTF_Materialxxxxxxx","pbrMetallicRoughness":{"baseColorFactor":[0.6000000238418579,0.5372549295425415,0.4784314036369324,1.0],"metallicFactor":0.0,"roughnessFactor":0.0}},{"name":"glTF_Materialxxxxxxxx","pbrMetallicRoughness":{"baseColorFactor":[0.800000011920929,0.7176470756530762,0.4784314036369324,1.0],"metallicFactor":0.0,"roughnessFactor":0.0}},{"name":"glTF_Materialxxxxxxxxx","doubleSided":true,"pbrMetallicRoughness":{"baseColorFactor":[0.800000011920929,0.7176470756530762,0.4784314036369324,1.0],"metallicFactor":0.0,"roughnessFactor":0.0}},{"name":"glTF_Materialxxxxxxxxxx","doubleSided":true,"pbrMetallicRoughness":{"baseColorFactor":[0.8274509906768799,0.7411764860153198,0.5647059082984924,1.0],"metallicFactor":0.0,"roughnessFactor":0.0}},{"name":"glTF_Materialxxxxxxxxxxx","pbrMetallicRoughness":{"baseColorFactor":[0.4784314036369324,0.800000011920929,0.800000011920929,1.0],"metallicFactor":0.0,"roughnessFactor":0.0}},{"name":"glTF_Materialxxxxxxxxxxxx","pbrMetallicRoughness":{"metallicFactor":0.0,"roughnessFactor":0.0,"baseColorTexture":{"index":0}}},{"name":"glTF_Materialxxxxxxxxxxxxx","pbrMetallicRoughness":{"metallicFactor":0.0,"roughnessFactor":0.0,"baseColorTexture":{"index":1}}}],"meshes":[{"primitives":[{"attributes":{"COLOR_0":5,"NORMAL":2,"POSITION":0,"TANGENT":1,"TEXCOORD_0":3,"TEXCOORD_1":4},"indices":6,"material":1,"mode":4,"extras":{"ASOBO_primitive":{"PrimitiveCount":26,"VertexType":"VTX","VertexVersion":2}}}],"name":"part000"},{"primitives":[{"attributes":{"COLOR_0":12,"NORMAL":9,"POSITION":7,"TANGENT":8,"TEXCOORD_0":10,"TEXCOORD_1":11},"indices":13,"material":6,"mode":4,"extras":{"ASOBO_primitive":{"PrimitiveCount":31,"VertexType":"VTX","VertexVersion":2}}}],"name":"part001"},{"primitives":[{"attributes":{"COLOR_0":19,"NORMAL":16,"POSITION":14,"TANGENT":15,"TEXCOORD_0":17,"TEXCOORD_1":18},"indices":20,"material":10,"mode":4,"extras":{"ASOBO_primitive":{"PrimitiveCount":82,"VertexType":"VTX","VertexVersion":2}}}],"name":"part002"},{"primitives":[{"attributes":{"COLOR_0":26,"NORMAL":23,"POSITION":21,"TANGENT":22,"TEXCOORD_0":24,"TEXCOORD_1":25},"indices":27,"material":3,"mode":4,"extras":{"ASOBO_primitive":{"PrimitiveCount":42,"VertexType":"VTX","VertexVersion":2}}}],"name":"part003"},{"primitives":[{"attributes":{"COLOR_0":33,"NORMAL":30,"POSITION":28,"TANGENT":29,"TEXCOORD_0":31,"TEXCOORD_1":32},"indices":34,"material":2,"mode":4,"extras":{"ASOBO_primitive":{"PrimitiveCount":26,"VertexType":"VTX","VertexVersion":2}}}],"name":"part004"},{"primitives":[{"attributes":{"COLOR_0":40,"NORMAL":37,"POSITION":35,"TANGENT":36,"TEXCOORD_0":38,"TEXCOORD_1":39},"indices":41,"material":4,"mode":4,"extras":{"ASOBO_primitive":{"PrimitiveCount":36,"VertexType":"VTX","VertexVersion":2}}}],"name":"part005"},{"primitives":[{"attributes":{"COLOR_0":47,"NORMAL":44,"POSITION":42,"TANGENT":43,"TEXCOORD_0":45,"TEXCOORD_1":46},"indices":48,"material":0,"mode":4,"extras":{"ASOBO_primitive":{"PrimitiveCount":16,"VertexType":"VTX","VertexVersion":2}}}],"name":"part006"},{"primitives":[{"attributes":{"COLOR_0":54,"NORMAL":51,"POSITION":49,"TANGENT":50,"TEXCOORD_0":52,"TEXCOORD_1":53},"indices":55,"material":5,"mode":4,"extras":{"ASOBO_primitive":{"PrimitiveCount":38,"VertexType":"VTX","VertexVersion":2}}}],"name":"part007"},{"primitives":[{"attributes":{"COLOR_0":61,"NORMAL":58,"POSITION":56,"TANGENT":57,"TEXCOORD_0":59,"TEXCOORD_1":60},"indices":62,"material":9,"mode":4,"extras":{"ASOBO_primitive":{"PrimitiveCount":2682,"VertexType":"VTX","VertexVersion":2}}}],"name":"part008"},{"primitives":[{"attributes":{"COLOR_0":68,"NORMAL":65,"POSITION":63,"TANGENT":64,"TEXCOORD_0":66,"TEXCOORD_1":67},"indices":69,"material":12,"mode":4,"extras":{"ASOBO_primitive":{"PrimitiveCount":1995,"VertexType":"VTX","VertexVersion":2}}}],"name":"part009"},{"primitives":[{"attributes":{"COLOR_0":75,"NORMAL":72,"POSITION":70,"TANGENT":71,"TEXCOORD_0":73,"TEXCOORD_1":74},"indices":76,"material":7,"mode":4,"extras":{"ASOBO_primitive":{"PrimitiveCount":347,"VertexType":"VTX","VertexVersion":2}}}],"name":"part010"},{"primitives":[{"attributes":{"COLOR_0":82,"NORMAL":79,"POSITION":77,"TANGENT":78,"TEXCOORD_0":80,"TEXCOORD_1":81},"indices":83,"material":8,"mode":4,"extras":{"ASOBO_primitive":{"PrimitiveCount":2288,"VertexType":"VTX","VertexVersion":2}}}],"name":"part011"},{"primitives":[{"attributes":{"COLOR_0":89,"NORMAL":86,"POSITION":84,"TANGENT":85,"TEXCOORD_0":87,"TEXCOORD_1":88},"indices":90,"material":11,"mode":4,"extras":{"ASOBO_primitive":{"PrimitiveCount":169,"VertexType":"VTX","VertexVersion":2}}}],"name":"part012"},{"primitives":[{"attributes":{"COLOR_0":96,"NORMAL":93,"POSITION":91,"TANGENT":92,"TEXCOORD_0":94,"TEXCOORD_1":95},"indices":97,"material":13,"mode":4,"extras":{"ASOBO_primitive":{"PrimitiveCount":137,"VertexType":"VTX","VertexVersion":2}}}],"name":"part013"}],"nodes":[{"name":"node0","children":[1,2,3,4,5,6,7,8,9,10,11,12,13,14]},{"mesh":0,"name":"node1"},{"mesh":1,"name":"node2"},{"mesh":2,"name":"node3"},{"mesh":3,"name":"node4"},{"mesh":4,"name":"node5"},{"mesh":5,"name":"node6"},{"mesh":6,"name":"node7"},{"mesh":7,"name":"node8"},{"mesh":8,"name":"node9"},{"mesh":9,"name":"node10"},{"mesh":10,"name":"node11"},{"mesh":11,"name":"node12"},{"mesh":12,"name":"node13"},{"mesh":13,"name":"node14"}],"scene":0,"scenes":[{"nodes":[0]}],"textures":[{"extensions":{"MSFT_texture_dds":{"source":0}}},{"extensions":{"MSFT_texture_dds":{"source":1}}}],"buffers":[{"byteLength":418304,"uri":"PonteGuaiba.bin"}],"images":[{"uri":"UNTITLED\\TEXTURE.JPG.DDS","extras":"ASOBO_image_converted_meta"},{"uri":"UNTITLED\\TEXTURE_0.JPG.DDS","extras":"ASOBO_image_converted_meta"}]}
