{"accessors":[{"bufferView":0,"componentType":5126,"count":70,"min":[-19.251510620117189,1.1186699867248536,-16.815319061279298],"max":[11.72428035736084,1.1186800003051758,13.786040306091309],"type":"VEC3","name":"part000_vertices#0_POSITION"},{"bufferView":0,"byteOffset":12,"componentType":5120,"count":70,"type":"VEC4","name":"part000_vertices#0_TANGENT"},{"bufferView":0,"byteOffset":16,"componentType":5120,"count":70,"type":"VEC4","name":"part000_vertices#0_NORMAL"},{"bufferView":0,"byteOffset":20,"componentType":5122,"count":70,"type":"VEC2","name":"part000_vertices#0_TEXCOORD_0"},{"bufferView":0,"byteOffset":24,"componentType":5122,"count":70,"type":"VEC2","name":"part000_vertices#0_TEXCOORD_1"},{"bufferView":0,"byteOffset":28,"componentType":5123,"count":70,"type":"VEC4","name":"part000_vertices#0_COLOR_0"},{"bufferView":1,"componentType":5123,"count":126,"type":"SCALAR","name":"part000_indices#0"},{"bufferView":0,"byteOffset":2520,"componentType":5126,"count":627,"min":[-24.511009216308595,-0.7663699984550476,-26.740270614624025],"max":[16.9837703704834,1.170300006866455,23.710899353027345],"type":"VEC3","name":"part001_vertices#0_POSITION"},{"bufferView":0,"byteOffset":2532,"componentType":5120,"count":627,"type":"VEC4","name":"part001_vertices#0_TANGENT"},{"bufferView":0,"byteOffset":2536,"componentType":5120,"count":627,"type":"VEC4","name":"part001_vertices#0_NORMAL"},{"bufferView":0,"byteOffset":2540,"componentType":5122,"count":627,"type":"VEC2","name":"part001_vertices#0_TEXCOORD_0"},{"bufferView":0,"byteOffset":2544,"componentType":5122,"count":627,"type":"VEC2","name":"part001_vertices#0_TEXCOORD_1"},{"bufferView":0,"byteOffset":2548,"componentType":5123,"count":627,"type":"VEC4","name":"part001_vertices#0_COLOR_0"},{"bufferView":1,"byteOffset":252,"componentType":5123,"count":1041,"type":"SCALAR","name":"part001_indices#0"},{"bufferView":0,"byteOffset":25092,"componentType":5126,"count":63,"min":[-18.752370834350587,-0.824970006942749,-16.322330474853517],"max":[11.225130081176758,0.8186799883842468,10.74944019317627],"type":"VEC3","name":"part002_vertices#0_POSITION"},{"bufferView":0,"byteOffset":25104,"componentType":5120,"count":63,"type":"VEC4","name":"part002_vertices#0_TANGENT"},{"bufferView":0,"byteOffset":25108,"componentType":5120,"count":63,"type":"VEC4","name":"part002_vertices#0_NORMAL"},{"bufferView":0,"byteOffset":25112,"componentType":5122,"count":63,"type":"VEC2","name":"part002_vertices#0_TEXCOORD_0"},{"bufferView":0,"byteOffset":25116,"componentType":5122,"count":63,"type":"VEC2","name":"part002_vertices#0_TEXCOORD_1"},{"bufferView":0,"byteOffset":25120,"componentType":5123,"count":63,"type":"VEC4","name":"part002_vertices#0_COLOR_0"},{"bufferView":1,"byteOffset":2334,"componentType":5123,"count":123,"type":"SCALAR","name":"part002_indices#0"},{"bufferView":0,"byteOffset":27360,"componentType":5126,"count":175,"min":[-18.75235939025879,0.8186699748039246,-16.32221031188965],"max":[11.225130081176758,3.064110040664673,13.292969703674317],"type":"VEC3","name":"part003_vertices#0_POSITION"},{"bufferView":0,"byteOffset":27372,"componentType":5120,"count":175,"type":"VEC4","name":"part003_vertices#0_TANGENT"},{"bufferView":0,"byteOffset":27376,"componentType":5120,"count":175,"type":"VEC4","name":"part003_vertices#0_NORMAL"},{"bufferView":0,"byteOffset":27380,"componentType":5122,"count":175,"type":"VEC2","name":"part003_vertices#0_TEXCOORD_0"},{"bufferView":0,"byteOffset":27384,"componentType":5122,"count":175,"type":"VEC2","name":"part003_vertices#0_TEXCOORD_1"},{"bufferView":0,"byteOffset":27388,"componentType":5123,"count":175,"type":"VEC4","name":"part003_vertices#0_COLOR_0"},{"bufferView":1,"byteOffset":2580,"componentType":5123,"count":291,"type":"SCALAR","name":"part003_indices#0"},{"bufferView":0,"byteOffset":33660,"componentType":5126,"count":879,"min":[-25.30484962463379,-0.824970006942749,-22.80862045288086],"max":[17.777620315551759,13.522489547729493,19.779329299926759],"type":"VEC3","name":"part004_vertices#0_POSITION"},{"bufferView":0,"byteOffset":33672,"componentType":5120,"count":879,"type":"VEC4","name":"part004_vertices#0_TANGENT"},{"bufferView":0,"byteOffset":33676,"componentType":5120,"count":879,"type":"VEC4","name":"part004_vertices#0_NORMAL"},{"bufferView":0,"byteOffset":33680,"componentType":5122,"count":879,"type":"VEC2","name":"part004_vertices#0_TEXCOORD_0"},{"bufferView":0,"byteOffset":33684,"componentType":5122,"count":879,"type":"VEC2","name":"part004_vertices#0_TEXCOORD_1"},{"bufferView":0,"byteOffset":33688,"componentType":5123,"count":879,"type":"VEC4","name":"part004_vertices#0_COLOR_0"},{"bufferView":1,"byteOffset":3162,"componentType":5123,"count":1587,"type":"SCALAR","name":"part004_indices#0"},{"bufferView":0,"byteOffset":65304,"componentType":5126,"count":56,"min":[-8.089300155639649,-0.7663699984550476,-26.740270614624025],"max":[0.5637500286102295,1.1186800003051758,23.710899353027345],"type":"VEC3","name":"part005_vertices#0_POSITION"},{"bufferView":0,"byteOffset":65316,"componentType":5120,"count":56,"type":"VEC4","name":"part005_vertices#0_TANGENT"},{"bufferView":0,"byteOffset":65320,"componentType":5120,"count":56,"type":"VEC4","name":"part005_vertices#0_NORMAL"},{"bufferView":0,"byteOffset":65324,"componentType":5122,"count":56,"type":"VEC2","name":"part005_vertices#0_TEXCOORD_0"},{"bufferView":0,"byteOffset":65328,"componentType":5122,"count":56,"type":"VEC2","name":"part005_vertices#0_TEXCOORD_1"},{"bufferView":0,"byteOffset":65332,"componentType":5123,"count":56,"type":"VEC4","name":"part005_vertices#0_COLOR_0"},{"bufferView":1,"byteOffset":6336,"componentType":5123,"count":102,"type":"SCALAR","name":"part005_indices#0"},{"bufferView":0,"byteOffset":67320,"componentType":5126,"count":8,"min":[-7.775090217590332,1.1186699867248536,-13.326990127563477],"max":[0.24954000115394593,3.0641000270843508,10.297650337219239],"type":"VEC3","name":"part006_vertices#0_POSITION"},{"bufferView":0,"byteOffset":67332,"componentType":5120,"count":8,"type":"VEC4","name":"part006_vertices#0_TANGENT"},{"bufferView":0,"byteOffset":67336,"componentType":5120,"count":8,"type":"VEC4","name":"part006_vertices#0_NORMAL"},{"bufferView":0,"byteOffset":67340,"componentType":5122,"count":8,"type":"VEC2","name":"part006_vertices#0_TEXCOORD_0"},{"bufferView":0,"byteOffset":67344,"componentType":5122,"count":8,"type":"VEC2","name":"part006_vertices#0_TEXCOORD_1"},{"bufferView":0,"byteOffset":67348,"componentType":5123,"count":8,"type":"VEC4","name":"part006_vertices#0_COLOR_0"},{"bufferView":1,"byteOffset":6540,"componentType":5123,"count":12,"type":"SCALAR","name":"part006_indices#0"},{"bufferView":0,"byteOffset":67608,"componentType":5126,"count":8,"min":[-8.089300155639649,0.8186600208282471,-16.413240432739259],"max":[0.5637500286102295,1.1186800003051758,13.383890151977539],"type":"VEC3","name":"part007_vertices#0_POSITION"},{"bufferView":0,"byteOffset":67620,"componentType":5120,"count":8,"type":"VEC4","name":"part007_vertices#0_TANGENT"},{"bufferView":0,"byteOffset":67624,"componentType":5120,"count":8,"type":"VEC4","name":"part007_vertices#0_NORMAL"},{"bufferView":0,"byteOffset":67628,"componentType":5122,"count":8,"type":"VEC2","name":"part007_vertices#0_TEXCOORD_0"},{"bufferView":0,"byteOffset":67632,"componentType":5122,"count":8,"type":"VEC2","name":"part007_vertices#0_TEXCOORD_1"},{"bufferView":0,"byteOffset":67636,"componentType":5123,"count":8,"type":"VEC4","name":"part007_vertices#0_COLOR_0"},{"bufferView":1,"byteOffset":6564,"componentType":5123,"count":12,"type":"SCALAR","name":"part007_indices#0"},{"bufferView":0,"byteOffset":67896,"componentType":5126,"count":8,"min":[-8.089300155639649,0.8186600208282471,-16.413240432739259],"max":[0.5637500286102295,1.1186800003051758,13.383890151977539],"type":"VEC3","name":"part008_vertices#0_POSITION"},{"bufferView":0,"byteOffset":67908,"componentType":5120,"count":8,"type":"VEC4","name":"part008_vertices#0_TANGENT"},{"bufferView":0,"byteOffset":67912,"componentType":5120,"count":8,"type":"VEC4","name":"part008_vertices#0_NORMAL"},{"bufferView":0,"byteOffset":67916,"componentType":5122,"count":8,"type":"VEC2","name":"part008_vertices#0_TEXCOORD_0"},{"bufferView":0,"byteOffset":67920,"componentType":5122,"count":8,"type":"VEC2","name":"part008_vertices#0_TEXCOORD_1"},{"bufferView":0,"byteOffset":67924,"componentType":5123,"count":8,"type":"VEC4","name":"part008_vertices#0_COLOR_0"},{"bufferView":1,"byteOffset":6588,"componentType":5123,"count":12,"type":"SCALAR","name":"part008_indices#0"},{"bufferView":0,"byteOffset":68184,"componentType":5126,"count":7,"min":[-1.1982899904251099,0.8186600208282471,-16.81538963317871],"max":[-1.1965199708938599,1.1186699867248536,-16.815290451049806],"type":"VEC3","name":"part009_vertices#0_POSITION"},{"bufferView":0,"byteOffset":68196,"componentType":5120,"count":7,"type":"VEC4","name":"part009_vertices#0_TANGENT"},{"bufferView":0,"byteOffset":68200,"componentType":5120,"count":7,"type":"VEC4","name":"part009_vertices#0_NORMAL"},{"bufferView":0,"byteOffset":68204,"componentType":5122,"count":7,"type":"VEC2","name":"part009_vertices#0_TEXCOORD_0"},{"bufferView":0,"byteOffset":68208,"componentType":5122,"count":7,"type":"VEC2","name":"part009_vertices#0_TEXCOORD_1"},{"bufferView":0,"byteOffset":68212,"componentType":5123,"count":7,"type":"VEC4","name":"part009_vertices#0_COLOR_0"},{"bufferView":1,"byteOffset":6612,"componentType":5123,"count":9,"type":"SCALAR","name":"part009_indices#0"},{"bufferView":0,"byteOffset":68436,"componentType":5126,"count":1482,"min":[-19.250259399414064,2.938999891281128,-17.190860748291017],"max":[11.723030090332032,12.091509819030762,14.161510467529297],"type":"VEC3","name":"part010_vertices#0_POSITION"},{"bufferView":0,"byteOffset":68448,"componentType":5120,"count":1482,"type":"VEC4","name":"part010_vertices#0_TANGENT"},{"bufferView":0,"byteOffset":68452,"componentType":5120,"count":1482,"type":"VEC4","name":"part010_vertices#0_NORMAL"},{"bufferView":0,"byteOffset":68456,"componentType":5122,"count":1482,"type":"VEC2","name":"part010_vertices#0_TEXCOORD_0"},{"bufferView":0,"byteOffset":68460,"componentType":5122,"count":1482,"type":"VEC2","name":"part010_vertices#0_TEXCOORD_1"},{"bufferView":0,"byteOffset":68464,"componentType":5123,"count":1482,"type":"VEC4","name":"part010_vertices#0_COLOR_0"},{"bufferView":1,"byteOffset":6630,"componentType":5123,"count":2037,"type":"SCALAR","name":"part010_indices#0"},{"bufferView":0,"byteOffset":121788,"componentType":5126,"count":1438,"min":[-19.250259399414064,2.938999891281128,-17.190860748291017],"max":[11.723030090332032,12.091509819030762,14.161510467529297],"type":"VEC3","name":"part011_vertices#0_POSITION"},{"bufferView":0,"byteOffset":121800,"componentType":5120,"count":1438,"type":"VEC4","name":"part011_vertices#0_TANGENT"},{"bufferView":0,"byteOffset":121804,"componentType":5120,"count":1438,"type":"VEC4","name":"part011_vertices#0_NORMAL"},{"bufferView":0,"byteOffset":121808,"componentType":5122,"count":1438,"type":"VEC2","name":"part011_vertices#0_TEXCOORD_0"},{"bufferView":0,"byteOffset":121812,"componentType":5122,"count":1438,"type":"VEC2","name":"part011_vertices#0_TEXCOORD_1"},{"bufferView":0,"byteOffset":121816,"componentType":5123,"count":1438,"type":"VEC4","name":"part011_vertices#0_COLOR_0"},{"bufferView":1,"byteOffset":10704,"componentType":5123,"count":2007,"type":"SCALAR","name":"part011_indices#0"},{"bufferView":0,"byteOffset":173556,"componentType":5126,"count":6,"min":[-7.775090217590332,3.0641000270843508,-13.326959609985352],"max":[0.24954000115394593,3.772480010986328,10.297619819641114],"type":"VEC3","name":"part012_vertices#0_POSITION"},{"bufferView":0,"byteOffset":173568,"componentType":5120,"count":6,"type":"VEC4","name":"part012_vertices#0_TANGENT"},{"bufferView":0,"byteOffset":173572,"componentType":5120,"count":6,"type":"VEC4","name":"part012_vertices#0_NORMAL"},{"bufferView":0,"byteOffset":173576,"componentType":5122,"count":6,"type":"VEC2","name":"part012_vertices#0_TEXCOORD_0"},{"bufferView":0,"byteOffset":173580,"componentType":5122,"count":6,"type":"VEC2","name":"part012_vertices#0_TEXCOORD_1"},{"bufferView":0,"byteOffset":173584,"componentType":5123,"count":6,"type":"VEC4","name":"part012_vertices#0_COLOR_0"},{"bufferView":1,"byteOffset":14718,"componentType":5123,"count":6,"type":"SCALAR","name":"part012_indices#0"},{"bufferView":0,"byteOffset":173772,"componentType":5126,"count":36,"min":[-19.250259399414064,3.314110040664673,-16.03520965576172],"max":[11.723030090332032,4.02249002456665,13.005990028381348],"type":"VEC3","name":"part013_vertices#0_POSITION"},{"bufferView":0,"byteOffset":173784,"componentType":5120,"count":36,"type":"VEC4","name":"part013_vertices#0_TANGENT"},{"bufferView":0,"byteOffset":173788,"componentType":5120,"count":36,"type":"VEC4","name":"part013_vertices#0_NORMAL"},{"bufferView":0,"byteOffset":173792,"componentType":5122,"count":36,"type":"VEC2","name":"part013_vertices#0_TEXCOORD_0"},{"bufferView":0,"byteOffset":173796,"componentType":5122,"count":36,"type":"VEC2","name":"part013_vertices#0_TEXCOORD_1"},{"bufferView":0,"byteOffset":173800,"componentType":5123,"count":36,"type":"VEC4","name":"part013_vertices#0_COLOR_0"},{"bufferView":1,"byteOffset":14730,"componentType":5123,"count":36,"type":"SCALAR","name":"part013_indices#0"},{"bufferView":0,"byteOffset":175068,"componentType":5126,"count":182,"min":[-25.29030990600586,1.0224900245666505,-22.80862045288086],"max":[17.76306915283203,13.522489547729493,19.779329299926759],"type":"VEC3","name":"part014_vertices#0_POSITION"},{"bufferView":0,"byteOffset":175080,"componentType":5120,"count":182,"type":"VEC4","name":"part014_vertices#0_TANGENT"},{"bufferView":0,"byteOffset":175084,"componentType":5120,"count":182,"type":"VEC4","name":"part014_vertices#0_NORMAL"},{"bufferView":0,"byteOffset":175088,"componentType":5122,"count":182,"type":"VEC2","name":"part014_vertices#0_TEXCOORD_0"},{"bufferView":0,"byteOffset":175092,"componentType":5122,"count":182,"type":"VEC2","name":"part014_vertices#0_TEXCOORD_1"},{"bufferView":0,"byteOffset":175096,"componentType":5123,"count":182,"type":"VEC4","name":"part014_vertices#0_COLOR_0"},{"bufferView":1,"byteOffset":14802,"componentType":5123,"count":462,"type":"SCALAR","name":"part014_indices#0"},{"bufferView":0,"byteOffset":181620,"componentType":5126,"count":182,"min":[-25.29030990600586,1.0224900245666505,-22.80862045288086],"max":[17.76306915283203,13.522489547729493,19.779329299926759],"type":"VEC3","name":"part015_vertices#0_POSITION"},{"bufferView":0,"byteOffset":181632,"componentType":5120,"count":182,"type":"VEC4","name":"part015_vertices#0_TANGENT"},{"bufferView":0,"byteOffset":181636,"componentType":5120,"count":182,"type":"VEC4","name":"part015_vertices#0_NORMAL"},{"bufferView":0,"byteOffset":181640,"componentType":5122,"count":182,"type":"VEC2","name":"part015_vertices#0_TEXCOORD_0"},{"bufferView":0,"byteOffset":181644,"componentType":5122,"count":182,"type":"VEC2","name":"part015_vertices#0_TEXCOORD_1"},{"bufferView":0,"byteOffset":181648,"componentType":5123,"count":182,"type":"VEC4","name":"part015_vertices#0_COLOR_0"},{"bufferView":1,"byteOffset":15726,"componentType":5123,"count":462,"type":"SCALAR","name":"part015_indices#0"}],"asset":{"generator":"ModelConverterX","version":"2.0","extensions":{"ASOBO_asset_optimized":{"BoundingBoxMax":[17.777620315551759,13.522489547729493,23.710899353027345],"BoundingBoxMin":[-25.30484962463379,-0.824970006942749,-26.740270614624025],"MajorVersion":4,"MinorVersion":2}}},"bufferViews":[{"buffer":0,"byteLength":188172,"byteStride":36,"byteOffset":116,"target":34962,"name":"BufferViewVertexND"},{"buffer":0,"byteLength":16650,"byteOffset":188406,"target":34963,"name":"BufferViewIndex"}],"extensionsUsed":["MSFT_texture_dds","ASOBO_asset_optimized"],"extensionsRequired":["MSFT_texture_dds"],"materials":[{"name":"glTF_Material","pbrMetallicRoughness":{"baseColorFactor":[0.6705881953239441,0.6901960968971252,0.800000011920929,1.0],"metallicFactor":0.0,"roughnessFactor":0.0}},{"name":"glTF_Materialx","pbrMetallicRoughness":{"metallicFactor":0.0,"roughnessFactor":0.0}},{"name":"glTF_Materialxx","pbrMetallicRoughness":{"metallicFactor":0.0,"roughnessFactor":0.0,"baseColorTexture":{"index":0}}},{"name":"glTF_Materialxxx","pbrMetallicRoughness":{"metallicFactor":0.0,"roughnessFactor":0.0,"baseColorTexture":{"index":1}}},{"name":"glTF_Materialxxxx","doubleSided":true,"pbrMetallicRoughness":{"metallicFactor":0.0,"roughnessFactor":0.0,"baseColorTexture":{"index":2}}},{"name":"glTF_Materialxxxxx","pbrMetallicRoughness":{"metallicFactor":0.0,"roughnessFactor":0.0,"baseColorTexture":{"index":2}}},{"name":"glTF_Materialxxxxxx","doubleSided":true,"pbrMetallicRoughness":{"metallicFactor":0.0,"roughnessFactor":0.0,"baseColorTexture":{"index":3}}},{"name":"glTF_Materialxxxxxxx","pbrMetallicRoughness":{"metallicFactor":0.0,"roughnessFactor":0.0,"baseColorTexture":{"index":3}}},{"name":"glTF_Materialxxxxxxxx","doubleSided":true,"pbrMetallicRoughness":{"metallicFactor":0.0,"roughnessFactor":0.0,"baseColorTexture":{"index":4}}},{"name":"glTF_Materialxxxxxxxxx","pbrMetallicRoughness":{"metallicFactor":0.0,"roughnessFactor":0.0,"baseColorTexture":{"index":4}}},{"name":"glTF_Materialxxxxxxxxxx","doubleSided":true,"pbrMetallicRoughness":{"metallicFactor":0.0,"roughnessFactor":0.0,"baseColorTexture":{"index":5}}},{"name":"glTF_Materialxxxxxxxxxxx","pbrMetallicRoughness":{"metallicFactor":0.0,"roughnessFactor":0.0,"baseColorTexture":{"index":5}}},{"name":"glTF_Materialxxxxxxxxxxxx","doubleSided":true,"pbrMetallicRoughness":{"metallicFactor":0.0,"roughnessFactor":0.0,"baseColorTexture":{"index":6}}},{"name":"glTF_Materialxxxxxxxxxxxxx","doubleSided":true,"pbrMetallicRoughness":{"metallicFactor":0.0,"roughnessFactor":0.0,"baseColorTexture":{"index":7}}},{"name":"glTF_Materialxxxxxxxxxxxxxx","doubleSided":true,"pbrMetallicRoughness":{"metallicFactor":0.0,"roughnessFactor":0.0,"baseColorTexture":{"index":8}}},{"name":"glTF_Materialxxxxxxxxxxxxxxx","doubleSided":true,"pbrMetallicRoughness":{"metallicFactor":0.0,"roughnessFactor":0.0,"baseColorTexture":{"index":9}}}],"meshes":[{"primitives":[{"attributes":{"COLOR_0":5,"NORMAL":2,"POSITION":0,"TANGENT":1,"TEXCOORD_0":3,"TEXCOORD_1":4},"indices":6,"material":12,"mode":4,"extras":{"ASOBO_primitive":{"PrimitiveCount":42,"VertexType":"VTX","VertexVersion":2}}}],"name":"part000"},{"primitives":[{"attributes":{"COLOR_0":12,"NORMAL":9,"POSITION":7,"TANGENT":8,"TEXCOORD_0":10,"TEXCOORD_1":11},"indices":13,"material":6,"mode":4,"extras":{"ASOBO_primitive":{"PrimitiveCount":347,"VertexType":"VTX","VertexVersion":2}}}],"name":"part001"},{"primitives":[{"attributes":{"COLOR_0":19,"NORMAL":16,"POSITION":14,"TANGENT":15,"TEXCOORD_0":17,"TEXCOORD_1":18},"indices":20,"material":10,"mode":4,"extras":{"ASOBO_primitive":{"PrimitiveCount":41,"VertexType":"VTX","VertexVersion":2}}}],"name":"part002"},{"primitives":[{"attributes":{"COLOR_0":26,"NORMAL":23,"POSITION":21,"TANGENT":22,"TEXCOORD_0":24,"TEXCOORD_1":25},"indices":27,"material":13,"mode":4,"extras":{"ASOBO_primitive":{"PrimitiveCount":97,"VertexType":"VTX","VertexVersion":2}}}],"name":"part003"},{"primitives":[{"attributes":{"COLOR_0":33,"NORMAL":30,"POSITION":28,"TANGENT":29,"TEXCOORD_0":31,"TEXCOORD_1":32},"indices":34,"material":8,"mode":4,"extras":{"ASOBO_primitive":{"PrimitiveCount":529,"VertexType":"VTX","VertexVersion":2}}}],"name":"part004"},{"primitives":[{"attributes":{"COLOR_0":40,"NORMAL":37,"POSITION":35,"TANGENT":36,"TEXCOORD_0":38,"TEXCOORD_1":39},"indices":41,"material":14,"mode":4,"extras":{"ASOBO_primitive":{"PrimitiveCount":34,"VertexType":"VTX","VertexVersion":2}}}],"name":"part005"},{"primitives":[{"attributes":{"COLOR_0":47,"NORMAL":44,"POSITION":42,"TANGENT":43,"TEXCOORD_0":45,"TEXCOORD_1":46},"indices":48,"material":15,"mode":4,"extras":{"ASOBO_primitive":{"PrimitiveCount":4,"VertexType":"VTX","VertexVersion":2}}}],"name":"part006"},{"primitives":[{"attributes":{"COLOR_0":54,"NORMAL":51,"POSITION":49,"TANGENT":50,"TEXCOORD_0":52,"TEXCOORD_1":53},"indices":55,"material":0,"mode":4,"extras":{"ASOBO_primitive":{"PrimitiveCount":4,"VertexType":"VTX","VertexVersion":2}}}],"name":"part007"},{"primitives":[{"attributes":{"COLOR_0":61,"NORMAL":58,"POSITION":56,"TANGENT":57,"TEXCOORD_0":59,"TEXCOORD_1":60},"indices":62,"material":1,"mode":4,"extras":{"ASOBO_primitive":{"PrimitiveCount":4,"VertexType":"VTX","VertexVersion":2}}}],"name":"part008"},{"primitives":[{"attributes":{"COLOR_0":68,"NORMAL":65,"POSITION":63,"TANGENT":64,"TEXCOORD_0":66,"TEXCOORD_1":67},"indices":69,"material":4,"mode":4,"extras":{"ASOBO_primitive":{"PrimitiveCount":3,"VertexType":"VTX","VertexVersion":2}}}],"name":"part009"},{"primitives":[{"attributes":{"COLOR_0":75,"NORMAL":72,"POSITION":70,"TANGENT":71,"TEXCOORD_0":73,"TEXCOORD_1":74},"indices":76,"material":2,"mode":4,"extras":{"ASOBO_primitive":{"PrimitiveCount":679,"VertexType":"VTX","VertexVersion":2}}}],"name":"part010"},{"primitives":[{"attributes":{"COLOR_0":82,"NORMAL":79,"POSITION":77,"TANGENT":78,"TEXCOORD_0":80,"TEXCOORD_1":81},"indices":83,"material":3,"mode":4,"extras":{"ASOBO_primitive":{"PrimitiveCount":669,"VertexType":"VTX","VertexVersion":2}}}],"name":"part011"},{"primitives":[{"attributes":{"COLOR_0":89,"NORMAL":86,"POSITION":84,"TANGENT":85,"TEXCOORD_0":87,"TEXCOORD_1":88},"indices":90,"material":7,"mode":4,"extras":{"ASOBO_primitive":{"PrimitiveCount":2,"VertexType":"VTX","VertexVersion":2}}}],"name":"part012"},{"primitives":[{"attributes":{"COLOR_0":96,"NORMAL":93,"POSITION":91,"TANGENT":92,"TEXCOORD_0":94,"TEXCOORD_1":95},"indices":97,"material":5,"mode":4,"extras":{"ASOBO_primitive":{"PrimitiveCount":12,"VertexType":"VTX","VertexVersion":2}}}],"name":"part013"},{"primitives":[{"attributes":{"COLOR_0":103,"NORMAL":100,"POSITION":98,"TANGENT":99,"TEXCOORD_0":101,"TEXCOORD_1":102},"indices":104,"material":9,"mode":4,"extras":{"ASOBO_primitive":{"PrimitiveCount":154,"VertexType":"VTX","VertexVersion":2}}}],"name":"part014"},{"primitives":[{"attributes":{"COLOR_0":110,"NORMAL":107,"POSITION":105,"TANGENT":106,"TEXCOORD_0":108,"TEXCOORD_1":109},"indices":111,"material":11,"mode":4,"extras":{"ASOBO_primitive":{"PrimitiveCount":154,"VertexType":"VTX","VertexVersion":2}}}],"name":"part015"}],"nodes":[{"name":"node0","children":[1,2,3,4,5,6,7,8,9,10,11,12,13,14,15,16]},{"mesh":0,"name":"node1"},{"mesh":1,"name":"node2"},{"mesh":2,"name":"node3"},{"mesh":3,"name":"node4"},{"mesh":4,"name":"node5"},{"mesh":5,"name":"node6"},{"mesh":6,"name":"node7"},{"mesh":7,"name":"node8"},{"mesh":8,"name":"node9"},{"mesh":9,"name":"node10"},{"mesh":10,"name":"node11"},{"mesh":11,"name":"node12"},{"mesh":12,"name":"node13"},{"mesh":13,"name":"node14"},{"mesh":14,"name":"node15"},{"mesh":15,"name":"node16"}],"scene":0,"scenes":[{"nodes":[0]}],"textures":[{"extensions":{"MSFT_texture_dds":{"source":0}}},{"extensions":{"MSFT_texture_dds":{"source":1}}},{"extensions":{"MSFT_texture_dds":{"source":2}}},{"extensions":{"MSFT_texture_dds":{"source":3}}},{"extensions":{"MSFT_texture_dds":{"source":4}}},{"extensions":{"MSFT_texture_dds":{"source":5}}},{"extensions":{"MSFT_texture_dds":{"source":6}}},{"extensions":{"MSFT_texture_dds":{"source":7}}},{"extensions":{"MSFT_texture_dds":{"source":8}}},{"extensions":{"MSFT_texture_dds":{"source":9}}}],"buffers":[{"byteLength":205056,"uri":"Planetario.bin"}],"images":[{"uri":"UNTITLED\\TEXTURE.JPG.DDS","extras":"ASOBO_image_converted_meta"},{"uri":"UNTITLED\\TEXTURE_0.JPG.DDS","extras":"ASOBO_image_converted_meta"},{"uri":"UNTITLED\\TEXTURE_1.PNG.DDS","extras":"ASOBO_image_converted_meta"},{"uri":"UNTITLED\\TEXTURE_2.JPG.DDS","extras":"ASOBO_image_converted_meta"},{"uri":"UNTITLED\\TEXTURE_3.JPG.DDS","extras":"ASOBO_image_converted_meta"},{"uri":"UNTITLED\\TEXTURE_4.PNG.DDS","extras":"ASOBO_image_converted_meta"},{"uri":"UNTITLED\\TEXTURE_5.PNG.DDS","extras":"ASOBO_image_converted_meta"},{"uri":"UNTITLED\\TEXTURE_6.PNG.DDS","extras":"ASOBO_image_converted_meta"},{"uri":"UNTITLED\\TEXTURE_7.JPG.DDS","extras":"ASOBO_image_converted_meta"},{"uri":"UNTITLED\\TEXTURE_8.PNG.DDS","extras":"ASOBO_image_converted_meta"}]}
