{
  "asset": {
    "version": "2.0",
    "generator": "ModelConverterX"
  },
  "extensionsUsed": [],
  "scene": 0,
  "scenes": [
    {
      "nodes": [
        0
      ]
    }
  ],
  "nodes": [
    {
      "name": "node0",
      "children": [
        1
      ]
    },
    {
      "name": "node1",
      "mesh": 0
    }
  ],
  "meshes": [
    {
      "primitives": [
        {
          "attributes": {
            "POSITION": 0,
            "NORMAL": 1,
            "TEXCOORD_0": 2
          },
          "indices": 3,
          "mode": 4,
          "material": 0
        }
      ],
      "name": "part000"
    }
  ],
  "accessors": [
    {
      "bufferView": 1,
      "byteOffset": 0,
      "componentType": 5126,
      "count": 240,
      "type": "VEC3",
      "min": [
        -3.10102,
        -0.02528,
        -3.32144
      ],
      "max": [
        0.79222,
        1.55847,
        3.33163
      ]
    },
    {
      "bufferView": 2,
      "byteOffset": 0,
      "componentType": 5126,
      "count": 240,
      "type": "VEC3"
    },
    {
      "bufferView": 3,
      "byteOffset": 0,
      "componentType": 5126,
      "count": 240,
      "type": "VEC2"
    },
    {
      "bufferView": 0,
      "byteOffset": 0,
      "componentType": 5125,
      "count": 432,
      "type": "SCALAR"
    }
  ],
  "materials": [
    {
      "pbrMetallicRoughness": {
        "baseColorFactor": [
          1.0,
          1.0,
          1.0,
          1.0
        ],
        "roughnessFactor": 0.0,
        "metallicFactor": 0.0,
        "baseColorTexture": {
          "index": 0
        }
      },
      "emissiveFactor": [
        0.0,
        0.0,
        0.0
      ],
      "emissiveTexture": {
        "index": 1
      }
    }
  ],
  "textures": [
    {
      "source": 0,
      "name": "containers_4_line"
    },
    {
      "source": 1,
      "name": "containers_4_line_lit"
    }
  ],
  "images": [
    {
      "uri": "containers_4_line.png"
    },
    {
      "uri": "containers_4_line_lit.png"
    }
  ],
  "bufferViews": [
    {
      "buffer": 0,
      "byteOffset": 0,
      "byteLength": 1728
    },
    {
      "buffer": 0,
      "byteOffset": 1728,
      "byteLength": 2880
    },
    {
      "buffer": 0,
      "byteOffset": 4608,
      "byteLength": 2880
    },
    {
      "buffer": 0,
      "byteOffset": 7488,
      "byteLength": 1920
    }
  ],
  "buffers": [
    {
      "byteLength": 9408,
      "uri": "CONTAINERS_4_GROUP.bin"
    }
  ]
}