{
  "asset": {
    "version": "2.0",
    "generator": "ModelConverterX"
  },
  "extensionsUsed": [],
  "scene": 0,
  "scenes": [
    {
      "nodes": [
        0
      ]
    }
  ],
  "nodes": [
    {
      "name": "node0",
      "children": [
        1
      ]
    },
    {
      "name": "node1",
      "mesh": 0
    }
  ],
  "meshes": [
    {
      "primitives": [
        {
          "attributes": {
            "POSITION": 0,
            "NORMAL": 1,
            "TEXCOORD_0": 2
          },
          "indices": 3,
          "mode": 4,
          "material": 0
        }
      ],
      "name": "part000"
    }
  ],
  "accessors": [
    {
      "bufferView": 1,
      "byteOffset": 0,
      "componentType": 5126,
      "count": 1085,
      "type": "VEC3",
      "min": [
        -190.5919,
        -4.49159,
        -344.84286
      ],
      "max": [
        189.29527,
        25.68298,
        244.91765
      ]
    },
    {
      "bufferView": 2,
      "byteOffset": 0,
      "componentType": 5126,
      "count": 1085,
      "type": "VEC3"
    },
    {
      "bufferView": 3,
      "byteOffset": 0,
      "componentType": 5126,
      "count": 1085,
      "type": "VEC2"
    },
    {
      "bufferView": 0,
      "byteOffset": 0,
      "componentType": 5125,
      "count": 2313,
      "type": "SCALAR"
    }
  ],
  "materials": [
    {
      "pbrMetallicRoughness": {
        "baseColorFactor": [
          1.0,
          1.0,
          1.0,
          1.0
        ],
        "roughnessFactor": 1.0,
        "metallicFactor": 0.0,
        "baseColorTexture": {
          "index": 0
        }
      },
      "emissiveFactor": [
        1.0,
        1.0,
        1.0
      ],
      "emissiveTexture": {
        "index": 1
      }
    }
  ],
  "textures": [
    {
      "source": 0,
      "name": "central_dist"
    },
    {
      "source": 1,
      "name": "central_dist_lit"
    }
  ],
  "images": [
    {
      "uri": "central_dist.png"
    },
    {
      "uri": "central_dist_lit.png"
    }
  ],
  "bufferViews": [
    {
      "buffer": 0,
      "byteOffset": 0,
      "byteLength": 9252
    },
    {
      "buffer": 0,
      "byteOffset": 9252,
      "byteLength": 13020
    },
    {
      "buffer": 0,
      "byteOffset": 22272,
      "byteLength": 13020
    },
    {
      "buffer": 0,
      "byteOffset": 35292,
      "byteLength": 8680
    }
  ],
  "buffers": [
    {
      "byteLength": 43972,
      "uri": "CENTRAL_DIST.bin"
    }
  ]
}