{
  "asset": {
    "version": "2.0",
    "generator": "ModelConverterX"
  },
  "extensionsUsed": [],
  "scene": 0,
  "scenes": [
    {
      "nodes": [
        0
      ]
    }
  ],
  "nodes": [
    {
      "name": "node0",
      "children": [
        1
      ]
    },
    {
      "name": "node1",
      "mesh": 0
    }
  ],
  "meshes": [
    {
      "primitives": [
        {
          "attributes": {
            "POSITION": 0,
            "NORMAL": 1,
            "TEXCOORD_0": 2
          },
          "indices": 3,
          "mode": 4,
          "material": 0
        }
      ],
      "name": "part000"
    }
  ],
  "accessors": [
    {
      "bufferView": 1,
      "byteOffset": 0,
      "componentType": 5126,
      "count": 140,
      "type": "VEC3",
      "min": [
        20.58907,
        0.03357,
        -42.99374
      ],
      "max": [
        75.36366,
        6.28339,
        -7.37184
      ]
    },
    {
      "bufferView": 2,
      "byteOffset": 0,
      "componentType": 5126,
      "count": 140,
      "type": "VEC3"
    },
    {
      "bufferView": 3,
      "byteOffset": 0,
      "componentType": 5126,
      "count": 140,
      "type": "VEC2"
    },
    {
      "bufferView": 0,
      "byteOffset": 0,
      "componentType": 5125,
      "count": 318,
      "type": "SCALAR"
    }
  ],
  "materials": [
    {
      "pbrMetallicRoughness": {
        "baseColorFactor": [
          1.0,
          1.0,
          1.0,
          1.0
        ],
        "roughnessFactor": 0.0,
        "metallicFactor": 0.0,
        "baseColorTexture": {
          "index": 0
        }
      },
      "emissiveFactor": [
        0.0,
        0.0,
        0.0
      ],
      "emissiveTexture": {
        "index": 1
      }
    }
  ],
  "textures": [
    {
      "source": 0,
      "name": "smallgalpao"
    },
    {
      "source": 1,
      "name": "smallgalpao_lit"
    }
  ],
  "images": [
    {
      "uri": "smallgalpao.png"
    },
    {
      "uri": "smallgalpao_lit.png"
    }
  ],
  "bufferViews": [
    {
      "buffer": 0,
      "byteOffset": 0,
      "byteLength": 1272
    },
    {
      "buffer": 0,
      "byteOffset": 1272,
      "byteLength": 1680
    },
    {
      "buffer": 0,
      "byteOffset": 2952,
      "byteLength": 1680
    },
    {
      "buffer": 0,
      "byteOffset": 4632,
      "byteLength": 1120
    }
  ],
  "buffers": [
    {
      "byteLength": 5752,
      "uri": "SmallGalpao.bin"
    }
  ]
}