{
  "asset": {
    "version": "2.0",
    "generator": "ModelConverterX"
  },
  "extensionsUsed": [],
  "scene": 0,
  "scenes": [
    {
      "nodes": [
        0
      ]
    }
  ],
  "nodes": [
    {
      "name": "node0",
      "children": [
        1,
        2,
        3,
        4,
        5,
        6,
        7,
        8,
        9,
        10,
        11,
        12,
        13
      ]
    },
    {
      "name": "node1",
      "mesh": 0
    },
    {
      "name": "node2",
      "matrix": [
        1.0,
        0.0,
        0.0,
        18.94102097,
        0.0,
        1.0,
        0.0,
        14.83439445,
        0.0,
        0.0,
        1.0,
        46.97644043,
        0.0,
        0.0,
        0.0,
        1.0
      ]
    },
    {
      "name": "node3",
      "matrix": [
        1.0,
        0.0,
        0.0,
        -26.34121704,
        0.0,
        1.0,
        0.0,
        15.52736187,
        0.0,
        0.0,
        1.0,
        47.27534866,
        0.0,
        0.0,
        0.0,
        1.0
      ]
    },
    {
      "name": "node4",
      "matrix": [
        1.0,
        0.0,
        0.0,
        -68.68553162,
        0.0,
        1.0,
        0.0,
        13.94895363,
        0.0,
        0.0,
        1.0,
        47.42340851,
        0.0,
        0.0,
        0.0,
        1.0
      ]
    },
    {
      "name": "node5",
      "matrix": [
        1.0,
        0.0,
        0.0,
        -83.33127594,
        0.0,
        1.0,
        0.0,
        4.34965086,
        0.0,
        0.0,
        1.0,
        40.25592804,
        0.0,
        0.0,
        0.0,
        1.0
      ]
    },
    {
      "name": "node6",
      "matrix": [
        1.0,
        0.0,
        0.0,
        163.0642395,
        0.0,
        1.0,
        0.0,
        9.7285471,
        0.0,
        0.0,
        1.0,
        29.69880295,
        0.0,
        0.0,
        0.0,
        1.0
      ]
    },
    {
      "name": "node7",
      "matrix": [
        1.0,
        0.0,
        0.0,
        114.29694366,
        0.0,
        1.0,
        0.0,
        9.77057934,
        0.0,
        0.0,
        1.0,
        29.46107101,
        0.0,
        0.0,
        0.0,
        1.0
      ]
    },
    {
      "name": "node8",
      "matrix": [
        1.0,
        0.0,
        0.0,
        73.97944641,
        0.0,
        1.0,
        0.0,
        9.77057743,
        0.0,
        0.0,
        1.0,
        29.46107864,
        0.0,
        0.0,
        0.0,
        1.0
      ]
    },
    {
      "name": "node9",
      "matrix": [
        1.0,
        0.0,
        0.0,
        -110.46712494,
        0.0,
        1.0,
        0.0,
        0.63458586,
        0.0,
        0.0,
        1.0,
        5.8093853,
        0.0,
        0.0,
        0.0,
        1.0
      ]
    },
    {
      "name": "node10",
      "matrix": [
        1.0,
        0.0,
        0.0,
        -84.70810699,
        0.0,
        1.0,
        0.0,
        0.63458586,
        0.0,
        0.0,
        1.0,
        18.84618378,
        0.0,
        0.0,
        0.0,
        1.0
      ]
    },
    {
      "name": "node11",
      "matrix": [
        1.0,
        0.0,
        0.0,
        -50.59440994,
        0.0,
        1.0,
        0.0,
        4.34965038,
        0.0,
        0.0,
        1.0,
        39.67651367,
        0.0,
        0.0,
        0.0,
        1.0
      ]
    },
    {
      "name": "node12",
      "matrix": [
        1.0,
        0.0,
        0.0,
        -12.93254662,
        0.0,
        1.0,
        0.0,
        4.34965038,
        0.0,
        0.0,
        1.0,
        39.19366837,
        0.0,
        0.0,
        0.0,
        1.0
      ]
    },
    {
      "name": "node13",
      "matrix": [
        1.0,
        0.0,
        0.0,
        31.00629807,
        0.0,
        1.0,
        0.0,
        4.34965038,
        0.0,
        0.0,
        1.0,
        38.22797775,
        0.0,
        0.0,
        0.0,
        1.0
      ]
    }
  ],
  "meshes": [
    {
      "primitives": [
        {
          "attributes": {
            "POSITION": 0,
            "NORMAL": 1,
            "TEXCOORD_0": 2
          },
          "indices": 3,
          "mode": 4,
          "material": 0
        }
      ],
      "name": "part000"
    }
  ],
  "accessors": [
    {
      "bufferView": 1,
      "byteOffset": 0,
      "componentType": 5126,
      "count": 1175,
      "type": "VEC3",
      "min": [
        -123.93421,
        -0.16711,
        -41.10941
      ],
      "max": [
        180.52951,
        22.50112,
        53.91368
      ]
    },
    {
      "bufferView": 2,
      "byteOffset": 0,
      "componentType": 5126,
      "count": 1175,
      "type": "VEC3"
    },
    {
      "bufferView": 3,
      "byteOffset": 0,
      "componentType": 5126,
      "count": 1175,
      "type": "VEC2"
    },
    {
      "bufferView": 0,
      "byteOffset": 0,
      "componentType": 5125,
      "count": 1815,
      "type": "SCALAR"
    }
  ],
  "materials": [
    {
      "pbrMetallicRoughness": {
        "baseColorFactor": [
          1.0,
          1.0,
          1.0,
          1.0
        ],
        "roughnessFactor": 1.0,
        "metallicFactor": 0.0,
        "baseColorTexture": {
          "index": 0
        }
      },
      "emissiveFactor": [
        1.0,
        1.0,
        1.0
      ],
      "emissiveTexture": {
        "index": 1
      }
    }
  ],
  "textures": [
    {
      "source": 0,
      "name": "term_novo"
    },
    {
      "source": 1,
      "name": "term_novo_lit"
    }
  ],
  "images": [
    {
      "uri": "term_novo.png"
    },
    {
      "uri": "term_novo_lit.png"
    }
  ],
  "bufferViews": [
    {
      "buffer": 0,
      "byteOffset": 0,
      "byteLength": 7260
    },
    {
      "buffer": 0,
      "byteOffset": 7260,
      "byteLength": 14100
    },
    {
      "buffer": 0,
      "byteOffset": 21360,
      "byteLength": 14100
    },
    {
      "buffer": 0,
      "byteOffset": 35460,
      "byteLength": 9400
    }
  ],
  "buffers": [
    {
      "byteLength": 44860,
      "uri": "TERM_NOVO.bin"
    }
  ]
}