{
  "asset": {
    "version": "2.0",
    "generator": "ModelConverterX"
  },
  "extensionsUsed": [],
  "scene": 0,
  "scenes": [
    {
      "nodes": [
        0
      ]
    }
  ],
  "nodes": [
    {
      "name": "node0",
      "children": [
        1
      ]
    },
    {
      "name": "node1",
      "mesh": 0
    }
  ],
  "meshes": [
    {
      "primitives": [
        {
          "attributes": {
            "POSITION": 0,
            "NORMAL": 1,
            "TEXCOORD_0": 2
          },
          "indices": 3,
          "mode": 4,
          "material": 0
        }
      ],
      "name": "part000"
    }
  ],
  "accessors": [
    {
      "bufferView": 1,
      "byteOffset": 0,
      "componentType": 5126,
      "count": 3795,
      "type": "VEC3",
      "min": [
        -48.27991,
        0.25705,
        -48.27991
      ],
      "max": [
        48.27991,
        31.21724,
        48.27991
      ]
    },
    {
      "bufferView": 2,
      "byteOffset": 0,
      "componentType": 5126,
      "count": 3795,
      "type": "VEC3"
    },
    {
      "bufferView": 3,
      "byteOffset": 0,
      "componentType": 5126,
      "count": 3795,
      "type": "VEC2"
    },
    {
      "bufferView": 0,
      "byteOffset": 0,
      "componentType": 5125,
      "count": 7212,
      "type": "SCALAR"
    }
  ],
  "materials": [
    {
      "pbrMetallicRoughness": {
        "baseColorFactor": [
          1.0,
          1.0,
          1.0,
          1.0
        ],
        "roughnessFactor": 1.0,
        "metallicFactor": 0.0,
        "baseColorTexture": {
          "index": 0
        }
      },
      "emissiveFactor": [
        1.0,
        1.0,
        1.0
      ],
      "emissiveTexture": {
        "index": 1
      }
    }
  ],
  "textures": [
    {
      "source": 0,
      "name": "parkstexture"
    },
    {
      "source": 1,
      "name": "parksnight"
    }
  ],
  "images": [
    {
      "uri": "parkstexture.png"
    },
    {
      "uri": "parksnight.png"
    }
  ],
  "bufferViews": [
    {
      "buffer": 0,
      "byteOffset": 0,
      "byteLength": 28848
    },
    {
      "buffer": 0,
      "byteOffset": 28848,
      "byteLength": 45540
    },
    {
      "buffer": 0,
      "byteOffset": 74388,
      "byteLength": 45540
    },
    {
      "buffer": 0,
      "byteOffset": 119928,
      "byteLength": 30360
    }
  ],
  "buffers": [
    {
      "byteLength": 150288,
      "uri": "PARKING_REDO.bin"
    }
  ]
}