{"accessors":[{"bufferView":0,"componentType":5126,"count":8,"min":[-0.000019999999494757504,-0.009999999776482582,-13.86320972442627],"max":[260.69342041015627,0.0,478.7385559082031],"type":"VEC3","name":"part000_vertices#0_POSITION"},{"bufferView":0,"byteOffset":12,"componentType":5120,"count":8,"type":"VEC4","name":"part000_vertices#0_TANGENT"},{"bufferView":0,"byteOffset":16,"componentType":5120,"count":8,"type":"VEC4","name":"part000_vertices#0_NORMAL"},{"bufferView":0,"byteOffset":20,"componentType":5122,"count":8,"type":"VEC2","name":"part000_vertices#0_TEXCOORD_0"},{"bufferView":0,"byteOffset":24,"componentType":5122,"count":8,"type":"VEC2","name":"part000_vertices#0_TEXCOORD_1"},{"bufferView":0,"byteOffset":28,"componentType":5123,"count":8,"type":"VEC4","name":"part000_vertices#0_COLOR_0"},{"bufferView":1,"componentType":5123,"count":12,"type":"SCALAR","name":"part000_indices#0"},{"bufferView":0,"byteOffset":288,"componentType":5126,"count":8,"min":[-0.000019999999494757504,-0.009999999776482582,-13.86320972442627],"max":[260.69342041015627,0.0,478.7385559082031],"type":"VEC3","name":"part001_vertices#0_POSITION"},{"bufferView":0,"byteOffset":300,"componentType":5120,"count":8,"type":"VEC4","name":"part001_vertices#0_TANGENT"},{"bufferView":0,"byteOffset":304,"componentType":5120,"count":8,"type":"VEC4","name":"part001_vertices#0_NORMAL"},{"bufferView":0,"byteOffset":308,"componentType":5122,"count":8,"type":"VEC2","name":"part001_vertices#0_TEXCOORD_0"},{"bufferView":0,"byteOffset":312,"componentType":5122,"count":8,"type":"VEC2","name":"part001_vertices#0_TEXCOORD_1"},{"bufferView":0,"byteOffset":316,"componentType":5123,"count":8,"type":"VEC4","name":"part001_vertices#0_COLOR_0"},{"bufferView":1,"byteOffset":24,"componentType":5123,"count":12,"type":"SCALAR","name":"part001_indices#0"},{"bufferView":0,"byteOffset":576,"componentType":5126,"count":5088,"min":[-0.000019999999494757504,-0.25710999965667727,-13.86320972442627],"max":[260.69342041015627,12.0,478.7385559082031],"type":"VEC3","name":"part002_vertices#0_POSITION"},{"bufferView":0,"byteOffset":588,"componentType":5120,"count":5088,"type":"VEC4","name":"part002_vertices#0_TANGENT"},{"bufferView":0,"byteOffset":592,"componentType":5120,"count":5088,"type":"VEC4","name":"part002_vertices#0_NORMAL"},{"bufferView":0,"byteOffset":596,"componentType":5122,"count":5088,"type":"VEC2","name":"part002_vertices#0_TEXCOORD_0"},{"bufferView":0,"byteOffset":600,"componentType":5122,"count":5088,"type":"VEC2","name":"part002_vertices#0_TEXCOORD_1"},{"bufferView":0,"byteOffset":604,"componentType":5123,"count":5088,"type":"VEC4","name":"part002_vertices#0_COLOR_0"},{"bufferView":1,"byteOffset":48,"componentType":5123,"count":7896,"type":"SCALAR","name":"part002_indices#0"},{"bufferView":0,"byteOffset":183744,"componentType":5126,"count":116,"min":[28.796749114990236,4.0,379.89801025390627],"max":[175.4525146484375,4.0,473.60247802734377],"type":"VEC3","name":"part003_vertices#0_POSITION"},{"bufferView":0,"byteOffset":183756,"componentType":5120,"count":116,"type":"VEC4","name":"part003_vertices#0_TANGENT"},{"bufferView":0,"byteOffset":183760,"componentType":5120,"count":116,"type":"VEC4","name":"part003_vertices#0_NORMAL"},{"bufferView":0,"byteOffset":183764,"componentType":5122,"count":116,"type":"VEC2","name":"part003_vertices#0_TEXCOORD_0"},{"bufferView":0,"byteOffset":183768,"componentType":5122,"count":116,"type":"VEC2","name":"part003_vertices#0_TEXCOORD_1"},{"bufferView":0,"byteOffset":183772,"componentType":5123,"count":116,"type":"VEC4","name":"part003_vertices#0_COLOR_0"},{"bufferView":1,"byteOffset":15840,"componentType":5123,"count":300,"type":"SCALAR","name":"part003_indices#0"},{"bufferView":0,"byteOffset":187920,"componentType":5126,"count":15,"min":[27.594860076904298,0.0,20.50786018371582],"max":[236.5979461669922,0.0,374.9858093261719],"type":"VEC3","name":"part004_vertices#0_POSITION"},{"bufferView":0,"byteOffset":187932,"componentType":5120,"count":15,"type":"VEC4","name":"part004_vertices#0_TANGENT"},{"bufferView":0,"byteOffset":187936,"componentType":5120,"count":15,"type":"VEC4","name":"part004_vertices#0_NORMAL"},{"bufferView":0,"byteOffset":187940,"componentType":5122,"count":15,"type":"VEC2","name":"part004_vertices#0_TEXCOORD_0"},{"bufferView":0,"byteOffset":187944,"componentType":5122,"count":15,"type":"VEC2","name":"part004_vertices#0_TEXCOORD_1"},{"bufferView":0,"byteOffset":187948,"componentType":5123,"count":15,"type":"VEC4","name":"part004_vertices#0_COLOR_0"},{"bufferView":1,"byteOffset":16440,"componentType":5123,"count":39,"type":"SCALAR","name":"part004_indices#0"},{"bufferView":0,"byteOffset":188460,"componentType":5126,"count":15,"min":[27.594860076904298,0.0,20.50786018371582],"max":[236.5979461669922,0.0,374.9858093261719],"type":"VEC3","name":"part005_vertices#0_POSITION"},{"bufferView":0,"byteOffset":188472,"componentType":5120,"count":15,"type":"VEC4","name":"part005_vertices#0_TANGENT"},{"bufferView":0,"byteOffset":188476,"componentType":5120,"count":15,"type":"VEC4","name":"part005_vertices#0_NORMAL"},{"bufferView":0,"byteOffset":188480,"componentType":5122,"count":15,"type":"VEC2","name":"part005_vertices#0_TEXCOORD_0"},{"bufferView":0,"byteOffset":188484,"componentType":5122,"count":15,"type":"VEC2","name":"part005_vertices#0_TEXCOORD_1"},{"bufferView":0,"byteOffset":188488,"componentType":5123,"count":15,"type":"VEC4","name":"part005_vertices#0_COLOR_0"},{"bufferView":1,"byteOffset":16518,"componentType":5123,"count":39,"type":"SCALAR","name":"part005_indices#0"}],"asset":{"generator":"ModelConverterX","version":"2.0","extensions":{"ASOBO_asset_optimized":{"BoundingBoxMax":[260.69342041015627,12.0,478.7385559082031],"BoundingBoxMin":[-0.000019999999494757504,-0.25710999965667727,-13.86320972442627],"MajorVersion":4,"MinorVersion":2}}},"bufferViews":[{"buffer":0,"byteLength":189000,"byteStride":36,"byteOffset":56,"target":34962,"name":"BufferViewVertexND"},{"buffer":0,"byteLength":16596,"byteOffset":189100,"target":34963,"name":"BufferViewIndex"}],"extensionsUsed":["MSFT_texture_dds","ASOBO_asset_optimized"],"extensionsRequired":["MSFT_texture_dds"],"materials":[{"name":"glTF_Material","pbrMetallicRoughness":{"baseColorFactor":[0.6705881953239441,0.6901960968971252,0.800000011920929,1.0],"metallicFactor":0.0,"roughnessFactor":0.0}},{"name":"glTF_Materialx","pbrMetallicRoughness":{"metallicFactor":0.0,"roughnessFactor":0.0}},{"name":"glTF_Materialxx","pbrMetallicRoughness":{"metallicFactor":0.0,"roughnessFactor":0.0,"baseColorTexture":{"index":0}}},{"name":"glTF_Materialxxx","doubleSided":true,"pbrMetallicRoughness":{"metallicFactor":0.0,"roughnessFactor":0.0,"baseColorTexture":{"index":0}}},{"name":"glTF_Materialxxxx","doubleSided":true,"pbrMetallicRoughness":{"metallicFactor":0.0,"roughnessFactor":0.0,"baseColorTexture":{"index":1}}},{"name":"glTF_Materialxxxxx","doubleSided":true,"pbrMetallicRoughness":{"metallicFactor":0.0,"roughnessFactor":0.0,"baseColorTexture":{"index":2}}}],"meshes":[{"primitives":[{"attributes":{"COLOR_0":5,"NORMAL":2,"POSITION":0,"TANGENT":1,"TEXCOORD_0":3,"TEXCOORD_1":4},"indices":6,"material":4,"mode":4,"extras":{"ASOBO_primitive":{"PrimitiveCount":4,"VertexType":"VTX","VertexVersion":2}}}],"name":"part000"},{"primitives":[{"attributes":{"COLOR_0":12,"NORMAL":9,"POSITION":7,"TANGENT":8,"TEXCOORD_0":10,"TEXCOORD_1":11},"indices":13,"material":5,"mode":4,"extras":{"ASOBO_primitive":{"PrimitiveCount":4,"VertexType":"VTX","VertexVersion":2}}}],"name":"part001"},{"primitives":[{"attributes":{"COLOR_0":19,"NORMAL":16,"POSITION":14,"TANGENT":15,"TEXCOORD_0":17,"TEXCOORD_1":18},"indices":20,"material":3,"mode":4,"extras":{"ASOBO_primitive":{"PrimitiveCount":2632,"VertexType":"VTX","VertexVersion":2}}}],"name":"part002"},{"primitives":[{"attributes":{"COLOR_0":26,"NORMAL":23,"POSITION":21,"TANGENT":22,"TEXCOORD_0":24,"TEXCOORD_1":25},"indices":27,"material":2,"mode":4,"extras":{"ASOBO_primitive":{"PrimitiveCount":100,"VertexType":"VTX","VertexVersion":2}}}],"name":"part003"},{"primitives":[{"attributes":{"COLOR_0":33,"NORMAL":30,"POSITION":28,"TANGENT":29,"TEXCOORD_0":31,"TEXCOORD_1":32},"indices":34,"material":0,"mode":4,"extras":{"ASOBO_primitive":{"PrimitiveCount":13,"VertexType":"VTX","VertexVersion":2}}}],"name":"part004"},{"primitives":[{"attributes":{"COLOR_0":40,"NORMAL":37,"POSITION":35,"TANGENT":36,"TEXCOORD_0":38,"TEXCOORD_1":39},"indices":41,"material":1,"mode":4,"extras":{"ASOBO_primitive":{"PrimitiveCount":13,"VertexType":"VTX","VertexVersion":2}}}],"name":"part005"}],"nodes":[{"name":"node0","children":[1,2,3,4,5,6]},{"mesh":0,"name":"node1"},{"mesh":1,"name":"node2"},{"mesh":2,"name":"node3"},{"mesh":3,"name":"node4"},{"mesh":4,"name":"node5"},{"mesh":5,"name":"node6"}],"scene":0,"scenes":[{"nodes":[0]}],"textures":[{"extensions":{"MSFT_texture_dds":{"source":0}}},{"extensions":{"MSFT_texture_dds":{"source":1}}},{"extensions":{"MSFT_texture_dds":{"source":2}}}],"buffers":[{"byteLength":205696,"uri":"Big.bin"}],"images":[{"uri":"UNTITLED\\TEXTURE.JPG.DDS","extras":"ASOBO_image_converted_meta"},{"uri":"UNTITLED\\TEXTURE_0.JPG.DDS","extras":"ASOBO_image_converted_meta"},{"uri":"UNTITLED\\TEXTURE_1.JPG.DDS","extras":"ASOBO_image_converted_meta"}]}
