{
  "asset": {
    "version": "2.0",
    "generator": "ModelConverterX"
  },
  "extensionsUsed": [],
  "scene": 0,
  "scenes": [
    {
      "nodes": [
        0
      ]
    }
  ],
  "nodes": [
    {
      "name": "node0",
      "children": [
        1
      ]
    },
    {
      "name": "node1",
      "mesh": 0
    }
  ],
  "meshes": [
    {
      "primitives": [
        {
          "attributes": {
            "POSITION": 0,
            "NORMAL": 1,
            "TEXCOORD_0": 2
          },
          "indices": 3,
          "mode": 4,
          "material": 0
        }
      ],
      "name": "part000"
    }
  ],
  "accessors": [
    {
      "bufferView": 1,
      "byteOffset": 0,
      "componentType": 5126,
      "count": 266,
      "type": "VEC3",
      "min": [
        -88.66644,
        0.08688,
        -9.2105
      ],
      "max": [
        74.33162,
        9.07935,
        47.17364
      ]
    },
    {
      "bufferView": 2,
      "byteOffset": 0,
      "componentType": 5126,
      "count": 266,
      "type": "VEC3"
    },
    {
      "bufferView": 3,
      "byteOffset": 0,
      "componentType": 5126,
      "count": 266,
      "type": "VEC2"
    },
    {
      "bufferView": 0,
      "byteOffset": 0,
      "componentType": 5125,
      "count": 666,
      "type": "SCALAR"
    }
  ],
  "materials": [
    {
      "pbrMetallicRoughness": {
        "baseColorFactor": [
          1.0,
          1.0,
          1.0,
          1.0
        ],
        "roughnessFactor": 1.0,
        "metallicFactor": 0.0,
        "baseColorTexture": {
          "index": 0
        }
      },
      "emissiveFactor": [
        1.0,
        1.0,
        1.0
      ],
      "emissiveTexture": {
        "index": 1
      }
    }
  ],
  "textures": [
    {
      "source": 0,
      "name": "biggalpao"
    },
    {
      "source": 1,
      "name": "biggalpao_lit"
    }
  ],
  "images": [
    {
      "uri": "biggalpao.png"
    },
    {
      "uri": "biggalpao_lit.png"
    }
  ],
  "bufferViews": [
    {
      "buffer": 0,
      "byteOffset": 0,
      "byteLength": 2664
    },
    {
      "buffer": 0,
      "byteOffset": 2664,
      "byteLength": 3192
    },
    {
      "buffer": 0,
      "byteOffset": 5856,
      "byteLength": 3192
    },
    {
      "buffer": 0,
      "byteOffset": 9048,
      "byteLength": 2128
    }
  ],
  "buffers": [
    {
      "byteLength": 11176,
      "uri": "BigGalpao.bin"
    }
  ]
}