{"accessors":[{"bufferView":0,"componentType":5126,"count":1376,"min":[0.023800000548362733,-0.10021000355482102,-2.5543301105499269],"max":[13.455499649047852,7.139500141143799,2.4783101081848146],"type":"VEC3","name":"part000_vertices#0_POSITION"},{"bufferView":0,"byteOffset":12,"componentType":5120,"count":1376,"type":"VEC4","name":"part000_vertices#0_TANGENT"},{"bufferView":0,"byteOffset":16,"componentType":5120,"count":1376,"type":"VEC4","name":"part000_vertices#0_NORMAL"},{"bufferView":0,"byteOffset":20,"componentType":5122,"count":1376,"type":"VEC2","name":"part000_vertices#0_TEXCOORD_0"},{"bufferView":0,"byteOffset":24,"componentType":5122,"count":1376,"type":"VEC2","name":"part000_vertices#0_TEXCOORD_1"},{"bufferView":0,"byteOffset":28,"componentType":5123,"count":1376,"type":"VEC4","name":"part000_vertices#0_COLOR_0"},{"bufferView":1,"componentType":5123,"count":2442,"type":"SCALAR","name":"part000_indices#0"}],"asset":{"generator":"ModelConverterX","version":"2.0","extensions":{"ASOBO_asset_optimized":{"BoundingBoxMax":[13.455499649047852,7.139500141143799,2.4783101081848146],"BoundingBoxMin":[0.023800000548362733,-0.10021000355482102,-2.5543301105499269],"MajorVersion":4,"MinorVersion":2}}},"bufferViews":[{"buffer":0,"byteLength":49536,"byteStride":36,"target":34962,"name":"BufferViewVertexND"},{"buffer":0,"byteLength":4884,"byteOffset":49644,"target":34963,"name":"BufferViewIndex"}],"extensionsUsed":["ASOBO_macro_light","MSFT_texture_dds","ASOBO_asset_optimized"],"extensionsRequired":["MSFT_texture_dds"],"materials":[{"name":"glTF_Material","doubleSided":true,"emissiveTexture":{"index":1},"pbrMetallicRoughness":{"metallicFactor":0.0,"roughnessFactor":0.0,"baseColorTexture":{"index":0}}}],"meshes":[{"primitives":[{"attributes":{"COLOR_0":5,"NORMAL":2,"POSITION":0,"TANGENT":1,"TEXCOORD_0":3,"TEXCOORD_1":4},"indices":6,"material":0,"mode":4,"extras":{"ASOBO_primitive":{"PrimitiveCount":814,"VertexType":"VTX","VertexVersion":2}}}],"name":"part000"}],"nodes":[{"name":"node0","children":[1]},{"name":"node1","children":[2,3,4,5,6]},{"mesh":0,"name":"node2"},{"translation":[11.87831116,7.0434618,-1.61309516],"rotation":[0.0,0.0,0.0,1.0],"scale":[1.0,1.0,1.0],"extensions":{"ASOBO_macro_light":{"color":[1.0,1.0,1.0],"cone_angle":360.0,"day_night_cycle":true,"flash_duration":0.0,"flash_frequency":0.0,"flash_phase":0.0,"has_simmetry":true,"intensity":150,"rotation_speed":0.0}},"name":"node3"},{"translation":[11.87831116,7.0434618,1.50622141],"rotation":[0.0,0.0,0.0,1.0],"scale":[1.0,1.0,1.0],"extensions":{"ASOBO_macro_light":{"color":[1.0,1.0,1.0],"cone_angle":360.0,"day_night_cycle":true,"flash_duration":0.0,"flash_frequency":0.0,"flash_phase":0.0,"has_simmetry":true,"intensity":150,"rotation_speed":0.0}},"name":"node4"},{"translation":[11.85416126,7.05111122,-1.61554003],"rotation":[0.0,0.0,0.0,1.0],"scale":[1.0,1.0,1.0],"extensions":{"ASOBO_macro_light":{"color":[1.0,1.0,1.0],"cone_angle":360.0,"day_night_cycle":true,"flash_duration":0.0,"flash_frequency":0.0,"flash_phase":0.0,"has_simmetry":true,"intensity":150,"rotation_speed":0.0}},"name":"node5"},{"translation":[11.85125732,7.05111122,1.51141393],"rotation":[0.0,0.0,0.0,1.0],"scale":[1.0,1.0,1.0],"extensions":{"ASOBO_macro_light":{"color":[1.0,1.0,1.0],"cone_angle":360.0,"day_night_cycle":true,"flash_duration":0.0,"flash_frequency":0.0,"flash_phase":0.0,"has_simmetry":true,"intensity":150,"rotation_speed":0.0}},"name":"node6"}],"scene":0,"scenes":[{"nodes":[0]}],"textures":[{"extensions":{"MSFT_texture_dds":{"source":0}}},{"extensions":{"MSFT_texture_dds":{"source":1}}}],"buffers":[{"byteLength":54528,"uri":"HEAD2.bin"}],"images":[{"uri":"HEAD2.PNG.DDS","extras":"ASOBO_image_converted_meta"},{"uri":"HEAD2_LIT.PNG.DDS","extras":"ASOBO_image_converted_meta"}]}
