{
  "asset": {
    "version": "2.0",
    "generator": "ModelConverterX"
  },
  "extensionsUsed": [],
  "scene": 0,
  "scenes": [
    {
      "nodes": [
        0
      ]
    }
  ],
  "nodes": [
    {
      "name": "node0",
      "children": [
        1,
        2,
        3,
        4,
        5,
        6,
        7
      ]
    },
    {
      "name": "node1",
      "mesh": 0
    },
    {
      "name": "node2",
      "matrix": [
        1.0,
        0.0,
        0.0,
        -58.15092468,
        0.0,
        1.0,
        0.0,
        3.82984638,
        0.0,
        0.0,
        1.0,
        45.42771149,
        0.0,
        0.0,
        0.0,
        1.0
      ]
    },
    {
      "name": "node3",
      "matrix": [
        1.0,
        0.0,
        0.0,
        -39.73138428,
        0.0,
        1.0,
        0.0,
        3.82984638,
        0.0,
        0.0,
        1.0,
        45.42771149,
        0.0,
        0.0,
        0.0,
        1.0
      ]
    },
    {
      "name": "node4",
      "matrix": [
        1.0,
        0.0,
        0.0,
        -22.10640335,
        0.0,
        1.0,
        0.0,
        3.82984638,
        0.0,
        0.0,
        1.0,
        45.42771149,
        0.0,
        0.0,
        0.0,
        1.0
      ]
    },
    {
      "name": "node5",
      "matrix": [
        1.0,
        0.0,
        0.0,
        2.88639641,
        0.0,
        1.0,
        0.0,
        3.82984638,
        0.0,
        0.0,
        1.0,
        45.42771149,
        0.0,
        0.0,
        0.0,
        1.0
      ]
    },
    {
      "name": "node6",
      "matrix": [
        1.0,
        0.0,
        0.0,
        23.40071487,
        0.0,
        1.0,
        0.0,
        3.82984638,
        0.0,
        0.0,
        1.0,
        45.42771149,
        0.0,
        0.0,
        0.0,
        1.0
      ]
    },
    {
      "name": "node7",
      "matrix": [
        1.0,
        0.0,
        0.0,
        42.97599411,
        0.0,
        1.0,
        0.0,
        3.95190477,
        0.0,
        0.0,
        1.0,
        45.42771149,
        0.0,
        0.0,
        0.0,
        1.0
      ]
    }
  ],
  "meshes": [
    {
      "primitives": [
        {
          "attributes": {
            "POSITION": 0,
            "NORMAL": 1,
            "TEXCOORD_0": 2
          },
          "indices": 3,
          "mode": 4,
          "material": 0
        }
      ],
      "name": "part000"
    }
  ],
  "accessors": [
    {
      "bufferView": 1,
      "byteOffset": 0,
      "componentType": 5126,
      "count": 8639,
      "type": "VEC3",
      "min": [
        -108.51291,
        -0.75854,
        -52.69328
      ],
      "max": [
        115.78048,
        27.52542,
        55.84148
      ]
    },
    {
      "bufferView": 2,
      "byteOffset": 0,
      "componentType": 5126,
      "count": 8639,
      "type": "VEC3"
    },
    {
      "bufferView": 3,
      "byteOffset": 0,
      "componentType": 5126,
      "count": 8639,
      "type": "VEC2"
    },
    {
      "bufferView": 0,
      "byteOffset": 0,
      "componentType": 5125,
      "count": 16518,
      "type": "SCALAR"
    }
  ],
  "materials": [
    {
      "pbrMetallicRoughness": {
        "baseColorFactor": [
          1.0,
          1.0,
          1.0,
          1.0
        ],
        "roughnessFactor": 1.0,
        "metallicFactor": 0.0,
        "baseColorTexture": {
          "index": 0
        }
      },
      "emissiveFactor": [
        1.0,
        1.0,
        1.0
      ],
      "emissiveTexture": {
        "index": 1
      }
    }
  ],
  "textures": [
    {
      "source": 0,
      "name": "terminal_redo"
    },
    {
      "source": 1,
      "name": "terminal_redo_lit"
    }
  ],
  "images": [
    {
      "uri": "terminal_redo.png"
    },
    {
      "uri": "terminal_redo_lit.png"
    }
  ],
  "bufferViews": [
    {
      "buffer": 0,
      "byteOffset": 0,
      "byteLength": 66072
    },
    {
      "buffer": 0,
      "byteOffset": 66072,
      "byteLength": 103668
    },
    {
      "buffer": 0,
      "byteOffset": 169740,
      "byteLength": 103668
    },
    {
      "buffer": 0,
      "byteOffset": 273408,
      "byteLength": 69112
    }
  ],
  "buffers": [
    {
      "byteLength": 342520,
      "uri": "TERMINAL_REDO.bin"
    }
  ]
}