{"accessors":[{"bufferView":0,"componentType":5126,"count":116,"min":[-26.40860939025879,-0.22506999969482423,-13.658499717712403],"max":[35.43899154663086,57.97121047973633,16.374500274658204],"type":"VEC3","name":"part000_vertices#0_POSITION"},{"bufferView":0,"byteOffset":12,"componentType":5120,"count":116,"type":"VEC4","name":"part000_vertices#0_TANGENT"},{"bufferView":0,"byteOffset":16,"componentType":5120,"count":116,"type":"VEC4","name":"part000_vertices#0_NORMAL"},{"bufferView":0,"byteOffset":20,"componentType":5122,"count":116,"type":"VEC2","name":"part000_vertices#0_TEXCOORD_0"},{"bufferView":0,"byteOffset":24,"componentType":5122,"count":116,"type":"VEC2","name":"part000_vertices#0_TEXCOORD_1"},{"bufferView":0,"byteOffset":28,"componentType":5123,"count":116,"type":"VEC4","name":"part000_vertices#0_COLOR_0"},{"bufferView":1,"componentType":5123,"count":258,"type":"SCALAR","name":"part000_indices#0"},{"bufferView":0,"byteOffset":4176,"componentType":5126,"count":24,"min":[-26.40860939025879,0.0,-11.603500366210938],"max":[36.5784912109375,57.97121047973633,16.374500274658204],"type":"VEC3","name":"part001_vertices#0_POSITION"},{"bufferView":0,"byteOffset":4188,"componentType":5120,"count":24,"type":"VEC4","name":"part001_vertices#0_TANGENT"},{"bufferView":0,"byteOffset":4192,"componentType":5120,"count":24,"type":"VEC4","name":"part001_vertices#0_NORMAL"},{"bufferView":0,"byteOffset":4196,"componentType":5122,"count":24,"type":"VEC2","name":"part001_vertices#0_TEXCOORD_0"},{"bufferView":0,"byteOffset":4200,"componentType":5122,"count":24,"type":"VEC2","name":"part001_vertices#0_TEXCOORD_1"},{"bufferView":0,"byteOffset":4204,"componentType":5123,"count":24,"type":"VEC4","name":"part001_vertices#0_COLOR_0"},{"bufferView":1,"byteOffset":516,"componentType":5123,"count":36,"type":"SCALAR","name":"part001_indices#0"},{"bufferView":0,"byteOffset":5040,"componentType":5126,"count":78,"min":[-27.762710571289064,-0.383650004863739,-13.658499717712403],"max":[35.43899154663086,57.97121047973633,14.647600173950196],"type":"VEC3","name":"part002_vertices#0_POSITION"},{"bufferView":0,"byteOffset":5052,"componentType":5120,"count":78,"type":"VEC4","name":"part002_vertices#0_TANGENT"},{"bufferView":0,"byteOffset":5056,"componentType":5120,"count":78,"type":"VEC4","name":"part002_vertices#0_NORMAL"},{"bufferView":0,"byteOffset":5060,"componentType":5122,"count":78,"type":"VEC2","name":"part002_vertices#0_TEXCOORD_0"},{"bufferView":0,"byteOffset":5064,"componentType":5122,"count":78,"type":"VEC2","name":"part002_vertices#0_TEXCOORD_1"},{"bufferView":0,"byteOffset":5068,"componentType":5123,"count":78,"type":"VEC4","name":"part002_vertices#0_COLOR_0"},{"bufferView":1,"byteOffset":588,"componentType":5123,"count":108,"type":"SCALAR","name":"part002_indices#0"},{"bufferView":0,"byteOffset":7848,"componentType":5126,"count":116,"min":[-26.243200302124025,-0.22506999969482423,-11.603500366210938],"max":[35.43899154663086,57.97121047973633,16.181699752807618],"type":"VEC3","name":"part003_vertices#0_POSITION"},{"bufferView":0,"byteOffset":7860,"componentType":5120,"count":116,"type":"VEC4","name":"part003_vertices#0_TANGENT"},{"bufferView":0,"byteOffset":7864,"componentType":5120,"count":116,"type":"VEC4","name":"part003_vertices#0_NORMAL"},{"bufferView":0,"byteOffset":7868,"componentType":5122,"count":116,"type":"VEC2","name":"part003_vertices#0_TEXCOORD_0"},{"bufferView":0,"byteOffset":7872,"componentType":5122,"count":116,"type":"VEC2","name":"part003_vertices#0_TEXCOORD_1"},{"bufferView":0,"byteOffset":7876,"componentType":5123,"count":116,"type":"VEC4","name":"part003_vertices#0_COLOR_0"},{"bufferView":1,"byteOffset":804,"componentType":5123,"count":174,"type":"SCALAR","name":"part003_indices#0"}],"asset":{"generator":"ModelConverterX","version":"2.0","extensions":{"ASOBO_asset_optimized":{"BoundingBoxMax":[36.5784912109375,57.97121047973633,16.374500274658204],"BoundingBoxMin":[-27.762710571289064,-0.383650004863739,-13.658499717712403],"MajorVersion":4,"MinorVersion":2}}},"bufferViews":[{"buffer":0,"byteLength":12024,"byteStride":36,"byteOffset":8,"target":34962,"name":"BufferViewVertexND"},{"buffer":0,"byteLength":1152,"byteOffset":12032,"target":34963,"name":"BufferViewIndex"}],"extensionsUsed":["MSFT_texture_dds","ASOBO_asset_optimized"],"extensionsRequired":["MSFT_texture_dds"],"materials":[{"name":"glTF_Material","doubleSided":true,"pbrMetallicRoughness":{"metallicFactor":0.0,"roughnessFactor":0.0,"baseColorTexture":{"index":0}}},{"name":"glTF_Materialx","doubleSided":true,"pbrMetallicRoughness":{"metallicFactor":0.0,"roughnessFactor":0.0,"baseColorTexture":{"index":1}}},{"name":"glTF_Materialxx","doubleSided":true,"pbrMetallicRoughness":{"metallicFactor":0.0,"roughnessFactor":0.0,"baseColorTexture":{"index":2}}},{"name":"glTF_Materialxxx","doubleSided":true,"pbrMetallicRoughness":{"metallicFactor":0.0,"roughnessFactor":0.0,"baseColorTexture":{"index":3}}}],"meshes":[{"primitives":[{"attributes":{"COLOR_0":5,"NORMAL":2,"POSITION":0,"TANGENT":1,"TEXCOORD_0":3,"TEXCOORD_1":4},"indices":6,"material":0,"mode":4,"extras":{"ASOBO_primitive":{"PrimitiveCount":86,"VertexType":"VTX","VertexVersion":2}}}],"name":"part000"},{"primitives":[{"attributes":{"COLOR_0":12,"NORMAL":9,"POSITION":7,"TANGENT":8,"TEXCOORD_0":10,"TEXCOORD_1":11},"indices":13,"material":3,"mode":4,"extras":{"ASOBO_primitive":{"PrimitiveCount":12,"VertexType":"VTX","VertexVersion":2}}}],"name":"part001"},{"primitives":[{"attributes":{"COLOR_0":19,"NORMAL":16,"POSITION":14,"TANGENT":15,"TEXCOORD_0":17,"TEXCOORD_1":18},"indices":20,"material":2,"mode":4,"extras":{"ASOBO_primitive":{"PrimitiveCount":36,"VertexType":"VTX","VertexVersion":2}}}],"name":"part002"},{"primitives":[{"attributes":{"COLOR_0":26,"NORMAL":23,"POSITION":21,"TANGENT":22,"TEXCOORD_0":24,"TEXCOORD_1":25},"indices":27,"material":1,"mode":4,"extras":{"ASOBO_primitive":{"PrimitiveCount":58,"VertexType":"VTX","VertexVersion":2}}}],"name":"part003"}],"nodes":[{"name":"node0","children":[1,2,3,4]},{"mesh":0,"name":"node1"},{"mesh":1,"name":"node2"},{"mesh":2,"name":"node3"},{"mesh":3,"name":"node4"}],"scene":0,"scenes":[{"nodes":[0]}],"textures":[{"extensions":{"MSFT_texture_dds":{"source":0}}},{"extensions":{"MSFT_texture_dds":{"source":1}}},{"extensions":{"MSFT_texture_dds":{"source":2}}},{"extensions":{"MSFT_texture_dds":{"source":3}}}],"buffers":[{"byteLength":13184,"uri":"TecnoPUC.bin"}],"images":[{"uri":"UNTITLED\\TEXTURE.JPG.DDS","extras":"ASOBO_image_converted_meta"},{"uri":"UNTITLED\\TEXTURE_0.JPG.DDS","extras":"ASOBO_image_converted_meta"},{"uri":"UNTITLED\\TEXTURE_1.JPG.DDS","extras":"ASOBO_image_converted_meta"},{"uri":"UNTITLED\\TEXTURE_2.JPG.DDS","extras":"ASOBO_image_converted_meta"}]}
