{"accessors":[{"bufferView":0,"componentType":5126,"count":125,"min":[-191.735595703125,-0.012609999626874924,-596.1065063476563],"max":[330.3866882324219,2.6002299785614015,-452.0177001953125],"type":"VEC3","name":"part000_vertices#0_POSITION"},{"bufferView":0,"byteOffset":12,"componentType":5120,"count":125,"type":"VEC4","name":"part000_vertices#0_TANGENT"},{"bufferView":0,"byteOffset":16,"componentType":5120,"count":125,"type":"VEC4","name":"part000_vertices#0_NORMAL"},{"bufferView":0,"byteOffset":20,"componentType":5122,"count":125,"type":"VEC2","name":"part000_vertices#0_TEXCOORD_0"},{"bufferView":0,"byteOffset":24,"componentType":5122,"count":125,"type":"VEC2","name":"part000_vertices#0_TEXCOORD_1"},{"bufferView":0,"byteOffset":28,"componentType":5123,"count":125,"type":"VEC4","name":"part000_vertices#0_COLOR_0"},{"bufferView":1,"componentType":5123,"count":201,"type":"SCALAR","name":"part000_indices#0"},{"bufferView":0,"byteOffset":4500,"componentType":5126,"count":180,"min":[-79.8011474609375,-0.010160000063478947,-539.8665161132813],"max":[-0.8807799816131592,8.96912956237793,-454.7943115234375],"type":"VEC3","name":"part001_vertices#0_POSITION"},{"bufferView":0,"byteOffset":4512,"componentType":5120,"count":180,"type":"VEC4","name":"part001_vertices#0_TANGENT"},{"bufferView":0,"byteOffset":4516,"componentType":5120,"count":180,"type":"VEC4","name":"part001_vertices#0_NORMAL"},{"bufferView":0,"byteOffset":4520,"componentType":5122,"count":180,"type":"VEC2","name":"part001_vertices#0_TEXCOORD_0"},{"bufferView":0,"byteOffset":4524,"componentType":5122,"count":180,"type":"VEC2","name":"part001_vertices#0_TEXCOORD_1"},{"bufferView":0,"byteOffset":4528,"componentType":5123,"count":180,"type":"VEC4","name":"part001_vertices#0_COLOR_0"},{"bufferView":1,"byteOffset":402,"componentType":5123,"count":324,"type":"SCALAR","name":"part001_indices#0"},{"bufferView":0,"byteOffset":10980,"componentType":5126,"count":271,"min":[-86.54617309570313,0.05471999943256378,-530.1469116210938],"max":[-4.338819980621338,10.35099983215332,-448.9032897949219],"type":"VEC3","name":"part002_vertices#0_POSITION"},{"bufferView":0,"byteOffset":10992,"componentType":5120,"count":271,"type":"VEC4","name":"part002_vertices#0_TANGENT"},{"bufferView":0,"byteOffset":10996,"componentType":5120,"count":271,"type":"VEC4","name":"part002_vertices#0_NORMAL"},{"bufferView":0,"byteOffset":11000,"componentType":5122,"count":271,"type":"VEC2","name":"part002_vertices#0_TEXCOORD_0"},{"bufferView":0,"byteOffset":11004,"componentType":5122,"count":271,"type":"VEC2","name":"part002_vertices#0_TEXCOORD_1"},{"bufferView":0,"byteOffset":11008,"componentType":5123,"count":271,"type":"VEC4","name":"part002_vertices#0_COLOR_0"},{"bufferView":1,"byteOffset":1050,"componentType":5123,"count":549,"type":"SCALAR","name":"part002_indices#0"},{"bufferView":0,"byteOffset":20736,"componentType":5126,"count":122,"min":[-86.54617309570313,0.05471999943256378,-530.1469116210938],"max":[-4.338819980621338,10.176429748535157,-507.9544982910156],"type":"VEC3","name":"part003_vertices#0_POSITION"},{"bufferView":0,"byteOffset":20748,"componentType":5120,"count":122,"type":"VEC4","name":"part003_vertices#0_TANGENT"},{"bufferView":0,"byteOffset":20752,"componentType":5120,"count":122,"type":"VEC4","name":"part003_vertices#0_NORMAL"},{"bufferView":0,"byteOffset":20756,"componentType":5122,"count":122,"type":"VEC2","name":"part003_vertices#0_TEXCOORD_0"},{"bufferView":0,"byteOffset":20760,"componentType":5122,"count":122,"type":"VEC2","name":"part003_vertices#0_TEXCOORD_1"},{"bufferView":0,"byteOffset":20764,"componentType":5123,"count":122,"type":"VEC4","name":"part003_vertices#0_COLOR_0"},{"bufferView":1,"byteOffset":2148,"componentType":5123,"count":222,"type":"SCALAR","name":"part003_indices#0"},{"bufferView":0,"byteOffset":25128,"componentType":5126,"count":124,"min":[268.0292053222656,-0.012600000016391278,-571.2138061523438],"max":[325.28741455078127,14.71741008758545,-462.6589050292969],"type":"VEC3","name":"part004_vertices#0_POSITION"},{"bufferView":0,"byteOffset":25140,"componentType":5120,"count":124,"type":"VEC4","name":"part004_vertices#0_TANGENT"},{"bufferView":0,"byteOffset":25144,"componentType":5120,"count":124,"type":"VEC4","name":"part004_vertices#0_NORMAL"},{"bufferView":0,"byteOffset":25148,"componentType":5122,"count":124,"type":"VEC2","name":"part004_vertices#0_TEXCOORD_0"},{"bufferView":0,"byteOffset":25152,"componentType":5122,"count":124,"type":"VEC2","name":"part004_vertices#0_TEXCOORD_1"},{"bufferView":0,"byteOffset":25156,"componentType":5123,"count":124,"type":"VEC4","name":"part004_vertices#0_COLOR_0"},{"bufferView":1,"byteOffset":2592,"componentType":5123,"count":288,"type":"SCALAR","name":"part004_indices#0"},{"bufferView":0,"byteOffset":29592,"componentType":5126,"count":283,"min":[272.71978759765627,-0.015309999696910382,-524.5474853515625],"max":[325.28741455078127,14.71741008758545,-462.65899658203127],"type":"VEC3","name":"part005_vertices#0_POSITION"},{"bufferView":0,"byteOffset":29604,"componentType":5120,"count":283,"type":"VEC4","name":"part005_vertices#0_TANGENT"},{"bufferView":0,"byteOffset":29608,"componentType":5120,"count":283,"type":"VEC4","name":"part005_vertices#0_NORMAL"},{"bufferView":0,"byteOffset":29612,"componentType":5122,"count":283,"type":"VEC2","name":"part005_vertices#0_TEXCOORD_0"},{"bufferView":0,"byteOffset":29616,"componentType":5122,"count":283,"type":"VEC2","name":"part005_vertices#0_TEXCOORD_1"},{"bufferView":0,"byteOffset":29620,"componentType":5123,"count":283,"type":"VEC4","name":"part005_vertices#0_COLOR_0"},{"bufferView":1,"byteOffset":3168,"componentType":5123,"count":543,"type":"SCALAR","name":"part005_indices#0"},{"bufferView":0,"byteOffset":39780,"componentType":5126,"count":71,"min":[-84.5887680053711,0.0,-486.7062072753906],"max":[-24.268390655517579,10.35099983215332,-451.1918029785156],"type":"VEC3","name":"part006_vertices#0_POSITION"},{"bufferView":0,"byteOffset":39792,"componentType":5120,"count":71,"type":"VEC4","name":"part006_vertices#0_TANGENT"},{"bufferView":0,"byteOffset":39796,"componentType":5120,"count":71,"type":"VEC4","name":"part006_vertices#0_NORMAL"},{"bufferView":0,"byteOffset":39800,"componentType":5122,"count":71,"type":"VEC2","name":"part006_vertices#0_TEXCOORD_0"},{"bufferView":0,"byteOffset":39804,"componentType":5122,"count":71,"type":"VEC2","name":"part006_vertices#0_TEXCOORD_1"},{"bufferView":0,"byteOffset":39808,"componentType":5123,"count":71,"type":"VEC4","name":"part006_vertices#0_COLOR_0"},{"bufferView":1,"byteOffset":4254,"componentType":5123,"count":123,"type":"SCALAR","name":"part006_indices#0"},{"bufferView":0,"byteOffset":42336,"componentType":5126,"count":88,"min":[-98.51365661621094,-0.03334999829530716,-737.6174926757813],"max":[-5.93317985534668,2.134510040283203,-503.9466857910156],"type":"VEC3","name":"part007_vertices#0_POSITION"},{"bufferView":0,"byteOffset":42348,"componentType":5120,"count":88,"type":"VEC4","name":"part007_vertices#0_TANGENT"},{"bufferView":0,"byteOffset":42352,"componentType":5120,"count":88,"type":"VEC4","name":"part007_vertices#0_NORMAL"},{"bufferView":0,"byteOffset":42356,"componentType":5122,"count":88,"type":"VEC2","name":"part007_vertices#0_TEXCOORD_0"},{"bufferView":0,"byteOffset":42360,"componentType":5122,"count":88,"type":"VEC2","name":"part007_vertices#0_TEXCOORD_1"},{"bufferView":0,"byteOffset":42364,"componentType":5123,"count":88,"type":"VEC4","name":"part007_vertices#0_COLOR_0"},{"bufferView":1,"byteOffset":4500,"componentType":5123,"count":144,"type":"SCALAR","name":"part007_indices#0"}],"asset":{"generator":"ModelConverterX","version":"2.0","extensions":{"ASOBO_asset_optimized":{"BoundingBoxMax":[330.3866882324219,14.71741008758545,-448.9032897949219],"BoundingBoxMin":[-191.735595703125,-0.03334999829530716,-737.6174926757813],"MajorVersion":4,"MinorVersion":2}}},"bufferViews":[{"buffer":0,"byteLength":45504,"byteStride":36,"byteOffset":64,"target":34962,"name":"BufferViewVertexND"},{"buffer":0,"byteLength":4788,"byteOffset":45644,"target":34963,"name":"BufferViewIndex"}],"extensionsUsed":["MSFT_texture_dds","ASOBO_asset_optimized"],"extensionsRequired":["MSFT_texture_dds"],"materials":[{"name":"glTF_Material","emissiveTexture":{"index":1},"pbrMetallicRoughness":{"metallicFactor":0.0,"roughnessFactor":0.0,"baseColorTexture":{"index":0}}},{"name":"glTF_Materialx","pbrMetallicRoughness":{"metallicFactor":0.0,"roughnessFactor":0.0,"baseColorTexture":{"index":2}}},{"name":"glTF_Materialxx","pbrMetallicRoughness":{"metallicFactor":0.0,"roughnessFactor":0.0,"baseColorTexture":{"index":3}}},{"name":"glTF_Materialxxx","emissiveTexture":{"index":5},"pbrMetallicRoughness":{"metallicFactor":0.0,"roughnessFactor":0.0,"baseColorTexture":{"index":4}}},{"name":"glTF_Materialxxxx","emissiveTexture":{"index":7},"pbrMetallicRoughness":{"metallicFactor":0.0,"roughnessFactor":0.0,"baseColorTexture":{"index":6}}},{"name":"glTF_Materialxxxxx","pbrMetallicRoughness":{"metallicFactor":0.0,"roughnessFactor":0.0,"baseColorTexture":{"index":8}}},{"name":"glTF_Materialxxxxxx","pbrMetallicRoughness":{"metallicFactor":0.0,"roughnessFactor":0.0,"baseColorTexture":{"index":9}}},{"name":"glTF_Materialxxxxxxx","emissiveTexture":{"index":11},"pbrMetallicRoughness":{"metallicFactor":0.0,"roughnessFactor":0.0,"baseColorTexture":{"index":10}}}],"meshes":[{"primitives":[{"attributes":{"COLOR_0":5,"NORMAL":2,"POSITION":0,"TANGENT":1,"TEXCOORD_0":3,"TEXCOORD_1":4},"indices":6,"material":1,"mode":4,"extras":{"ASOBO_primitive":{"PrimitiveCount":67,"VertexType":"VTX","VertexVersion":2}}}],"name":"part000"},{"primitives":[{"attributes":{"COLOR_0":12,"NORMAL":9,"POSITION":7,"TANGENT":8,"TEXCOORD_0":10,"TEXCOORD_1":11},"indices":13,"material":4,"mode":4,"extras":{"ASOBO_primitive":{"PrimitiveCount":108,"VertexType":"VTX","VertexVersion":2}}}],"name":"part001"},{"primitives":[{"attributes":{"COLOR_0":19,"NORMAL":16,"POSITION":14,"TANGENT":15,"TEXCOORD_0":17,"TEXCOORD_1":18},"indices":20,"material":3,"mode":4,"extras":{"ASOBO_primitive":{"PrimitiveCount":183,"VertexType":"VTX","VertexVersion":2}}}],"name":"part002"},{"primitives":[{"attributes":{"COLOR_0":26,"NORMAL":23,"POSITION":21,"TANGENT":22,"TEXCOORD_0":24,"TEXCOORD_1":25},"indices":27,"material":2,"mode":4,"extras":{"ASOBO_primitive":{"PrimitiveCount":74,"VertexType":"VTX","VertexVersion":2}}}],"name":"part003"},{"primitives":[{"attributes":{"COLOR_0":33,"NORMAL":30,"POSITION":28,"TANGENT":29,"TEXCOORD_0":31,"TEXCOORD_1":32},"indices":34,"material":5,"mode":4,"extras":{"ASOBO_primitive":{"PrimitiveCount":96,"VertexType":"VTX","VertexVersion":2}}}],"name":"part004"},{"primitives":[{"attributes":{"COLOR_0":40,"NORMAL":37,"POSITION":35,"TANGENT":36,"TEXCOORD_0":38,"TEXCOORD_1":39},"indices":41,"material":0,"mode":4,"extras":{"ASOBO_primitive":{"PrimitiveCount":181,"VertexType":"VTX","VertexVersion":2}}}],"name":"part005"},{"primitives":[{"attributes":{"COLOR_0":47,"NORMAL":44,"POSITION":42,"TANGENT":43,"TEXCOORD_0":45,"TEXCOORD_1":46},"indices":48,"material":7,"mode":4,"extras":{"ASOBO_primitive":{"PrimitiveCount":41,"VertexType":"VTX","VertexVersion":2}}}],"name":"part006"},{"primitives":[{"attributes":{"COLOR_0":54,"NORMAL":51,"POSITION":49,"TANGENT":50,"TEXCOORD_0":52,"TEXCOORD_1":53},"indices":55,"material":6,"mode":4,"extras":{"ASOBO_primitive":{"PrimitiveCount":48,"VertexType":"VTX","VertexVersion":2}}}],"name":"part007"}],"nodes":[{"name":"node0","children":[1,2,3,4,5,6,7,8]},{"mesh":0,"name":"node1"},{"mesh":1,"name":"node2"},{"mesh":2,"name":"node3"},{"mesh":3,"name":"node4"},{"mesh":4,"name":"node5"},{"mesh":5,"name":"node6"},{"mesh":6,"name":"node7"},{"mesh":7,"name":"node8"}],"scene":0,"scenes":[{"nodes":[0]}],"textures":[{"extensions":{"MSFT_texture_dds":{"source":0}}},{"extensions":{"MSFT_texture_dds":{"source":1}}},{"extensions":{"MSFT_texture_dds":{"source":2}}},{"extensions":{"MSFT_texture_dds":{"source":3}}},{"extensions":{"MSFT_texture_dds":{"source":4}}},{"extensions":{"MSFT_texture_dds":{"source":5}}},{"extensions":{"MSFT_texture_dds":{"source":6}}},{"extensions":{"MSFT_texture_dds":{"source":7}}},{"extensions":{"MSFT_texture_dds":{"source":8}}},{"extensions":{"MSFT_texture_dds":{"source":9}}},{"extensions":{"MSFT_texture_dds":{"source":10}}},{"extensions":{"MSFT_texture_dds":{"source":11}}}],"buffers":[{"byteLength":50432,"uri":"ANAC.bin"}],"images":[{"uri":"ANACSBPA.DDS.DDS","extras":"ASOBO_image_converted_meta"},{"uri":"SBPAEXANAC3_LMA.DDS.DDS","extras":"ASOBO_image_converted_meta"},{"uri":"SBPAEX18.DDS.DDS","extras":"ASOBO_image_converted_meta"},{"uri":"SBPAEXANAC2.DDS.DDS","extras":"ASOBO_image_converted_meta"},{"uri":"SBPAEXANAC3.DDS.DDS","extras":"ASOBO_image_converted_meta"},{"uri":"SBPAEXANAC3_LM.DDS.DDS","extras":"ASOBO_image_converted_meta"},{"uri":"SBPAEXANAC4.DDS.DDS","extras":"ASOBO_image_converted_meta"},{"uri":"SBPAEXANAC4_LM.DDS.DDS","extras":"ASOBO_image_converted_meta"},{"uri":"SBPAEXANAC5.DDS.DDS","extras":"ASOBO_image_converted_meta"},{"uri":"SBPAEXCERCA.DDS.DDS","extras":"ASOBO_image_converted_meta"},{"uri":"SBPAEXLATERAL.DDS.DDS","extras":"ASOBO_image_converted_meta"},{"uri":"SBPAEX15_LM.DDS.DDS","extras":"ASOBO_image_converted_meta"}]}
