{"accessors":[{"bufferView":0,"componentType":5126,"count":68,"min":[-19.10848045349121,0.0,-16.486480712890626],"max":[18.756900787353517,58.38999938964844,11.296520233154297],"type":"VEC3","name":"part000_vertices#0_POSITION"},{"bufferView":0,"byteOffset":12,"componentType":5120,"count":68,"type":"VEC4","name":"part000_vertices#0_TANGENT"},{"bufferView":0,"byteOffset":16,"componentType":5120,"count":68,"type":"VEC4","name":"part000_vertices#0_NORMAL"},{"bufferView":0,"byteOffset":20,"componentType":5122,"count":68,"type":"VEC2","name":"part000_vertices#0_TEXCOORD_0"},{"bufferView":0,"byteOffset":24,"componentType":5122,"count":68,"type":"VEC2","name":"part000_vertices#0_TEXCOORD_1"},{"bufferView":0,"byteOffset":28,"componentType":5123,"count":68,"type":"VEC4","name":"part000_vertices#0_COLOR_0"},{"bufferView":1,"componentType":5123,"count":138,"type":"SCALAR","name":"part000_indices#0"},{"bufferView":0,"byteOffset":2448,"componentType":5126,"count":42,"min":[-19.10848045349121,0.0,-16.486480712890626],"max":[18.756900787353517,54.82999038696289,11.296520233154297],"type":"VEC3","name":"part001_vertices#0_POSITION"},{"bufferView":0,"byteOffset":2460,"componentType":5120,"count":42,"type":"VEC4","name":"part001_vertices#0_TANGENT"},{"bufferView":0,"byteOffset":2464,"componentType":5120,"count":42,"type":"VEC4","name":"part001_vertices#0_NORMAL"},{"bufferView":0,"byteOffset":2468,"componentType":5122,"count":42,"type":"VEC2","name":"part001_vertices#0_TEXCOORD_0"},{"bufferView":0,"byteOffset":2472,"componentType":5122,"count":42,"type":"VEC2","name":"part001_vertices#0_TEXCOORD_1"},{"bufferView":0,"byteOffset":2476,"componentType":5123,"count":42,"type":"VEC4","name":"part001_vertices#0_COLOR_0"},{"bufferView":1,"byteOffset":276,"componentType":5123,"count":66,"type":"SCALAR","name":"part001_indices#0"},{"bufferView":0,"byteOffset":3960,"componentType":5126,"count":85,"min":[-19.10848045349121,0.0,-16.486480712890626],"max":[18.756900787353517,54.82999038696289,11.296520233154297],"type":"VEC3","name":"part002_vertices#0_POSITION"},{"bufferView":0,"byteOffset":3972,"componentType":5120,"count":85,"type":"VEC4","name":"part002_vertices#0_TANGENT"},{"bufferView":0,"byteOffset":3976,"componentType":5120,"count":85,"type":"VEC4","name":"part002_vertices#0_NORMAL"},{"bufferView":0,"byteOffset":3980,"componentType":5122,"count":85,"type":"VEC2","name":"part002_vertices#0_TEXCOORD_0"},{"bufferView":0,"byteOffset":3984,"componentType":5122,"count":85,"type":"VEC2","name":"part002_vertices#0_TEXCOORD_1"},{"bufferView":0,"byteOffset":3988,"componentType":5123,"count":85,"type":"VEC4","name":"part002_vertices#0_COLOR_0"},{"bufferView":1,"byteOffset":408,"componentType":5123,"count":135,"type":"SCALAR","name":"part002_indices#0"},{"bufferView":0,"byteOffset":7020,"componentType":5126,"count":335,"min":[-19.10848045349121,54.82999038696289,-16.486480712890626],"max":[18.756900787353517,58.38999938964844,11.296520233154297],"type":"VEC3","name":"part003_vertices#0_POSITION"},{"bufferView":0,"byteOffset":7032,"componentType":5120,"count":335,"type":"VEC4","name":"part003_vertices#0_TANGENT"},{"bufferView":0,"byteOffset":7036,"componentType":5120,"count":335,"type":"VEC4","name":"part003_vertices#0_NORMAL"},{"bufferView":0,"byteOffset":7040,"componentType":5122,"count":335,"type":"VEC2","name":"part003_vertices#0_TEXCOORD_0"},{"bufferView":0,"byteOffset":7044,"componentType":5122,"count":335,"type":"VEC2","name":"part003_vertices#0_TEXCOORD_1"},{"bufferView":0,"byteOffset":7048,"componentType":5123,"count":335,"type":"VEC4","name":"part003_vertices#0_COLOR_0"},{"bufferView":1,"byteOffset":678,"componentType":5123,"count":648,"type":"SCALAR","name":"part003_indices#0"},{"bufferView":0,"byteOffset":19080,"componentType":5126,"count":4,"min":[-4.370230197906494,57.007728576660159,-6.515679836273193],"max":[3.797950029373169,57.11772155761719,-4.674900054931641],"type":"VEC3","name":"part004_vertices#0_POSITION"},{"bufferView":0,"byteOffset":19092,"componentType":5120,"count":4,"type":"VEC4","name":"part004_vertices#0_TANGENT"},{"bufferView":0,"byteOffset":19096,"componentType":5120,"count":4,"type":"VEC4","name":"part004_vertices#0_NORMAL"},{"bufferView":0,"byteOffset":19100,"componentType":5122,"count":4,"type":"VEC2","name":"part004_vertices#0_TEXCOORD_0"},{"bufferView":0,"byteOffset":19104,"componentType":5122,"count":4,"type":"VEC2","name":"part004_vertices#0_TEXCOORD_1"},{"bufferView":0,"byteOffset":19108,"componentType":5123,"count":4,"type":"VEC4","name":"part004_vertices#0_COLOR_0"},{"bufferView":1,"byteOffset":1974,"componentType":5123,"count":6,"type":"SCALAR","name":"part004_indices#0"},{"bufferView":0,"byteOffset":19224,"componentType":5126,"count":4,"min":[-4.370230197906494,57.007728576660159,-6.515679836273193],"max":[3.797950029373169,57.11772155761719,-4.674900054931641],"type":"VEC3","name":"part005_vertices#0_POSITION"},{"bufferView":0,"byteOffset":19236,"componentType":5120,"count":4,"type":"VEC4","name":"part005_vertices#0_TANGENT"},{"bufferView":0,"byteOffset":19240,"componentType":5120,"count":4,"type":"VEC4","name":"part005_vertices#0_NORMAL"},{"bufferView":0,"byteOffset":19244,"componentType":5122,"count":4,"type":"VEC2","name":"part005_vertices#0_TEXCOORD_0"},{"bufferView":0,"byteOffset":19248,"componentType":5122,"count":4,"type":"VEC2","name":"part005_vertices#0_TEXCOORD_1"},{"bufferView":0,"byteOffset":19252,"componentType":5123,"count":4,"type":"VEC4","name":"part005_vertices#0_COLOR_0"},{"bufferView":1,"byteOffset":1986,"componentType":5123,"count":6,"type":"SCALAR","name":"part005_indices#0"}],"asset":{"generator":"ModelConverterX","version":"2.0","extensions":{"ASOBO_asset_optimized":{"BoundingBoxMax":[18.756900787353517,58.38999938964844,11.296520233154297],"BoundingBoxMin":[-19.10848045349121,0.0,-16.486480712890626],"MajorVersion":4,"MinorVersion":2}}},"bufferViews":[{"buffer":0,"byteLength":19368,"byteStride":36,"byteOffset":88,"target":34962,"name":"BufferViewVertexND"},{"buffer":0,"byteLength":1998,"byteOffset":19506,"target":34963,"name":"BufferViewIndex"}],"extensionsUsed":["MSFT_texture_dds","ASOBO_asset_optimized"],"extensionsRequired":["MSFT_texture_dds"],"materials":[{"name":"glTF_Material","pbrMetallicRoughness":{"baseColorFactor":[0.6705881953239441,0.6901960968971252,0.800000011920929,1.0],"metallicFactor":0.0,"roughnessFactor":0.0}},{"name":"glTF_Materialx","pbrMetallicRoughness":{"metallicFactor":0.0,"roughnessFactor":0.0}},{"name":"glTF_Materialxx","doubleSided":true,"pbrMetallicRoughness":{"metallicFactor":0.0,"roughnessFactor":0.0,"baseColorTexture":{"index":0}}},{"name":"glTF_Materialxxx","doubleSided":true,"pbrMetallicRoughness":{"metallicFactor":0.0,"roughnessFactor":0.0,"baseColorTexture":{"index":1}}},{"name":"glTF_Materialxxxx","doubleSided":true,"pbrMetallicRoughness":{"metallicFactor":0.0,"roughnessFactor":0.0,"baseColorTexture":{"index":2}}},{"name":"glTF_Materialxxxxx","doubleSided":true,"pbrMetallicRoughness":{"metallicFactor":0.0,"roughnessFactor":0.0,"baseColorTexture":{"index":3}}}],"meshes":[{"primitives":[{"attributes":{"COLOR_0":5,"NORMAL":2,"POSITION":0,"TANGENT":1,"TEXCOORD_0":3,"TEXCOORD_1":4},"indices":6,"material":2,"mode":4,"extras":{"ASOBO_primitive":{"PrimitiveCount":46,"VertexType":"VTX","VertexVersion":2}}}],"name":"part000"},{"primitives":[{"attributes":{"COLOR_0":12,"NORMAL":9,"POSITION":7,"TANGENT":8,"TEXCOORD_0":10,"TEXCOORD_1":11},"indices":13,"material":3,"mode":4,"extras":{"ASOBO_primitive":{"PrimitiveCount":22,"VertexType":"VTX","VertexVersion":2}}}],"name":"part001"},{"primitives":[{"attributes":{"COLOR_0":19,"NORMAL":16,"POSITION":14,"TANGENT":15,"TEXCOORD_0":17,"TEXCOORD_1":18},"indices":20,"material":4,"mode":4,"extras":{"ASOBO_primitive":{"PrimitiveCount":45,"VertexType":"VTX","VertexVersion":2}}}],"name":"part002"},{"primitives":[{"attributes":{"COLOR_0":26,"NORMAL":23,"POSITION":21,"TANGENT":22,"TEXCOORD_0":24,"TEXCOORD_1":25},"indices":27,"material":5,"mode":4,"extras":{"ASOBO_primitive":{"PrimitiveCount":216,"VertexType":"VTX","VertexVersion":2}}}],"name":"part003"},{"primitives":[{"attributes":{"COLOR_0":33,"NORMAL":30,"POSITION":28,"TANGENT":29,"TEXCOORD_0":31,"TEXCOORD_1":32},"indices":34,"material":0,"mode":4,"extras":{"ASOBO_primitive":{"PrimitiveCount":2,"VertexType":"VTX","VertexVersion":2}}}],"name":"part004"},{"primitives":[{"attributes":{"COLOR_0":40,"NORMAL":37,"POSITION":35,"TANGENT":36,"TEXCOORD_0":38,"TEXCOORD_1":39},"indices":41,"material":1,"mode":4,"extras":{"ASOBO_primitive":{"PrimitiveCount":2,"VertexType":"VTX","VertexVersion":2}}}],"name":"part005"}],"nodes":[{"name":"node0","children":[1,2,3,4,5,6]},{"mesh":0,"name":"node1"},{"mesh":1,"name":"node2"},{"mesh":2,"name":"node3"},{"mesh":3,"name":"node4"},{"mesh":4,"name":"node5"},{"mesh":5,"name":"node6"}],"scene":0,"scenes":[{"nodes":[0]}],"textures":[{"extensions":{"MSFT_texture_dds":{"source":0}}},{"extensions":{"MSFT_texture_dds":{"source":1}}},{"extensions":{"MSFT_texture_dds":{"source":2}}},{"extensions":{"MSFT_texture_dds":{"source":3}}}],"buffers":[{"byteLength":21504,"uri":"PredioArena.bin"}],"images":[{"uri":"UNTITLED\\TEXTURE.JPG.DDS","extras":"ASOBO_image_converted_meta"},{"uri":"UNTITLED\\TEXTURE_0.PNG.DDS","extras":"ASOBO_image_converted_meta"},{"uri":"UNTITLED\\TEXTURE_1.PNG.DDS","extras":"ASOBO_image_converted_meta"},{"uri":"UNTITLED\\TEXTURE_2.JPG.DDS","extras":"ASOBO_image_converted_meta"}]}
