{
  "asset": {
    "version": "2.0",
    "generator": "ModelConverterX"
  },
  "extensionsUsed": [],
  "scene": 0,
  "scenes": [
    {
      "nodes": [
        0
      ]
    }
  ],
  "nodes": [
    {
      "name": "node0",
      "children": [
        1
      ]
    },
    {
      "name": "node1",
      "mesh": 0
    }
  ],
  "meshes": [
    {
      "primitives": [
        {
          "attributes": {
            "POSITION": 0,
            "NORMAL": 1,
            "TEXCOORD_0": 2
          },
          "indices": 3,
          "mode": 4,
          "material": 0
        }
      ],
      "name": "part000"
    }
  ],
  "accessors": [
    {
      "bufferView": 1,
      "byteOffset": 0,
      "componentType": 5126,
      "count": 150,
      "type": "VEC3",
      "min": [
        -26.08181,
        -0.34736,
        -24.67987
      ],
      "max": [
        19.47045,
        11.34537,
        1.87199
      ]
    },
    {
      "bufferView": 2,
      "byteOffset": 0,
      "componentType": 5126,
      "count": 150,
      "type": "VEC3"
    },
    {
      "bufferView": 3,
      "byteOffset": 0,
      "componentType": 5126,
      "count": 150,
      "type": "VEC2"
    },
    {
      "bufferView": 0,
      "byteOffset": 0,
      "componentType": 5125,
      "count": 294,
      "type": "SCALAR"
    }
  ],
  "materials": [
    {
      "pbrMetallicRoughness": {
        "baseColorFactor": [
          1.0,
          1.0,
          1.0,
          1.0
        ],
        "roughnessFactor": 1.0,
        "metallicFactor": 0.0,
        "baseColorTexture": {
          "index": 0
        }
      },
      "emissiveFactor": [
        1.0,
        1.0,
        1.0
      ],
      "emissiveTexture": {
        "index": 1
      }
    }
  ],
  "textures": [
    {
      "source": 0,
      "name": "hangarzim"
    },
    {
      "source": 1,
      "name": "hangarzim_lit"
    }
  ],
  "images": [
    {
      "uri": "hangarzim.png"
    },
    {
      "uri": "hangarzim_lit.png"
    }
  ],
  "bufferViews": [
    {
      "buffer": 0,
      "byteOffset": 0,
      "byteLength": 1176
    },
    {
      "buffer": 0,
      "byteOffset": 1176,
      "byteLength": 1800
    },
    {
      "buffer": 0,
      "byteOffset": 2976,
      "byteLength": 1800
    },
    {
      "buffer": 0,
      "byteOffset": 4776,
      "byteLength": 1200
    }
  ],
  "buffers": [
    {
      "byteLength": 5976,
      "uri": "HANGARZIM.bin"
    }
  ]
}