{
  "asset": {
    "version": "2.0",
    "generator": "ModelConverterX"
  },
  "extensionsUsed": [],
  "scene": 0,
  "scenes": [
    {
      "nodes": [
        0
      ]
    }
  ],
  "nodes": [
    {
      "name": "node0",
      "children": [
        1
      ]
    },
    {
      "name": "node1",
      "mesh": 0
    }
  ],
  "meshes": [
    {
      "primitives": [
        {
          "attributes": {
            "POSITION": 0,
            "NORMAL": 1,
            "TEXCOORD_0": 2
          },
          "indices": 3,
          "mode": 4,
          "material": 0
        }
      ],
      "name": "part000"
    }
  ],
  "accessors": [
    {
      "bufferView": 1,
      "byteOffset": 0,
      "componentType": 5126,
      "count": 216,
      "type": "VEC3",
      "min": [
        -28.3054,
        -0.17714,
        -14.27405
      ],
      "max": [
        10.82209,
        5.12075,
        13.53769
      ]
    },
    {
      "bufferView": 2,
      "byteOffset": 0,
      "componentType": 5126,
      "count": 216,
      "type": "VEC3"
    },
    {
      "bufferView": 3,
      "byteOffset": 0,
      "componentType": 5126,
      "count": 216,
      "type": "VEC2"
    },
    {
      "bufferView": 0,
      "byteOffset": 0,
      "componentType": 5125,
      "count": 348,
      "type": "SCALAR"
    }
  ],
  "materials": [
    {
      "pbrMetallicRoughness": {
        "baseColorFactor": [
          1.0,
          1.0,
          1.0,
          1.0
        ],
        "roughnessFactor": 1.0,
        "metallicFactor": 0.0,
        "baseColorTexture": {
          "index": 0
        }
      },
      "emissiveFactor": [
        1.0,
        1.0,
        1.0
      ],
      "emissiveTexture": {
        "index": 1
      }
    }
  ],
  "textures": [
    {
      "source": 0,
      "name": "lado_hangarzim"
    },
    {
      "source": 1,
      "name": "lado_hangarzim_lit"
    }
  ],
  "images": [
    {
      "uri": "lado_hangarzim.png"
    },
    {
      "uri": "lado_hangarzim_lit.png"
    }
  ],
  "bufferViews": [
    {
      "buffer": 0,
      "byteOffset": 0,
      "byteLength": 1392
    },
    {
      "buffer": 0,
      "byteOffset": 1392,
      "byteLength": 2592
    },
    {
      "buffer": 0,
      "byteOffset": 3984,
      "byteLength": 2592
    },
    {
      "buffer": 0,
      "byteOffset": 6576,
      "byteLength": 1728
    }
  ],
  "buffers": [
    {
      "byteLength": 8304,
      "uri": "LADO_HANGARZIM.bin"
    }
  ]
}