{"accessors":[{"bufferView":0,"componentType":5126,"count":992,"min":[5.172860145568848,0.0,-96.75707244873047],"max":[290.7843933105469,31.26515007019043,-0.28894999623298647],"type":"VEC3","name":"part000_vertices#0_POSITION"},{"bufferView":0,"byteOffset":12,"componentType":5120,"count":992,"type":"VEC4","name":"part000_vertices#0_TANGENT"},{"bufferView":0,"byteOffset":16,"componentType":5120,"count":992,"type":"VEC4","name":"part000_vertices#0_NORMAL"},{"bufferView":0,"byteOffset":20,"componentType":5122,"count":992,"type":"VEC2","name":"part000_vertices#0_TEXCOORD_0"},{"bufferView":0,"byteOffset":24,"componentType":5122,"count":992,"type":"VEC2","name":"part000_vertices#0_TEXCOORD_1"},{"bufferView":0,"byteOffset":28,"componentType":5123,"count":992,"type":"VEC4","name":"part000_vertices#0_COLOR_0"},{"bufferView":1,"componentType":5123,"count":1674,"type":"SCALAR","name":"part000_indices#0"},{"bufferView":0,"byteOffset":35712,"componentType":5126,"count":394,"min":[0.6523799896240234,6.989039897918701,-107.44380187988281],"max":[291.7244567871094,32.86000061035156,-0.04472000151872635],"type":"VEC3","name":"part001_vertices#0_POSITION"},{"bufferView":0,"byteOffset":35724,"componentType":5120,"count":394,"type":"VEC4","name":"part001_vertices#0_TANGENT"},{"bufferView":0,"byteOffset":35728,"componentType":5120,"count":394,"type":"VEC4","name":"part001_vertices#0_NORMAL"},{"bufferView":0,"byteOffset":35732,"componentType":5122,"count":394,"type":"VEC2","name":"part001_vertices#0_TEXCOORD_0"},{"bufferView":0,"byteOffset":35736,"componentType":5122,"count":394,"type":"VEC2","name":"part001_vertices#0_TEXCOORD_1"},{"bufferView":0,"byteOffset":35740,"componentType":5123,"count":394,"type":"VEC4","name":"part001_vertices#0_COLOR_0"},{"bufferView":1,"byteOffset":3348,"componentType":5123,"count":927,"type":"SCALAR","name":"part001_indices#0"},{"bufferView":0,"byteOffset":49896,"componentType":5126,"count":920,"min":[0.6523799896240234,0.0,-107.44380187988281],"max":[290.7843933105469,32.86000061035156,-0.04472000151872635],"type":"VEC3","name":"part002_vertices#0_POSITION"},{"bufferView":0,"byteOffset":49908,"componentType":5120,"count":920,"type":"VEC4","name":"part002_vertices#0_TANGENT"},{"bufferView":0,"byteOffset":49912,"componentType":5120,"count":920,"type":"VEC4","name":"part002_vertices#0_NORMAL"},{"bufferView":0,"byteOffset":49916,"componentType":5122,"count":920,"type":"VEC2","name":"part002_vertices#0_TEXCOORD_0"},{"bufferView":0,"byteOffset":49920,"componentType":5122,"count":920,"type":"VEC2","name":"part002_vertices#0_TEXCOORD_1"},{"bufferView":0,"byteOffset":49924,"componentType":5123,"count":920,"type":"VEC4","name":"part002_vertices#0_COLOR_0"},{"bufferView":1,"byteOffset":5202,"componentType":5123,"count":1779,"type":"SCALAR","name":"part002_indices#0"},{"bufferView":0,"byteOffset":83016,"componentType":5126,"count":16,"min":[4.232729911804199,0.0,-81.60797882080078],"max":[291.7244567871094,0.0,-73.89527130126953],"type":"VEC3","name":"part003_vertices#0_POSITION"},{"bufferView":0,"byteOffset":83028,"componentType":5120,"count":16,"type":"VEC4","name":"part003_vertices#0_TANGENT"},{"bufferView":0,"byteOffset":83032,"componentType":5120,"count":16,"type":"VEC4","name":"part003_vertices#0_NORMAL"},{"bufferView":0,"byteOffset":83036,"componentType":5122,"count":16,"type":"VEC2","name":"part003_vertices#0_TEXCOORD_0"},{"bufferView":0,"byteOffset":83040,"componentType":5122,"count":16,"type":"VEC2","name":"part003_vertices#0_TEXCOORD_1"},{"bufferView":0,"byteOffset":83044,"componentType":5123,"count":16,"type":"VEC4","name":"part003_vertices#0_COLOR_0"},{"bufferView":1,"byteOffset":8760,"componentType":5123,"count":36,"type":"SCALAR","name":"part003_indices#0"},{"bufferView":0,"byteOffset":83592,"componentType":5126,"count":16,"min":[4.232729911804199,0.0,-81.60797882080078],"max":[291.7244567871094,0.0,-73.89527130126953],"type":"VEC3","name":"part004_vertices#0_POSITION"},{"bufferView":0,"byteOffset":83604,"componentType":5120,"count":16,"type":"VEC4","name":"part004_vertices#0_TANGENT"},{"bufferView":0,"byteOffset":83608,"componentType":5120,"count":16,"type":"VEC4","name":"part004_vertices#0_NORMAL"},{"bufferView":0,"byteOffset":83612,"componentType":5122,"count":16,"type":"VEC2","name":"part004_vertices#0_TEXCOORD_0"},{"bufferView":0,"byteOffset":83616,"componentType":5122,"count":16,"type":"VEC2","name":"part004_vertices#0_TEXCOORD_1"},{"bufferView":0,"byteOffset":83620,"componentType":5123,"count":16,"type":"VEC4","name":"part004_vertices#0_COLOR_0"},{"bufferView":1,"byteOffset":8832,"componentType":5123,"count":36,"type":"SCALAR","name":"part004_indices#0"},{"bufferView":0,"byteOffset":84168,"componentType":5126,"count":16,"min":[4.232729911804199,25.139999389648439,-81.60797882080078],"max":[291.7244567871094,25.139999389648439,-73.89527130126953],"type":"VEC3","name":"part005_vertices#0_POSITION"},{"bufferView":0,"byteOffset":84180,"componentType":5120,"count":16,"type":"VEC4","name":"part005_vertices#0_TANGENT"},{"bufferView":0,"byteOffset":84184,"componentType":5120,"count":16,"type":"VEC4","name":"part005_vertices#0_NORMAL"},{"bufferView":0,"byteOffset":84188,"componentType":5122,"count":16,"type":"VEC2","name":"part005_vertices#0_TEXCOORD_0"},{"bufferView":0,"byteOffset":84192,"componentType":5122,"count":16,"type":"VEC2","name":"part005_vertices#0_TEXCOORD_1"},{"bufferView":0,"byteOffset":84196,"componentType":5123,"count":16,"type":"VEC4","name":"part005_vertices#0_COLOR_0"},{"bufferView":1,"byteOffset":8904,"componentType":5123,"count":36,"type":"SCALAR","name":"part005_indices#0"},{"bufferView":0,"byteOffset":84744,"componentType":5126,"count":64,"min":[4.232729911804199,0.0,-81.60797882080078],"max":[291.7244567871094,25.139999389648439,-73.89527130126953],"type":"VEC3","name":"part006_vertices#0_POSITION"},{"bufferView":0,"byteOffset":84756,"componentType":5120,"count":64,"type":"VEC4","name":"part006_vertices#0_TANGENT"},{"bufferView":0,"byteOffset":84760,"componentType":5120,"count":64,"type":"VEC4","name":"part006_vertices#0_NORMAL"},{"bufferView":0,"byteOffset":84764,"componentType":5122,"count":64,"type":"VEC2","name":"part006_vertices#0_TEXCOORD_0"},{"bufferView":0,"byteOffset":84768,"componentType":5122,"count":64,"type":"VEC2","name":"part006_vertices#0_TEXCOORD_1"},{"bufferView":0,"byteOffset":84772,"componentType":5123,"count":64,"type":"VEC4","name":"part006_vertices#0_COLOR_0"},{"bufferView":1,"byteOffset":8976,"componentType":5123,"count":96,"type":"SCALAR","name":"part006_indices#0"},{"bufferView":0,"byteOffset":87048,"componentType":5126,"count":496,"min":[0.6523799896240234,0.0,-107.44380187988281],"max":[291.7244567871094,27.200620651245118,-3.5503499507904054],"type":"VEC3","name":"part007_vertices#0_POSITION"},{"bufferView":0,"byteOffset":87060,"componentType":5120,"count":496,"type":"VEC4","name":"part007_vertices#0_TANGENT"},{"bufferView":0,"byteOffset":87064,"componentType":5120,"count":496,"type":"VEC4","name":"part007_vertices#0_NORMAL"},{"bufferView":0,"byteOffset":87068,"componentType":5122,"count":496,"type":"VEC2","name":"part007_vertices#0_TEXCOORD_0"},{"bufferView":0,"byteOffset":87072,"componentType":5122,"count":496,"type":"VEC2","name":"part007_vertices#0_TEXCOORD_1"},{"bufferView":0,"byteOffset":87076,"componentType":5123,"count":496,"type":"VEC4","name":"part007_vertices#0_COLOR_0"},{"bufferView":1,"byteOffset":9168,"componentType":5123,"count":834,"type":"SCALAR","name":"part007_indices#0"},{"bufferView":0,"byteOffset":104904,"componentType":5126,"count":32,"min":[4.232729911804199,0.0,-24.662660598754884],"max":[291.7244567871094,25.139999389648439,-16.949949264526368],"type":"VEC3","name":"part008_vertices#0_POSITION"},{"bufferView":0,"byteOffset":104916,"componentType":5120,"count":32,"type":"VEC4","name":"part008_vertices#0_TANGENT"},{"bufferView":0,"byteOffset":104920,"componentType":5120,"count":32,"type":"VEC4","name":"part008_vertices#0_NORMAL"},{"bufferView":0,"byteOffset":104924,"componentType":5122,"count":32,"type":"VEC2","name":"part008_vertices#0_TEXCOORD_0"},{"bufferView":0,"byteOffset":104928,"componentType":5122,"count":32,"type":"VEC2","name":"part008_vertices#0_TEXCOORD_1"},{"bufferView":0,"byteOffset":104932,"componentType":5123,"count":32,"type":"VEC4","name":"part008_vertices#0_COLOR_0"},{"bufferView":1,"byteOffset":10836,"componentType":5123,"count":60,"type":"SCALAR","name":"part008_indices#0"},{"bufferView":0,"byteOffset":106056,"componentType":5126,"count":64,"min":[4.232729911804199,0.0,-24.662660598754884],"max":[291.7244567871094,25.139999389648439,-16.949949264526368],"type":"VEC3","name":"part009_vertices#0_POSITION"},{"bufferView":0,"byteOffset":106068,"componentType":5120,"count":64,"type":"VEC4","name":"part009_vertices#0_TANGENT"},{"bufferView":0,"byteOffset":106072,"componentType":5120,"count":64,"type":"VEC4","name":"part009_vertices#0_NORMAL"},{"bufferView":0,"byteOffset":106076,"componentType":5122,"count":64,"type":"VEC2","name":"part009_vertices#0_TEXCOORD_0"},{"bufferView":0,"byteOffset":106080,"componentType":5122,"count":64,"type":"VEC2","name":"part009_vertices#0_TEXCOORD_1"},{"bufferView":0,"byteOffset":106084,"componentType":5123,"count":64,"type":"VEC4","name":"part009_vertices#0_COLOR_0"},{"bufferView":1,"byteOffset":10956,"componentType":5123,"count":108,"type":"SCALAR","name":"part009_indices#0"},{"bufferView":0,"byteOffset":108360,"componentType":5126,"count":168,"min":[15.112730026245118,0.0,-100.79113006591797],"max":[282.3687438964844,17.92060089111328,-0.04472000151872635],"type":"VEC3","name":"part010_vertices#0_POSITION"},{"bufferView":0,"byteOffset":108372,"componentType":5120,"count":168,"type":"VEC4","name":"part010_vertices#0_TANGENT"},{"bufferView":0,"byteOffset":108376,"componentType":5120,"count":168,"type":"VEC4","name":"part010_vertices#0_NORMAL"},{"bufferView":0,"byteOffset":108380,"componentType":5122,"count":168,"type":"VEC2","name":"part010_vertices#0_TEXCOORD_0"},{"bufferView":0,"byteOffset":108384,"componentType":5122,"count":168,"type":"VEC2","name":"part010_vertices#0_TEXCOORD_1"},{"bufferView":0,"byteOffset":108388,"componentType":5123,"count":168,"type":"VEC4","name":"part010_vertices#0_COLOR_0"},{"bufferView":1,"byteOffset":11172,"componentType":5123,"count":324,"type":"SCALAR","name":"part010_indices#0"},{"bufferView":0,"byteOffset":114408,"componentType":5126,"count":15,"min":[62.40217971801758,20.952749252319337,-93.8558120727539],"max":[208.39219665527345,32.86000061035156,-29.755229949951173],"type":"VEC3","name":"part011_vertices#0_POSITION"},{"bufferView":0,"byteOffset":114420,"componentType":5120,"count":15,"type":"VEC4","name":"part011_vertices#0_TANGENT"},{"bufferView":0,"byteOffset":114424,"componentType":5120,"count":15,"type":"VEC4","name":"part011_vertices#0_NORMAL"},{"bufferView":0,"byteOffset":114428,"componentType":5122,"count":15,"type":"VEC2","name":"part011_vertices#0_TEXCOORD_0"},{"bufferView":0,"byteOffset":114432,"componentType":5122,"count":15,"type":"VEC2","name":"part011_vertices#0_TEXCOORD_1"},{"bufferView":0,"byteOffset":114436,"componentType":5123,"count":15,"type":"VEC4","name":"part011_vertices#0_COLOR_0"},{"bufferView":1,"byteOffset":11820,"componentType":5123,"count":15,"type":"SCALAR","name":"part011_indices#0"},{"bufferView":0,"byteOffset":114948,"componentType":5126,"count":15,"min":[62.40217971801758,20.952749252319337,-81.6058120727539],"max":[220.7021942138672,32.86000061035156,-29.755229949951173],"type":"VEC3","name":"part012_vertices#0_POSITION"},{"bufferView":0,"byteOffset":114960,"componentType":5120,"count":15,"type":"VEC4","name":"part012_vertices#0_TANGENT"},{"bufferView":0,"byteOffset":114964,"componentType":5120,"count":15,"type":"VEC4","name":"part012_vertices#0_NORMAL"},{"bufferView":0,"byteOffset":114968,"componentType":5122,"count":15,"type":"VEC2","name":"part012_vertices#0_TEXCOORD_0"},{"bufferView":0,"byteOffset":114972,"componentType":5122,"count":15,"type":"VEC2","name":"part012_vertices#0_TEXCOORD_1"},{"bufferView":0,"byteOffset":114976,"componentType":5123,"count":15,"type":"VEC4","name":"part012_vertices#0_COLOR_0"},{"bufferView":1,"byteOffset":11850,"componentType":5123,"count":15,"type":"SCALAR","name":"part012_indices#0"}],"asset":{"generator":"ModelConverterX","version":"2.0","extensions":{"ASOBO_asset_optimized":{"BoundingBoxMax":[291.7244567871094,32.86000061035156,-0.04472000151872635],"BoundingBoxMin":[0.6523799896240234,0.0,-107.44380187988281],"MajorVersion":4,"MinorVersion":2}}},"bufferViews":[{"buffer":0,"byteLength":115488,"byteStride":36,"byteOffset":96,"target":34962,"name":"BufferViewVertexND"},{"buffer":0,"byteLength":11880,"byteOffset":115608,"target":34963,"name":"BufferViewIndex"}],"extensionsUsed":["MSFT_texture_dds","ASOBO_asset_optimized"],"extensionsRequired":["MSFT_texture_dds"],"materials":[{"name":"glTF_Material","alphaMode":"BLEND","pbrMetallicRoughness":{"baseColorFactor":[0.13725489377975465,0.13725489377975465,0.13725489377975465,0.5098038911819458],"metallicFactor":0.0,"roughnessFactor":0.0}},{"name":"glTF_Materialx","doubleSided":true,"pbrMetallicRoughness":{"baseColorFactor":[0.4000000059604645,0.4000000059604645,0.3176470994949341,1.0],"metallicFactor":0.0,"roughnessFactor":0.0}},{"name":"glTF_Materialxx","pbrMetallicRoughness":{"baseColorFactor":[0.4000000059604645,0.4000000059604645,0.3176470994949341,1.0],"metallicFactor":0.0,"roughnessFactor":0.0}},{"name":"glTF_Materialxxx","pbrMetallicRoughness":{"baseColorFactor":[0.6705881953239441,0.6901960968971252,0.800000011920929,1.0],"metallicFactor":0.0,"roughnessFactor":0.0}},{"name":"glTF_Materialxxxx","pbrMetallicRoughness":{"metallicFactor":0.0,"roughnessFactor":0.0}},{"name":"glTF_Materialxxxxx","pbrMetallicRoughness":{"metallicFactor":0.0,"roughnessFactor":0.0,"baseColorTexture":{"index":0}}},{"name":"glTF_Materialxxxxxx","doubleSided":true,"pbrMetallicRoughness":{"metallicFactor":0.0,"roughnessFactor":0.0,"baseColorTexture":{"index":0}}},{"name":"glTF_Materialxxxxxxx","pbrMetallicRoughness":{"metallicFactor":0.0,"roughnessFactor":0.0,"baseColorTexture":{"index":1}}},{"name":"glTF_Materialxxxxxxxx","doubleSided":true,"pbrMetallicRoughness":{"metallicFactor":0.0,"roughnessFactor":0.0,"baseColorTexture":{"index":1}}},{"name":"glTF_Materialxxxxxxxxx","doubleSided":true,"pbrMetallicRoughness":{"metallicFactor":0.0,"roughnessFactor":0.0,"baseColorTexture":{"index":2}}},{"name":"glTF_Materialxxxxxxxxxx","pbrMetallicRoughness":{"metallicFactor":0.0,"roughnessFactor":0.0,"baseColorTexture":{"index":2}}},{"name":"glTF_Materialxxxxxxxxxxx","alphaMode":"BLEND","pbrMetallicRoughness":{"metallicFactor":0.0,"roughnessFactor":0.0,"baseColorTexture":{"index":3}}},{"name":"glTF_Materialxxxxxxxxxxxx","alphaMode":"BLEND","pbrMetallicRoughness":{"metallicFactor":0.0,"roughnessFactor":0.0,"baseColorTexture":{"index":4}}}],"meshes":[{"primitives":[{"attributes":{"COLOR_0":5,"NORMAL":2,"POSITION":0,"TANGENT":1,"TEXCOORD_0":3,"TEXCOORD_1":4},"indices":6,"material":1,"mode":4,"extras":{"ASOBO_primitive":{"PrimitiveCount":558,"VertexType":"VTX","VertexVersion":2}}}],"name":"part000"},{"primitives":[{"attributes":{"COLOR_0":12,"NORMAL":9,"POSITION":7,"TANGENT":8,"TEXCOORD_0":10,"TEXCOORD_1":11},"indices":13,"material":5,"mode":4,"extras":{"ASOBO_primitive":{"PrimitiveCount":309,"VertexType":"VTX","VertexVersion":2}}}],"name":"part001"},{"primitives":[{"attributes":{"COLOR_0":19,"NORMAL":16,"POSITION":14,"TANGENT":15,"TEXCOORD_0":17,"TEXCOORD_1":18},"indices":20,"material":2,"mode":4,"extras":{"ASOBO_primitive":{"PrimitiveCount":593,"VertexType":"VTX","VertexVersion":2}}}],"name":"part002"},{"primitives":[{"attributes":{"COLOR_0":26,"NORMAL":23,"POSITION":21,"TANGENT":22,"TEXCOORD_0":24,"TEXCOORD_1":25},"indices":27,"material":4,"mode":4,"extras":{"ASOBO_primitive":{"PrimitiveCount":12,"VertexType":"VTX","VertexVersion":2}}}],"name":"part003"},{"primitives":[{"attributes":{"COLOR_0":33,"NORMAL":30,"POSITION":28,"TANGENT":29,"TEXCOORD_0":31,"TEXCOORD_1":32},"indices":34,"material":3,"mode":4,"extras":{"ASOBO_primitive":{"PrimitiveCount":12,"VertexType":"VTX","VertexVersion":2}}}],"name":"part004"},{"primitives":[{"attributes":{"COLOR_0":40,"NORMAL":37,"POSITION":35,"TANGENT":36,"TEXCOORD_0":38,"TEXCOORD_1":39},"indices":41,"material":6,"mode":4,"extras":{"ASOBO_primitive":{"PrimitiveCount":12,"VertexType":"VTX","VertexVersion":2}}}],"name":"part005"},{"primitives":[{"attributes":{"COLOR_0":47,"NORMAL":44,"POSITION":42,"TANGENT":43,"TEXCOORD_0":45,"TEXCOORD_1":46},"indices":48,"material":8,"mode":4,"extras":{"ASOBO_primitive":{"PrimitiveCount":32,"VertexType":"VTX","VertexVersion":2}}}],"name":"part006"},{"primitives":[{"attributes":{"COLOR_0":54,"NORMAL":51,"POSITION":49,"TANGENT":50,"TEXCOORD_0":52,"TEXCOORD_1":53},"indices":55,"material":7,"mode":4,"extras":{"ASOBO_primitive":{"PrimitiveCount":278,"VertexType":"VTX","VertexVersion":2}}}],"name":"part007"},{"primitives":[{"attributes":{"COLOR_0":61,"NORMAL":58,"POSITION":56,"TANGENT":57,"TEXCOORD_0":59,"TEXCOORD_1":60},"indices":62,"material":9,"mode":4,"extras":{"ASOBO_primitive":{"PrimitiveCount":20,"VertexType":"VTX","VertexVersion":2}}}],"name":"part008"},{"primitives":[{"attributes":{"COLOR_0":68,"NORMAL":65,"POSITION":63,"TANGENT":64,"TEXCOORD_0":66,"TEXCOORD_1":67},"indices":69,"material":10,"mode":4,"extras":{"ASOBO_primitive":{"PrimitiveCount":36,"VertexType":"VTX","VertexVersion":2}}}],"name":"part009"},{"primitives":[{"attributes":{"COLOR_0":75,"NORMAL":72,"POSITION":70,"TANGENT":71,"TEXCOORD_0":73,"TEXCOORD_1":74},"indices":76,"material":0,"mode":4,"extras":{"ASOBO_primitive":{"PrimitiveCount":108,"VertexType":"VTX","VertexVersion":2}}}],"name":"part010"},{"primitives":[{"attributes":{"COLOR_0":82,"NORMAL":79,"POSITION":77,"TANGENT":78,"TEXCOORD_0":80,"TEXCOORD_1":81},"indices":83,"material":11,"mode":4,"extras":{"ASOBO_primitive":{"PrimitiveCount":5,"VertexType":"VTX","VertexVersion":2}}}],"name":"part011"},{"primitives":[{"attributes":{"COLOR_0":89,"NORMAL":86,"POSITION":84,"TANGENT":85,"TEXCOORD_0":87,"TEXCOORD_1":88},"indices":90,"material":12,"mode":4,"extras":{"ASOBO_primitive":{"PrimitiveCount":5,"VertexType":"VTX","VertexVersion":2}}}],"name":"part012"}],"nodes":[{"name":"node0","children":[1,2,3,4,5,6,7,8,9,10,11,12,13]},{"mesh":0,"name":"node1"},{"mesh":1,"name":"node2"},{"mesh":2,"name":"node3"},{"mesh":3,"name":"node4"},{"mesh":4,"name":"node5"},{"mesh":5,"name":"node6"},{"mesh":6,"name":"node7"},{"mesh":7,"name":"node8"},{"mesh":8,"name":"node9"},{"mesh":9,"name":"node10"},{"mesh":10,"name":"node11"},{"mesh":11,"name":"node12"},{"mesh":12,"name":"node13"}],"scene":0,"scenes":[{"nodes":[0]}],"textures":[{"extensions":{"MSFT_texture_dds":{"source":0}}},{"extensions":{"MSFT_texture_dds":{"source":1}}},{"extensions":{"MSFT_texture_dds":{"source":2}}},{"extensions":{"MSFT_texture_dds":{"source":3}}},{"extensions":{"MSFT_texture_dds":{"source":4}}}],"buffers":[{"byteLength":127488,"uri":"PraiaDeBelas.bin"}],"images":[{"uri":"UNTITLED\\TEXTURE.PNG.DDS","extras":"ASOBO_image_converted_meta"},{"uri":"UNTITLED\\TEXTURE_0.JPG.DDS","extras":"ASOBO_image_converted_meta"},{"uri":"UNTITLED\\TEXTURE_1.PNG.DDS","extras":"ASOBO_image_converted_meta"},{"uri":"UNTITLED\\TEXTURE_2.PNG.DDS","extras":"ASOBO_image_converted_meta"},{"uri":"UNTITLED\\TEXTURE_3.PNG.DDS","extras":"ASOBO_image_converted_meta"}]}
