{
  "asset": {
    "version": "2.0",
    "generator": "ModelConverterX"
  },
  "extensionsUsed": [],
  "scene": 0,
  "scenes": [
    {
      "nodes": [
        0
      ]
    }
  ],
  "nodes": [
    {
      "name": "node0",
      "children": [
        1
      ]
    },
    {
      "name": "node1",
      "mesh": 0
    }
  ],
  "meshes": [
    {
      "primitives": [
        {
          "attributes": {
            "POSITION": 0,
            "NORMAL": 1,
            "TEXCOORD_0": 2
          },
          "indices": 3,
          "mode": 4,
          "material": 0
        }
      ],
      "name": "part000"
    }
  ],
  "accessors": [
    {
      "bufferView": 1,
      "byteOffset": 0,
      "componentType": 5126,
      "count": 592,
      "type": "VEC3",
      "min": [
        -88.44485,
        -0.00023,
        -24.16606
      ],
      "max": [
        86.6179,
        3.08694,
        -3.5251
      ]
    },
    {
      "bufferView": 2,
      "byteOffset": 0,
      "componentType": 5126,
      "count": 592,
      "type": "VEC3"
    },
    {
      "bufferView": 3,
      "byteOffset": 0,
      "componentType": 5126,
      "count": 592,
      "type": "VEC2"
    },
    {
      "bufferView": 0,
      "byteOffset": 0,
      "componentType": 5125,
      "count": 906,
      "type": "SCALAR"
    }
  ],
  "materials": [
    {
      "pbrMetallicRoughness": {
        "baseColorFactor": [
          1.0,
          1.0,
          1.0,
          1.0
        ],
        "roughnessFactor": 0.0,
        "metallicFactor": 0.0,
        "baseColorTexture": {
          "index": 0
        }
      },
      "emissiveFactor": [
        0.0,
        0.0,
        0.0
      ],
      "emissiveTexture": {
        "index": 1
      }
    }
  ],
  "textures": [
    {
      "source": 0,
      "name": "mamute_corredor"
    },
    {
      "source": 1,
      "name": "mamute_corredor_lit"
    }
  ],
  "images": [
    {
      "uri": "mamute_corredor.png"
    },
    {
      "uri": "mamute_corredor_lit.png"
    }
  ],
  "bufferViews": [
    {
      "buffer": 0,
      "byteOffset": 0,
      "byteLength": 3624
    },
    {
      "buffer": 0,
      "byteOffset": 3624,
      "byteLength": 7104
    },
    {
      "buffer": 0,
      "byteOffset": 10728,
      "byteLength": 7104
    },
    {
      "buffer": 0,
      "byteOffset": 17832,
      "byteLength": 4736
    }
  ],
  "buffers": [
    {
      "byteLength": 22568,
      "uri": "MAMUTE_CORREDOR.bin"
    }
  ]
}